{"glyphs":{"0":{"ha":919,"x_min":56,"x_max":864,"o":"m 282 486 q 294 611 282 556 q 331 706 307 667 q 387 767 354 746 q 460 789 419 789 q 519 775 492 789 q 569 735 547 761 q 606 672 590 708 q 628 589 621 636 q 636 486 636 542 q 624 362 636 418 q 589 266 613 306 q 533 205 565 226 q 460 183 500 183 q 399 197 426 183 q 351 238 372 211 q 314 300 329 264 q 290 383 299 336 q 282 486 282 431 m 56 486 q 74 313 56 393 q 129 172 93 233 q 215 69 165 111 q 326 4 265 26 q 460 -18 388 -18 q 628 15 553 -18 q 756 115 703 49 q 836 274 808 181 q 864 485 864 367 q 846 660 864 581 q 793 800 828 739 q 710 903 758 861 q 598 967 661 944 q 461 990 535 990 q 295 957 369 990 q 167 858 221 924 q 85 699 114 792 q 56 486 56 607 z "},"1":{"ha":708,"x_min":94,"x_max":563,"o":"m 94 692 l 335 750 l 335 0 l 563 0 l 563 990 l 94 897 l 94 692 z "},"2":{"ha":911,"x_min":28,"x_max":853,"o":"m 28 0 l 853 0 l 853 215 l 464 215 l 689 419 q 792 539 754 472 q 829 683 829 606 q 806 793 829 739 q 735 892 782 847 q 620 965 689 938 q 461 992 551 992 q 249 940 335 992 q 119 803 163 889 q 76 613 76 717 l 307 613 q 325 704 307 665 q 376 766 343 743 q 454 789 408 789 q 510 778 486 789 q 553 751 535 768 q 578 712 571 733 q 586 667 586 690 q 570 595 586 629 q 527 526 554 561 q 461 449 500 490 l 28 0 z "},"3":{"ha":863,"x_min":67,"x_max":822,"o":"m 382 472 q 543 487 468 472 q 674 532 618 501 q 763 610 731 563 q 794 722 794 658 q 754 857 794 796 q 638 954 714 918 q 451 990 561 990 q 270 950 347 990 q 151 842 193 910 q 108 688 108 775 l 325 688 q 342 747 325 721 q 387 788 358 774 q 453 803 415 803 q 513 790 489 803 q 549 756 538 778 q 561 706 561 735 q 549 656 561 679 q 513 615 536 633 q 456 587 489 597 q 382 576 422 576 l 382 472 m 440 -21 q 645 15 560 -21 q 776 116 731 51 q 822 265 822 181 q 790 393 822 340 q 699 479 757 446 q 559 528 640 513 q 382 544 478 544 l 382 425 q 474 415 435 425 q 539 388 514 406 q 576 344 564 369 q 589 289 589 319 q 572 221 589 247 q 522 181 554 194 q 450 167 490 167 q 375 182 410 167 q 319 229 340 197 q 299 310 299 261 l 67 310 q 91 184 67 243 q 165 78 115 125 q 283 6 214 32 q 440 -21 353 -21 z "},"4":{"ha":971,"x_min":21,"x_max":911,"o":"m 21 171 l 911 171 l 911 372 l 713 372 l 689 342 l 331 342 l 540 632 l 540 260 l 514 244 l 514 0 l 758 0 l 758 972 l 583 972 l 21 171 z "},"5":{"ha":896,"x_min":58,"x_max":840,"o":"m 840 313 q 799 483 840 413 q 690 591 757 553 q 544 629 622 629 q 456 622 499 629 q 375 596 414 615 l 431 768 l 821 768 l 821 972 l 260 972 l 122 411 q 221 449 172 435 q 314 467 269 463 q 396 472 358 472 q 487 458 444 472 q 556 413 529 443 q 582 336 582 383 q 560 258 582 289 q 497 213 539 228 q 396 197 454 197 q 317 210 360 197 q 232 246 275 222 q 150 301 189 269 l 58 108 q 160 46 104 75 q 288 -1 217 17 q 449 -18 360 -18 q 589 1 519 -18 q 715 60 658 21 q 806 163 772 100 q 840 313 840 225 z "},"6":{"ha":929,"x_min":69,"x_max":861,"o":"m 301 343 q 324 428 301 392 q 383 486 346 465 q 465 507 419 507 q 549 486 513 507 q 607 428 585 465 q 629 343 629 392 q 607 256 629 294 q 549 198 585 218 q 465 178 513 178 q 383 198 421 178 q 324 256 346 218 q 301 343 301 294 m 463 968 l 185 613 q 103 488 136 554 q 69 343 69 422 q 123 140 69 222 q 267 19 176 58 q 465 -21 357 -21 q 665 19 575 -21 q 808 140 754 58 q 861 343 861 222 q 835 474 861 415 q 765 573 810 532 q 668 636 721 614 q 561 658 615 658 q 473 646 508 658 q 397 596 438 633 l 446 617 l 761 968 l 463 968 z "},"7":{"ha":838,"x_min":42,"x_max":835,"o":"m 42 753 l 490 753 l 110 0 l 365 0 l 835 972 l 42 972 l 42 753 z "},"8":{"ha":871,"x_min":72,"x_max":800,"o":"m 107 738 q 135 621 107 669 q 213 540 164 572 q 319 491 261 507 q 436 475 376 475 q 554 491 496 475 q 660 540 613 507 q 736 621 707 572 q 765 738 765 669 q 739 847 765 800 q 667 927 713 894 q 563 977 622 960 q 438 994 504 994 q 272 965 347 994 q 152 877 197 935 q 107 738 107 819 m 329 715 q 342 772 329 747 q 380 811 356 797 q 436 825 404 825 q 493 811 468 825 q 531 772 518 797 q 543 717 543 747 q 529 658 543 683 q 491 618 515 632 q 438 604 467 604 q 382 618 407 604 q 343 658 357 632 q 329 715 329 683 m 72 264 q 102 144 72 196 q 183 54 132 92 q 299 -2 233 17 q 438 -21 365 -21 q 574 -2 510 -21 q 690 54 639 17 q 771 144 742 92 q 800 264 800 196 q 766 397 800 343 q 678 484 732 450 q 560 534 624 518 q 436 550 496 550 q 313 534 376 550 q 195 484 250 518 q 106 397 140 450 q 72 264 72 343 m 307 301 q 324 365 307 338 q 372 409 342 392 q 436 426 401 426 q 501 410 472 426 q 548 365 531 393 q 565 300 565 338 q 548 230 565 260 q 501 184 531 200 q 436 168 472 168 q 372 184 401 168 q 324 230 342 200 q 307 301 307 260 z "},"9":{"ha":929,"x_min":69,"x_max":861,"o":"m 629 629 q 607 544 629 582 q 549 486 585 507 q 465 465 513 465 q 383 486 419 465 q 324 544 346 507 q 301 629 301 582 q 324 717 301 679 q 383 774 346 754 q 465 794 419 794 q 549 774 513 794 q 607 717 585 754 q 629 629 629 679 m 468 4 l 747 360 q 828 485 796 418 q 861 629 861 551 q 808 832 861 750 q 665 954 754 914 q 465 994 575 994 q 267 954 357 994 q 123 832 176 914 q 69 629 69 750 q 95 499 69 557 q 165 399 121 440 q 262 336 208 358 q 369 314 315 314 q 458 326 422 314 q 532 376 493 339 l 485 356 l 169 4 l 468 4 z "},"A":{"ha":1021,"x_min":0,"x_max":1022,"o":"m 257 188 l 771 188 l 754 367 l 272 367 l 257 188 m 513 614 l 649 301 l 639 239 l 754 0 l 1022 0 l 513 1033 l 0 0 l 265 0 l 385 247 l 375 301 l 513 614 z "},"À":{"ha":1021,"x_min":0,"x_max":1022,"o":"m 257 188 l 771 188 l 754 367 l 272 367 l 257 188 m 513 614 l 649 301 l 639 239 l 754 0 l 1022 0 l 513 1033 l 0 0 l 265 0 l 385 247 l 375 301 l 513 614 m 286 1325 l 536 1117 l 656 1176 l 447 1399 l 286 1325 z "},"Á":{"ha":1021,"x_min":0,"x_max":1022,"o":"m 257 188 l 771 188 l 754 367 l 272 367 l 257 188 m 513 614 l 649 301 l 639 239 l 754 0 l 1022 0 l 513 1033 l 0 0 l 265 0 l 385 247 l 375 301 l 513 614 m 731 1325 l 571 1399 l 363 1176 l 481 1117 l 731 1325 z "},"Â":{"ha":1021,"x_min":0,"x_max":1022,"o":"m 257 188 l 771 188 l 754 367 l 272 367 l 257 188 m 513 614 l 649 301 l 639 239 l 754 0 l 1022 0 l 513 1033 l 0 0 l 265 0 l 385 247 l 375 301 l 513 614 m 513 1215 l 638 1096 l 785 1196 l 513 1390 l 236 1196 l 383 1096 l 513 1215 z "},"Ã":{"ha":1021,"x_min":0,"x_max":1022,"o":"m 257 188 l 771 188 l 754 367 l 272 367 l 257 188 m 513 614 l 649 301 l 639 239 l 754 0 l 1022 0 l 513 1033 l 0 0 l 265 0 l 385 247 l 375 301 l 513 614 m 238 1199 l 338 1113 q 343 1140 338 1124 q 363 1170 349 1157 q 403 1183 376 1183 q 468 1165 439 1183 q 528 1127 497 1146 q 597 1108 560 1108 q 678 1128 640 1108 q 744 1175 717 1147 q 783 1228 772 1203 l 685 1331 q 642 1278 664 1297 q 593 1258 619 1258 q 543 1269 564 1258 q 504 1293 522 1279 q 463 1318 486 1307 q 404 1329 439 1329 q 326 1310 360 1329 q 268 1263 292 1292 q 238 1199 244 1233 z "},"Ä":{"ha":1021,"x_min":0,"x_max":1022,"o":"m 257 188 l 771 188 l 754 367 l 272 367 l 257 188 m 513 614 l 649 301 l 639 239 l 754 0 l 1022 0 l 513 1033 l 0 0 l 265 0 l 385 247 l 375 301 l 513 614 m 583 1153 q 619 1070 583 1101 q 706 1039 654 1039 q 792 1070 757 1039 q 828 1153 828 1101 q 792 1235 828 1201 q 706 1268 757 1268 q 619 1235 654 1268 q 583 1153 583 1201 m 183 1161 q 219 1079 183 1111 q 307 1047 256 1047 q 394 1079 358 1047 q 431 1161 431 1111 q 394 1243 431 1211 q 307 1275 358 1275 q 219 1243 256 1275 q 183 1161 183 1211 z "},"Å":{"ha":1021,"x_min":0,"x_max":1022,"o":"m 257 188 l 771 188 l 754 367 l 272 367 l 257 188 m 513 614 l 649 301 l 639 239 l 754 0 l 1022 0 l 513 1033 l 0 0 l 265 0 l 385 247 l 375 301 l 513 614 m 336 1111 q 359 1028 336 1064 q 422 972 382 992 q 511 951 461 951 q 599 972 560 951 q 661 1028 638 992 q 685 1111 685 1064 q 661 1197 685 1161 q 599 1253 638 1233 q 511 1272 560 1272 q 422 1252 461 1272 q 359 1197 382 1232 q 336 1111 336 1161 m 446 1110 q 456 1146 446 1132 q 480 1169 465 1160 q 511 1178 494 1178 q 556 1160 538 1178 q 575 1111 575 1143 q 566 1076 575 1090 q 542 1054 557 1061 q 511 1047 528 1047 q 465 1065 485 1047 q 446 1110 446 1082 z "},"Ā":{"ha":1021,"x_min":0,"x_max":1022,"o":"m 257 188 l 771 188 l 754 367 l 272 367 l 257 188 m 513 614 l 649 301 l 639 239 l 754 0 l 1022 0 l 513 1033 l 0 0 l 265 0 l 385 247 l 375 301 l 513 614 m 253 1117 l 768 1117 l 768 1300 l 253 1300 l 253 1117 z "},"Ă":{"ha":1021,"x_min":0,"x_max":1022,"o":"m 257 188 l 771 188 l 754 367 l 272 367 l 257 188 m 513 614 l 649 301 l 639 239 l 754 0 l 1022 0 l 513 1033 l 0 0 l 265 0 l 385 247 l 375 301 l 513 614 m 282 1322 q 309 1217 282 1264 q 388 1144 336 1171 q 513 1117 440 1117 q 636 1144 586 1117 q 713 1217 686 1171 q 739 1322 739 1264 l 603 1322 q 591 1278 603 1297 q 559 1249 579 1260 q 513 1238 539 1238 q 464 1249 485 1238 q 431 1278 443 1260 q 419 1322 419 1297 l 282 1322 z "},"Ą":{"ha":1021,"x_min":0,"x_max":1022,"o":"m 257 188 l 771 188 l 754 367 l 272 367 l 257 188 m 513 614 l 649 301 l 639 239 l 754 0 l 1022 0 l 513 1033 l 0 0 l 265 0 l 385 247 l 375 301 l 513 614 m 960 -154 q 928 -175 946 -168 q 890 -182 911 -182 q 853 -169 865 -182 q 842 -131 842 -157 q 855 -86 842 -108 q 892 -42 868 -64 q 953 0 917 -19 l 896 35 q 804 -19 847 10 q 733 -85 761 -49 q 704 -167 704 -121 q 726 -242 704 -211 q 785 -290 747 -274 q 867 -306 822 -306 q 958 -288 925 -306 q 1006 -250 990 -271 l 960 -154 z "},"B":{"ha":924,"x_min":104,"x_max":861,"o":"m 278 483 l 461 483 q 639 511 561 483 q 761 593 717 539 q 806 725 806 647 q 780 833 806 788 q 709 910 754 879 q 600 957 664 942 q 461 972 536 972 l 104 972 l 104 0 l 483 0 q 683 28 599 0 q 815 116 768 57 q 861 272 861 175 q 829 400 861 347 q 743 486 797 453 q 622 535 689 519 q 483 550 554 550 l 278 550 l 278 422 l 457 422 q 520 416 490 422 q 572 396 550 410 q 606 360 593 382 q 618 307 618 339 q 597 233 618 261 q 539 194 575 206 q 457 182 503 182 l 338 182 l 338 790 l 435 790 q 529 765 496 790 q 563 690 563 739 q 547 635 563 658 q 503 599 532 611 q 435 586 475 586 l 278 586 l 278 483 z "},"C":{"ha":972,"x_min":49,"x_max":885,"o":"m 304 486 q 327 605 304 553 q 390 694 350 657 q 483 751 431 732 q 596 771 536 771 q 718 753 665 771 q 812 706 771 735 q 885 642 853 676 l 885 897 q 758 969 826 943 q 582 994 689 994 q 367 958 464 994 q 197 854 269 921 q 87 694 125 788 q 49 486 49 600 q 87 278 49 372 q 197 119 125 185 q 367 16 269 53 q 582 -21 464 -21 q 758 6 689 -21 q 885 75 826 32 l 885 331 q 812 267 853 296 q 718 219 771 238 q 596 201 665 201 q 483 221 536 201 q 390 278 431 240 q 327 367 350 315 q 304 486 304 419 z "},"Ç":{"ha":972,"x_min":49,"x_max":885,"o":"m 304 486 q 327 605 304 553 q 390 694 350 657 q 483 751 431 732 q 596 771 536 771 q 718 753 665 771 q 812 706 771 735 q 885 642 853 676 l 885 897 q 758 969 826 943 q 582 994 689 994 q 367 958 464 994 q 197 854 269 921 q 87 694 125 788 q 49 486 49 600 q 87 278 49 372 q 197 119 125 185 q 367 16 269 53 q 582 -21 464 -21 q 758 6 689 -21 q 885 75 826 32 l 885 331 q 812 267 853 296 q 718 219 771 238 q 596 201 665 201 q 483 221 536 201 q 390 278 431 240 q 327 367 350 315 q 304 486 304 419 m 497 67 l 375 -204 q 446 -185 411 -189 q 490 -181 481 -181 q 531 -185 513 -181 q 562 -199 550 -189 q 574 -226 574 -208 q 565 -253 574 -243 q 540 -269 556 -264 q 500 -275 524 -275 q 447 -266 478 -275 q 388 -239 415 -257 l 324 -336 q 421 -377 374 -365 q 526 -389 468 -389 q 613 -372 571 -389 q 681 -321 654 -354 q 708 -236 708 -287 q 688 -162 708 -192 q 638 -117 668 -132 q 581 -103 608 -103 q 555 -103 568 -103 q 531 -107 542 -104 l 651 63 l 497 67 z "},"Ć":{"ha":972,"x_min":49,"x_max":885,"o":"m 304 486 q 327 605 304 553 q 390 694 350 657 q 483 751 431 732 q 596 771 536 771 q 718 753 665 771 q 812 706 771 735 q 885 642 853 676 l 885 897 q 758 969 826 943 q 582 994 689 994 q 367 958 464 994 q 197 854 269 921 q 87 694 125 788 q 49 486 49 600 q 87 278 49 372 q 197 119 125 185 q 367 16 269 53 q 582 -21 464 -21 q 758 6 689 -21 q 885 75 826 32 l 885 331 q 812 267 853 296 q 718 219 771 238 q 596 201 665 201 q 483 221 536 201 q 390 278 431 240 q 327 367 350 315 q 304 486 304 419 m 763 1286 l 600 1360 l 392 1138 l 513 1078 l 763 1286 z "},"Ĉ":{"ha":972,"x_min":49,"x_max":885,"o":"m 304 486 q 327 605 304 553 q 390 694 350 657 q 483 751 431 732 q 596 771 536 771 q 718 753 665 771 q 812 706 771 735 q 885 642 853 676 l 885 897 q 758 969 826 943 q 582 994 689 994 q 367 958 464 994 q 197 854 269 921 q 87 694 125 788 q 49 486 49 600 q 87 278 49 372 q 197 119 125 185 q 367 16 269 53 q 582 -21 464 -21 q 758 6 689 -21 q 885 75 826 32 l 885 331 q 812 267 853 296 q 718 219 771 238 q 596 201 665 201 q 483 221 536 201 q 390 278 431 240 q 327 367 350 315 q 304 486 304 419 m 582 1197 l 707 1078 l 856 1179 l 582 1374 l 307 1179 l 454 1078 l 582 1197 z "},"Ċ":{"ha":972,"x_min":49,"x_max":885,"o":"m 304 486 q 327 605 304 553 q 390 694 350 657 q 483 751 431 732 q 596 771 536 771 q 718 753 665 771 q 812 706 771 735 q 885 642 853 676 l 885 897 q 758 969 826 943 q 582 994 689 994 q 367 958 464 994 q 197 854 269 921 q 87 694 125 788 q 49 486 49 600 q 87 278 49 372 q 197 119 125 185 q 367 16 269 53 q 582 -21 464 -21 q 758 6 689 -21 q 885 75 826 32 l 885 331 q 812 267 853 296 q 718 219 771 238 q 596 201 665 201 q 483 221 536 201 q 390 278 431 240 q 327 367 350 315 q 304 486 304 419 m 424 1192 q 459 1110 424 1143 q 546 1078 494 1078 q 633 1110 597 1078 q 668 1192 668 1143 q 633 1274 668 1243 q 546 1306 597 1306 q 459 1274 494 1306 q 424 1192 424 1243 z "},"Č":{"ha":972,"x_min":49,"x_max":885,"o":"m 304 486 q 327 605 304 553 q 390 694 350 657 q 483 751 431 732 q 596 771 536 771 q 718 753 665 771 q 812 706 771 735 q 885 642 853 676 l 885 897 q 758 969 826 943 q 582 994 689 994 q 367 958 464 994 q 197 854 269 921 q 87 694 125 788 q 49 486 49 600 q 87 278 49 372 q 197 119 125 185 q 367 16 269 53 q 582 -21 464 -21 q 758 6 689 -21 q 885 75 826 32 l 885 331 q 812 267 853 296 q 718 219 771 238 q 596 201 665 201 q 483 221 536 201 q 390 278 431 240 q 327 367 350 315 q 304 486 304 419 m 582 1253 l 454 1374 l 307 1272 l 582 1078 l 856 1272 l 707 1374 l 582 1253 z "},"D":{"ha":1018,"x_min":104,"x_max":971,"o":"m 104 972 l 104 0 l 347 0 l 347 972 l 104 972 m 450 0 q 665 34 569 0 q 830 131 761 68 q 935 284 899 194 q 971 486 971 374 q 935 688 971 599 q 830 841 899 778 q 665 938 761 904 q 450 972 569 972 l 258 972 l 258 763 l 443 763 q 550 749 499 763 q 641 703 601 735 q 704 617 681 671 q 728 486 728 564 q 704 355 728 408 q 641 269 681 301 q 550 224 601 238 q 443 210 499 210 l 258 210 l 258 0 l 450 0 z "},"Ď":{"ha":1018,"x_min":104,"x_max":971,"o":"m 104 972 l 104 0 l 347 0 l 347 972 l 104 972 m 450 0 q 726 59 610 0 q 907 227 843 118 q 971 486 971 336 q 907 745 971 636 q 726 913 843 854 q 450 972 610 972 l 258 972 l 258 763 l 443 763 q 550 749 499 763 q 641 703 601 735 q 704 617 681 671 q 728 486 728 564 q 704 355 728 408 q 641 269 681 301 q 550 224 601 238 q 443 210 499 210 l 258 210 l 258 0 l 450 0 m 522 1253 l 394 1374 l 247 1272 l 522 1078 l 796 1272 l 649 1374 l 522 1253 z "},"E":{"ha":838,"x_min":104,"x_max":749,"o":"m 258 0 l 749 0 l 749 193 l 258 193 l 258 0 m 258 779 l 749 779 l 749 972 l 258 972 l 258 779 m 258 415 l 721 415 l 721 607 l 258 607 l 258 415 m 104 972 l 104 0 l 329 0 l 329 972 l 104 972 z "},"È":{"ha":838,"x_min":104,"x_max":749,"o":"m 258 0 l 749 0 l 749 193 l 258 193 l 258 0 m 258 779 l 749 779 l 749 972 l 258 972 l 258 779 m 258 415 l 721 415 l 721 607 l 258 607 l 258 415 m 104 972 l 104 0 l 329 0 l 329 972 l 104 972 m 203 1294 l 453 1086 l 571 1146 l 363 1368 l 203 1294 z "},"É":{"ha":838,"x_min":104,"x_max":749,"o":"m 258 0 l 749 0 l 749 193 l 258 193 l 258 0 m 258 779 l 749 779 l 749 972 l 258 972 l 258 779 m 258 415 l 721 415 l 721 607 l 258 607 l 258 415 m 104 972 l 104 0 l 329 0 l 329 972 l 104 972 m 647 1294 l 485 1368 l 276 1146 l 397 1086 l 647 1294 z "},"Ê":{"ha":838,"x_min":104,"x_max":749,"o":"m 258 0 l 749 0 l 749 193 l 258 193 l 258 0 m 258 779 l 749 779 l 749 972 l 258 972 l 258 779 m 258 415 l 721 415 l 721 607 l 258 607 l 258 415 m 104 972 l 104 0 l 329 0 l 329 972 l 104 972 m 436 1197 l 563 1078 l 710 1179 l 436 1374 l 161 1179 l 308 1078 l 436 1197 z "},"Ë":{"ha":838,"x_min":104,"x_max":749,"o":"m 258 0 l 749 0 l 749 193 l 258 193 l 258 0 m 258 779 l 749 779 l 749 972 l 258 972 l 258 779 m 258 415 l 721 415 l 721 607 l 258 607 l 258 415 m 104 972 l 104 0 l 329 0 l 329 972 l 104 972 m 478 1203 q 513 1122 478 1153 q 600 1090 549 1090 q 689 1122 653 1090 q 725 1203 725 1153 q 689 1285 725 1253 q 600 1317 653 1317 q 513 1285 549 1317 q 478 1203 478 1253 m 140 1203 q 175 1122 140 1153 q 261 1090 210 1090 q 349 1122 313 1090 q 385 1203 385 1153 q 349 1285 385 1253 q 261 1317 313 1317 q 175 1285 210 1317 q 140 1203 140 1253 z "},"Ē":{"ha":838,"x_min":104,"x_max":749,"o":"m 258 0 l 749 0 l 749 193 l 258 193 l 258 0 m 258 779 l 749 779 l 749 972 l 258 972 l 258 779 m 258 415 l 721 415 l 721 607 l 258 607 l 258 415 m 104 972 l 104 0 l 329 0 l 329 972 l 104 972 m 169 1078 l 685 1078 l 685 1261 l 169 1261 l 169 1078 z "},"Ĕ":{"ha":838,"x_min":104,"x_max":749,"o":"m 258 0 l 749 0 l 749 193 l 258 193 l 258 0 m 258 779 l 749 779 l 749 972 l 258 972 l 258 779 m 258 415 l 721 415 l 721 607 l 258 607 l 258 415 m 104 972 l 104 0 l 329 0 l 329 972 l 104 972 m 197 1281 q 224 1178 197 1224 q 301 1105 250 1132 q 425 1078 353 1078 q 550 1105 499 1078 q 627 1178 601 1132 q 653 1281 653 1224 l 515 1281 q 504 1240 515 1258 q 473 1210 493 1221 q 425 1199 453 1199 q 378 1210 399 1199 q 346 1240 357 1221 q 335 1281 335 1258 l 197 1281 z "},"Ė":{"ha":838,"x_min":104,"x_max":749,"o":"m 258 0 l 749 0 l 749 193 l 258 193 l 258 0 m 258 779 l 749 779 l 749 972 l 258 972 l 258 779 m 258 415 l 721 415 l 721 607 l 258 607 l 258 415 m 104 972 l 104 0 l 329 0 l 329 972 l 104 972 m 301 1193 q 338 1110 301 1143 q 424 1078 374 1078 q 512 1110 476 1078 q 547 1192 547 1143 q 512 1274 547 1243 q 424 1306 476 1306 q 338 1274 374 1306 q 301 1193 301 1243 z "},"Ę":{"ha":838,"x_min":104,"x_max":749,"o":"m 258 0 l 749 0 l 749 193 l 258 193 l 258 0 m 258 779 l 749 779 l 749 972 l 258 972 l 258 779 m 258 415 l 721 415 l 721 607 l 258 607 l 258 415 m 104 972 l 104 0 l 329 0 l 329 972 l 104 972 m 554 -154 q 523 -175 540 -168 q 485 -182 506 -182 q 448 -169 460 -182 q 436 -131 436 -157 q 449 -85 436 -107 q 486 -42 461 -64 q 547 0 511 -19 l 490 35 q 398 -19 442 10 q 326 -85 354 -49 q 299 -167 299 -121 q 320 -242 299 -211 q 379 -290 342 -274 q 461 -306 417 -306 q 552 -288 519 -306 q 600 -250 585 -271 l 554 -154 z "},"Ě":{"ha":838,"x_min":104,"x_max":749,"o":"m 258 0 l 749 0 l 749 193 l 258 193 l 258 0 m 258 779 l 749 779 l 749 972 l 258 972 l 258 779 m 258 415 l 721 415 l 721 607 l 258 607 l 258 415 m 104 972 l 104 0 l 329 0 l 329 972 l 104 972 m 425 1253 l 300 1374 l 151 1272 l 425 1078 l 700 1272 l 553 1374 l 425 1253 z "},"F":{"ha":768,"x_min":104,"x_max":693,"o":"m 258 769 l 693 769 l 693 972 l 258 972 l 258 769 m 258 390 l 679 390 l 679 579 l 258 579 l 258 390 m 104 972 l 104 0 l 329 0 l 329 972 l 104 972 z "},"G":{"ha":1131,"x_min":49,"x_max":1083,"o":"m 586 351 l 843 351 q 810 281 831 314 q 757 224 789 249 q 683 187 725 200 q 588 174 642 174 q 469 195 524 174 q 376 258 415 217 q 315 356 336 299 q 293 486 293 414 q 316 614 293 558 q 380 710 339 669 q 474 770 421 750 q 588 790 526 790 q 728 751 674 790 q 815 656 782 713 l 1026 764 q 918 883 981 832 q 773 965 856 935 q 588 994 690 994 q 373 959 471 994 q 201 856 275 924 q 88 695 128 789 q 49 486 49 601 q 87 276 49 372 q 197 112 125 181 q 366 6 269 43 q 579 -31 463 -31 q 799 13 704 -31 q 958 134 894 56 q 1053 315 1022 213 q 1078 532 1083 417 l 586 532 l 586 351 z "},"Ĝ":{"ha":1131,"x_min":49,"x_max":1083,"o":"m 586 351 l 843 351 q 810 281 831 314 q 757 224 789 249 q 683 187 725 200 q 588 174 642 174 q 469 195 524 174 q 376 258 415 217 q 315 356 336 299 q 293 486 293 414 q 316 614 293 558 q 380 710 339 669 q 474 770 421 750 q 588 790 526 790 q 728 751 674 790 q 815 656 782 713 l 1026 764 q 918 883 981 832 q 773 965 856 935 q 588 994 690 994 q 373 959 471 994 q 201 856 275 924 q 88 695 128 789 q 49 486 49 601 q 87 276 49 372 q 197 112 125 181 q 366 6 269 43 q 579 -31 463 -31 q 799 13 704 -31 q 958 134 894 56 q 1053 315 1022 213 q 1078 532 1083 417 l 586 532 l 586 351 m 588 1197 l 714 1078 l 863 1179 l 588 1374 l 314 1179 l 461 1078 l 588 1197 z "},"Ğ":{"ha":1131,"x_min":49,"x_max":1083,"o":"m 586 351 l 843 351 q 810 281 831 314 q 757 224 789 249 q 683 187 725 200 q 588 174 642 174 q 469 195 524 174 q 376 258 415 217 q 315 356 336 299 q 293 486 293 414 q 316 614 293 558 q 380 710 339 669 q 474 770 421 750 q 588 790 526 790 q 728 751 674 790 q 815 656 782 713 l 1026 764 q 918 883 981 832 q 773 965 856 935 q 588 994 690 994 q 373 959 471 994 q 201 856 275 924 q 88 695 128 789 q 49 486 49 601 q 87 276 49 372 q 197 112 125 181 q 366 6 269 43 q 579 -31 463 -31 q 799 13 704 -31 q 958 134 894 56 q 1053 315 1022 213 q 1078 532 1083 417 l 586 532 l 586 351 m 360 1281 q 387 1178 360 1224 q 465 1105 414 1132 q 588 1078 515 1078 q 712 1105 661 1078 q 789 1178 763 1132 q 815 1281 815 1224 l 678 1281 q 667 1240 678 1258 q 635 1210 656 1221 q 588 1199 615 1199 q 540 1210 561 1199 q 508 1240 519 1221 q 497 1281 497 1258 l 360 1281 z "},"Ġ":{"ha":1131,"x_min":49,"x_max":1083,"o":"m 586 351 l 843 351 q 810 281 831 314 q 757 224 789 249 q 683 187 725 200 q 588 174 642 174 q 469 195 524 174 q 376 258 415 217 q 315 356 336 299 q 293 486 293 414 q 316 614 293 558 q 380 710 339 669 q 474 770 421 750 q 588 790 526 790 q 728 751 674 790 q 815 656 782 713 l 1026 764 q 918 883 981 832 q 773 965 856 935 q 588 994 690 994 q 373 959 471 994 q 201 856 275 924 q 88 695 128 789 q 49 486 49 601 q 87 276 49 372 q 197 112 125 181 q 366 6 269 43 q 579 -31 463 -31 q 799 13 704 -31 q 958 134 894 56 q 1053 315 1022 213 q 1078 532 1083 417 l 586 532 l 586 351 m 467 1192 q 501 1110 467 1143 q 588 1078 536 1078 q 674 1110 639 1078 q 710 1192 710 1143 q 674 1274 710 1243 q 588 1306 639 1306 q 501 1274 536 1306 q 467 1192 467 1243 z "},"Ģ":{"ha":1131,"x_min":49,"x_max":1083,"o":"m 586 351 l 843 351 q 810 281 831 314 q 757 224 789 249 q 683 187 725 200 q 588 174 642 174 q 469 195 524 174 q 376 258 415 217 q 315 356 336 299 q 293 486 293 414 q 316 614 293 558 q 380 710 339 669 q 474 770 421 750 q 588 790 526 790 q 728 751 674 790 q 815 656 782 713 l 1026 764 q 918 883 981 832 q 773 965 856 935 q 588 994 690 994 q 373 959 471 994 q 201 856 275 924 q 88 695 128 789 q 49 486 49 601 q 87 276 49 372 q 197 112 125 181 q 366 6 269 43 q 579 -31 463 -31 q 799 13 704 -31 q 958 134 894 56 q 1053 315 1022 213 q 1078 532 1083 417 l 586 532 l 586 351 m 493 -114 l 371 -475 l 528 -507 l 703 -160 l 493 -114 z "},"H":{"ha":1092,"x_min":104,"x_max":990,"o":"m 169 407 l 904 407 l 904 618 l 169 618 l 169 407 m 757 972 l 757 0 l 990 0 l 990 972 l 757 972 m 104 972 l 104 0 l 338 0 l 338 972 l 104 972 z "},"Ĥ":{"ha":1092,"x_min":104,"x_max":990,"o":"m 169 407 l 904 407 l 904 618 l 169 618 l 169 407 m 757 972 l 757 0 l 990 0 l 990 972 l 757 972 m 104 972 l 104 0 l 338 0 l 338 972 l 104 972 m 547 1197 l 674 1078 l 821 1179 l 547 1374 l 272 1179 l 421 1078 l 547 1197 z "},"I":{"ha":444,"x_min":104,"x_max":342,"o":"m 104 972 l 104 0 l 342 0 l 342 972 l 104 972 z "},"Ì":{"ha":444,"x_min":-11,"x_max":358,"o":"m 104 972 l 104 0 l 342 0 l 342 972 l 104 972 m -11 1294 l 239 1086 l 358 1146 l 150 1368 l -11 1294 z "},"Í":{"ha":444,"x_min":65,"x_max":433,"o":"m 104 972 l 104 0 l 342 0 l 342 972 l 104 972 m 433 1294 l 274 1368 l 65 1146 l 183 1086 l 433 1294 z "},"Î":{"ha":444,"x_min":-53,"x_max":496,"o":"m 104 972 l 104 0 l 342 0 l 342 972 l 104 972 m 224 1197 l 349 1078 l 496 1179 l 224 1374 l -53 1179 l 96 1078 l 224 1197 z "},"Ï":{"ha":444,"x_min":-69,"x_max":514,"o":"m 104 972 l 104 0 l 342 0 l 342 972 l 104 972 m 269 1192 q 305 1110 269 1143 q 392 1078 340 1078 q 478 1110 443 1078 q 514 1192 514 1143 q 478 1274 514 1243 q 392 1306 443 1306 q 305 1274 340 1306 q 269 1192 269 1243 m -69 1192 q -34 1110 -69 1143 q 54 1078 1 1078 q 140 1110 104 1078 q 176 1192 176 1143 q 140 1274 176 1243 q 54 1306 104 1306 q -34 1274 1 1306 q -69 1192 -69 1243 z "},"Ĩ":{"ha":444,"x_min":-50,"x_max":496,"o":"m 104 972 l 104 0 l 342 0 l 342 972 l 104 972 m -50 1169 l 50 1083 q 56 1111 50 1094 q 75 1141 61 1128 q 115 1154 89 1154 q 180 1136 150 1154 q 240 1099 210 1118 q 308 1081 271 1081 q 391 1099 353 1081 q 457 1147 429 1118 q 496 1200 485 1175 l 397 1303 q 354 1249 376 1269 q 306 1228 332 1228 q 256 1239 276 1228 q 216 1265 236 1250 q 173 1290 196 1279 q 115 1300 150 1300 q 36 1281 71 1300 q -21 1233 1 1263 q -50 1169 -43 1204 z "},"Ī":{"ha":444,"x_min":-36,"x_max":481,"o":"m 104 972 l 104 0 l 342 0 l 342 972 l 104 972 m -36 1078 l 481 1078 l 481 1261 l -36 1261 l -36 1078 z "},"Ĭ":{"ha":444,"x_min":-6,"x_max":450,"o":"m 104 972 l 104 0 l 342 0 l 342 972 l 104 972 m -6 1281 q 21 1178 -6 1224 q 99 1105 47 1132 q 224 1078 151 1078 q 347 1105 297 1078 q 424 1178 397 1132 q 450 1281 450 1224 l 313 1281 q 301 1240 313 1258 q 270 1210 290 1221 q 224 1199 250 1199 q 175 1210 196 1199 q 143 1240 154 1221 q 132 1281 132 1258 l -6 1281 z "},"Į":{"ha":444,"x_min":57,"x_max":360,"o":"m 104 972 l 104 0 l 342 0 l 342 972 l 104 972 m 314 -151 q 282 -172 300 -165 q 244 -179 264 -179 q 207 -167 219 -179 q 194 -128 194 -154 q 208 -83 194 -106 q 246 -39 221 -61 q 307 3 271 -17 l 250 38 q 157 -17 201 13 q 85 -82 113 -46 q 57 -164 57 -118 q 78 -240 57 -208 q 138 -287 100 -271 q 219 -303 175 -303 q 311 -285 278 -303 q 360 -247 344 -268 l 314 -151 z "},"İ":{"ha":444,"x_min":99,"x_max":344,"o":"m 104 972 l 104 0 l 342 0 l 342 972 l 104 972 m 99 1192 q 135 1110 99 1143 q 224 1078 171 1078 q 309 1110 274 1078 q 344 1192 344 1143 q 309 1274 344 1243 q 224 1306 274 1306 q 135 1274 171 1306 q 99 1192 99 1243 z "},"J":{"ha":458,"x_min":-228,"x_max":358,"o":"m -100 -87 l -228 -253 q -159 -289 -200 -271 q -68 -319 -118 -307 q 36 -332 -18 -332 q 159 -318 101 -332 q 261 -274 217 -304 q 332 -194 306 -243 q 358 -75 358 -146 l 358 972 l 104 972 l 104 -22 q 74 -109 104 -85 q 13 -133 44 -133 q -49 -119 -18 -133 q -100 -87 -79 -106 z "},"Ĵ":{"ha":458,"x_min":-228,"x_max":503,"o":"m -100 -87 l -228 -253 q -159 -289 -200 -271 q -68 -319 -118 -307 q 36 -332 -18 -332 q 159 -318 101 -332 q 261 -274 217 -304 q 332 -194 306 -243 q 358 -75 358 -146 l 358 972 l 104 972 l 104 -22 q 74 -109 104 -85 q 13 -133 44 -133 q -49 -119 -18 -133 q -100 -87 -79 -106 m 231 1197 l 356 1078 l 503 1179 l 231 1374 l -44 1179 l 103 1078 l 231 1197 z "},"K":{"ha":972,"x_min":104,"x_max":974,"o":"m 104 972 l 104 0 l 347 0 l 347 972 l 104 972 m 676 972 l 278 510 l 689 0 l 974 0 l 558 517 l 953 972 l 676 972 z "},"Ķ":{"ha":972,"x_min":104,"x_max":974,"o":"m 104 972 l 104 0 l 347 0 l 347 972 l 104 972 m 676 972 l 278 510 l 689 0 l 974 0 l 558 517 l 953 972 l 676 972 m 458 -83 l 336 -443 l 494 -475 l 671 -128 l 458 -83 z "},"L":{"ha":733,"x_min":104,"x_max":729,"o":"m 104 972 l 104 0 l 729 0 l 729 203 l 338 203 l 338 972 l 104 972 z "},"Ĺ":{"ha":733,"x_min":104,"x_max":729,"o":"m 104 972 l 104 0 l 729 0 l 729 203 l 338 203 l 338 972 l 104 972 m 639 1286 l 479 1360 l 271 1138 l 389 1078 l 639 1286 z "},"Ļ":{"ha":733,"x_min":104,"x_max":729,"o":"m 104 972 l 104 0 l 729 0 l 729 203 l 338 203 l 338 972 l 104 972 m 371 -83 l 249 -443 l 407 -475 l 582 -128 l 371 -83 z "},"Ľ":{"ha":733,"x_min":104,"x_max":783,"o":"m 104 972 l 104 0 l 729 0 l 729 203 l 338 203 l 338 972 l 104 972 m 574 994 l 451 635 l 610 603 l 783 950 l 574 994 z "},"M":{"ha":1238,"x_min":49,"x_max":1193,"o":"m 354 494 l 619 90 l 885 494 l 944 0 l 1193 0 l 1033 1021 l 619 429 l 204 1021 l 49 0 l 294 0 l 354 494 z "},"N":{"ha":1101,"x_min":104,"x_max":1001,"o":"m 774 972 l 774 428 l 104 1021 l 104 0 l 329 0 l 329 544 l 1001 -49 l 1001 972 l 774 972 z "},"Ñ":{"ha":1101,"x_min":104,"x_max":1001,"o":"m 774 972 l 774 428 l 104 1021 l 104 0 l 329 0 l 329 544 l 1001 -49 l 1001 972 l 774 972 m 239 1157 l 338 1072 q 343 1100 338 1083 q 363 1130 349 1117 q 401 1143 376 1143 q 468 1124 439 1143 q 528 1087 497 1106 q 597 1068 560 1068 q 678 1087 640 1068 q 744 1133 717 1106 q 783 1186 772 1161 l 686 1292 q 642 1238 665 1258 q 592 1217 619 1217 q 543 1228 564 1217 q 503 1253 522 1239 q 462 1278 485 1267 q 404 1290 439 1290 q 324 1271 358 1290 q 268 1222 290 1251 q 239 1157 246 1192 z "},"Ń":{"ha":1101,"x_min":104,"x_max":1001,"o":"m 774 972 l 774 428 l 104 1021 l 104 0 l 329 0 l 329 544 l 1001 -49 l 1001 972 l 774 972 m 761 1265 l 600 1339 l 392 1117 l 511 1057 l 761 1265 z "},"Ņ":{"ha":1101,"x_min":104,"x_max":1001,"o":"m 504 -75 l 382 -435 l 542 -467 l 715 -119 l 504 -75 m 774 972 l 774 428 l 104 1021 l 104 0 l 329 0 l 329 544 l 1001 -49 l 1001 972 l 774 972 z "},"Ň":{"ha":1101,"x_min":104,"x_max":1001,"o":"m 521 1253 l 396 1372 l 247 1272 l 521 1078 l 794 1272 l 649 1372 l 521 1253 m 774 972 l 774 428 l 104 1021 l 104 0 l 329 0 l 329 544 l 1001 -49 l 1001 972 l 774 972 z "},"O":{"ha":1140,"x_min":49,"x_max":1096,"o":"m 296 486 q 315 604 296 551 q 372 696 335 657 q 459 757 408 735 q 572 779 510 779 q 685 757 635 779 q 772 696 736 735 q 826 603 808 657 q 844 486 844 550 q 825 369 844 422 q 769 276 806 315 q 683 215 733 238 q 572 193 633 193 q 459 215 510 193 q 372 276 408 238 q 315 369 335 315 q 296 486 296 424 m 49 486 q 86 279 49 374 q 194 115 124 185 q 361 8 265 46 q 572 -31 457 -31 q 781 8 686 -31 q 947 115 876 46 q 1057 279 1018 185 q 1096 486 1096 374 q 1056 692 1096 599 q 945 854 1015 786 q 780 958 875 922 q 572 994 685 994 q 364 958 460 994 q 197 854 268 922 q 88 692 126 786 q 49 486 49 599 z "},"Ò":{"ha":1140,"x_min":49,"x_max":1096,"o":"m 296 486 q 315 604 296 551 q 372 696 335 657 q 459 757 408 735 q 572 779 510 779 q 685 757 635 779 q 772 696 736 735 q 826 603 808 657 q 844 486 844 550 q 825 369 844 422 q 769 276 806 315 q 683 215 733 238 q 572 193 633 193 q 459 215 510 193 q 372 276 408 238 q 315 369 335 315 q 296 486 296 424 m 49 486 q 86 279 49 374 q 194 115 124 185 q 361 8 265 46 q 572 -31 457 -31 q 781 8 686 -31 q 947 115 876 46 q 1057 279 1018 185 q 1096 486 1096 374 q 1056 692 1096 599 q 945 854 1015 786 q 780 958 875 922 q 572 994 685 994 q 364 958 460 994 q 197 854 268 922 q 88 692 126 786 q 49 486 49 599 m 364 1294 l 614 1086 l 735 1146 l 526 1368 l 364 1294 z "},"Ó":{"ha":1140,"x_min":49,"x_max":1096,"o":"m 296 486 q 315 604 296 551 q 372 696 335 657 q 459 757 408 735 q 572 779 510 779 q 685 757 635 779 q 772 696 736 735 q 826 603 808 657 q 844 486 844 550 q 825 369 844 422 q 769 276 806 315 q 683 215 733 238 q 572 193 633 193 q 459 215 510 193 q 372 276 408 238 q 315 369 335 315 q 296 486 296 424 m 49 486 q 86 279 49 374 q 194 115 124 185 q 361 8 265 46 q 572 -31 457 -31 q 781 8 686 -31 q 947 115 876 46 q 1057 279 1018 185 q 1096 486 1096 374 q 1056 692 1096 599 q 945 854 1015 786 q 780 958 875 922 q 572 994 685 994 q 364 958 460 994 q 197 854 268 922 q 88 692 126 786 q 49 486 49 599 m 797 1294 l 638 1368 l 429 1146 l 547 1086 l 797 1294 z "},"Ô":{"ha":1140,"x_min":49,"x_max":1096,"o":"m 296 486 q 315 604 296 551 q 372 696 335 657 q 459 757 408 735 q 572 779 510 779 q 685 757 635 779 q 772 696 736 735 q 826 603 808 657 q 844 486 844 550 q 825 369 844 422 q 769 276 806 315 q 683 215 733 238 q 572 193 633 193 q 459 215 510 193 q 372 276 408 238 q 315 369 335 315 q 296 486 296 424 m 49 486 q 86 279 49 374 q 194 115 124 185 q 361 8 265 46 q 572 -31 457 -31 q 781 8 686 -31 q 947 115 876 46 q 1057 279 1018 185 q 1096 486 1096 374 q 1056 692 1096 599 q 945 854 1015 786 q 780 958 875 922 q 572 994 685 994 q 364 958 460 994 q 197 854 268 922 q 88 692 126 786 q 49 486 49 599 m 575 1197 l 703 1078 l 849 1179 l 575 1374 l 300 1179 l 447 1078 l 575 1197 z "},"Õ":{"ha":1140,"x_min":49,"x_max":1096,"o":"m 296 486 q 315 604 296 551 q 372 696 335 657 q 459 757 408 735 q 572 779 510 779 q 685 757 635 779 q 772 696 736 735 q 826 603 808 657 q 844 486 844 550 q 825 369 844 422 q 769 276 806 315 q 683 215 733 238 q 572 193 633 193 q 459 215 510 193 q 372 276 408 238 q 315 369 335 315 q 296 486 296 424 m 49 486 q 86 279 49 374 q 194 115 124 185 q 361 8 265 46 q 572 -31 457 -31 q 781 8 686 -31 q 947 115 876 46 q 1057 279 1018 185 q 1096 486 1096 374 q 1056 692 1096 599 q 945 854 1015 786 q 780 958 875 922 q 572 994 685 994 q 364 958 460 994 q 197 854 268 922 q 88 692 126 786 q 49 486 49 599 m 325 1157 l 425 1071 q 431 1099 425 1082 q 450 1128 436 1115 q 492 1142 464 1142 q 555 1124 525 1142 q 616 1086 585 1106 q 685 1067 647 1067 q 766 1086 728 1067 q 832 1133 804 1106 q 871 1185 860 1160 l 772 1292 q 729 1238 751 1258 q 682 1217 707 1217 q 630 1228 650 1217 q 592 1253 610 1239 q 549 1278 574 1267 q 492 1290 525 1290 q 413 1271 449 1290 q 355 1222 378 1251 q 325 1157 332 1192 z "},"Ö":{"ha":1140,"x_min":49,"x_max":1096,"o":"m 296 486 q 315 604 296 551 q 372 696 335 657 q 459 757 408 735 q 572 779 510 779 q 685 757 635 779 q 772 696 736 735 q 826 603 808 657 q 844 486 844 550 q 825 369 844 422 q 769 276 806 315 q 683 215 733 238 q 572 193 633 193 q 459 215 510 193 q 372 276 408 238 q 315 369 335 315 q 296 486 296 424 m 49 486 q 86 279 49 374 q 194 115 124 185 q 361 8 265 46 q 572 -31 457 -31 q 781 8 686 -31 q 947 115 876 46 q 1057 279 1018 185 q 1096 486 1096 374 q 1056 692 1096 599 q 945 854 1015 786 q 780 958 875 922 q 572 994 685 994 q 364 958 460 994 q 197 854 268 922 q 88 692 126 786 q 49 486 49 599 m 617 1193 q 652 1110 617 1143 q 740 1078 688 1078 q 827 1110 792 1078 q 863 1192 863 1143 q 827 1274 863 1243 q 740 1306 792 1306 q 652 1274 688 1306 q 617 1193 617 1243 m 279 1193 q 315 1110 279 1143 q 403 1078 350 1078 q 488 1110 453 1078 q 524 1192 524 1143 q 488 1274 524 1243 q 403 1306 453 1306 q 315 1274 350 1306 q 279 1193 279 1243 z "},"Ō":{"ha":1140,"x_min":49,"x_max":1096,"o":"m 296 486 q 315 604 296 551 q 372 696 335 657 q 459 757 408 735 q 572 779 510 779 q 685 757 635 779 q 772 696 736 735 q 826 603 808 657 q 844 488 844 550 q 825 369 844 422 q 769 276 806 315 q 683 215 733 238 q 572 193 633 193 q 459 215 510 193 q 372 276 408 238 q 315 369 335 315 q 296 486 296 424 m 49 486 q 86 279 49 374 q 194 115 124 185 q 361 8 265 46 q 572 -31 457 -31 q 781 8 686 -31 q 947 115 876 46 q 1057 279 1018 185 q 1096 486 1096 374 q 1056 692 1096 599 q 945 854 1015 786 q 780 958 875 922 q 572 994 685 994 q 364 958 460 994 q 197 854 268 922 q 88 692 126 786 q 49 486 49 599 m 313 1078 l 828 1078 l 828 1261 l 313 1261 l 313 1078 z "},"Ŏ":{"ha":1140,"x_min":49,"x_max":1096,"o":"m 296 486 q 315 604 296 551 q 372 696 335 657 q 459 757 408 735 q 572 779 510 779 q 685 757 635 779 q 772 696 736 735 q 826 603 808 657 q 844 486 844 550 q 825 369 844 422 q 769 276 806 315 q 683 215 733 238 q 572 193 633 193 q 459 215 510 193 q 372 276 408 238 q 315 369 335 315 q 296 486 296 424 m 49 486 q 86 279 49 374 q 194 115 124 185 q 361 8 265 46 q 572 -31 457 -31 q 781 8 686 -31 q 947 115 876 46 q 1057 279 1018 185 q 1096 486 1096 374 q 1056 692 1096 599 q 945 854 1015 786 q 780 958 875 922 q 572 994 685 994 q 364 958 460 994 q 197 854 268 922 q 88 692 126 786 q 49 486 49 599 m 342 1281 q 369 1178 342 1224 q 448 1105 396 1132 q 572 1078 500 1078 q 696 1105 646 1078 q 772 1178 746 1132 q 799 1281 799 1224 l 663 1281 q 651 1240 663 1258 q 619 1210 639 1221 q 572 1199 599 1199 q 524 1210 544 1199 q 492 1240 503 1221 q 482 1281 482 1258 l 342 1281 z "},"Ő":{"ha":1140,"x_min":49,"x_max":1096,"o":"m 442 1079 l 642 1333 l 471 1375 l 313 1114 l 442 1079 m 700 1079 l 901 1333 l 729 1375 l 572 1114 l 700 1079 m 296 486 q 315 604 296 551 q 372 696 335 657 q 459 757 408 735 q 572 779 510 779 q 685 757 635 779 q 772 696 736 735 q 826 603 808 657 q 844 486 844 550 q 825 369 844 422 q 769 276 806 315 q 683 215 733 238 q 572 193 633 193 q 459 215 510 193 q 372 276 408 238 q 315 369 335 315 q 296 486 296 424 m 49 486 q 86 279 49 374 q 194 115 124 185 q 361 8 265 46 q 572 -31 457 -31 q 781 8 686 -31 q 947 115 876 46 q 1057 279 1018 185 q 1096 486 1096 374 q 1056 692 1096 599 q 945 854 1015 786 q 780 958 875 922 q 572 994 685 994 q 364 958 460 994 q 197 854 268 922 q 88 692 126 786 q 49 486 49 599 z "},"P":{"ha":865,"x_min":104,"x_max":818,"o":"m 104 972 l 104 0 l 338 0 l 338 972 l 104 972 m 250 779 l 440 779 q 522 765 488 779 q 574 722 557 750 q 592 654 592 694 q 574 586 592 614 q 522 544 557 558 q 440 531 488 531 l 250 531 l 250 335 l 440 335 q 649 374 565 335 q 776 484 733 413 q 818 654 818 556 q 776 824 818 753 q 649 934 733 896 q 440 972 565 972 l 250 972 l 250 779 z "},"Q":{"ha":1199,"x_min":49,"x_max":1208,"o":"m 296 486 q 316 603 296 550 q 374 696 336 657 q 462 757 411 735 q 575 779 513 779 q 700 753 644 779 q 793 684 756 728 q 851 583 831 640 q 871 460 871 525 q 851 343 871 396 q 794 253 832 290 q 706 197 757 217 q 592 176 654 176 q 476 198 529 176 q 381 260 422 219 q 318 358 340 301 q 296 486 296 415 m 49 486 q 88 279 49 374 q 198 115 126 185 q 365 8 269 46 q 575 -31 461 -31 q 785 8 690 -31 q 949 115 881 46 q 1057 279 1018 185 q 1096 486 1096 374 q 1057 692 1096 599 q 949 853 1018 785 q 784 958 879 922 q 575 994 689 994 q 369 958 464 994 q 201 854 274 922 q 88 692 128 786 q 49 486 49 599 m 494 417 l 956 -17 l 1208 -17 l 739 417 l 494 417 z "},"R":{"ha":899,"x_min":104,"x_max":894,"o":"m 346 440 l 618 0 l 894 0 l 590 440 l 346 440 m 104 972 l 104 0 l 338 0 l 338 972 l 104 972 m 250 772 l 440 772 q 522 757 488 772 q 574 714 557 742 q 592 646 592 686 q 574 577 592 606 q 522 534 557 549 q 440 519 488 519 l 250 519 l 250 335 l 457 335 q 666 376 582 335 q 793 489 750 417 q 836 654 836 561 q 793 820 836 749 q 666 932 750 892 q 457 972 582 972 l 250 972 l 250 772 z "},"Ŕ":{"ha":899,"x_min":104,"x_max":894,"o":"m 346 440 l 618 0 l 894 0 l 590 440 l 346 440 m 104 972 l 104 0 l 338 0 l 338 972 l 104 972 m 250 772 l 440 772 q 522 757 488 772 q 574 714 557 742 q 592 646 592 686 q 574 577 592 606 q 522 534 557 549 q 440 519 488 519 l 250 519 l 250 335 l 457 335 q 666 376 582 335 q 793 489 750 417 q 836 654 836 561 q 793 820 836 749 q 666 932 750 892 q 457 972 582 972 l 250 972 l 250 772 m 651 1286 l 493 1360 l 285 1138 l 401 1078 l 651 1286 z "},"Ŗ":{"ha":899,"x_min":104,"x_max":894,"o":"m 346 440 l 618 0 l 894 0 l 590 440 l 346 440 m 104 972 l 104 0 l 338 0 l 338 972 l 104 972 m 250 772 l 440 772 q 522 757 488 772 q 574 714 557 742 q 592 646 592 686 q 574 577 592 606 q 522 534 557 549 q 440 519 488 519 l 250 519 l 250 335 l 457 335 q 666 376 582 335 q 793 489 750 417 q 836 654 836 561 q 793 820 836 749 q 666 932 750 892 q 457 972 582 972 l 250 972 l 250 772 m 456 -83 l 333 -443 l 490 -475 l 664 -128 l 456 -83 z "},"Ř":{"ha":899,"x_min":104,"x_max":894,"o":"m 346 440 l 618 0 l 894 0 l 590 440 l 346 440 m 104 972 l 104 0 l 338 0 l 338 972 l 104 972 m 250 772 l 440 772 q 522 757 488 772 q 574 714 557 742 q 592 646 592 686 q 574 577 592 606 q 522 534 557 549 q 440 519 488 519 l 250 519 l 250 335 l 457 335 q 666 376 582 335 q 793 489 750 417 q 836 654 836 561 q 793 820 836 749 q 666 932 750 892 q 457 972 582 972 l 250 972 l 250 772 m 436 1253 l 308 1374 l 161 1272 l 436 1078 l 710 1272 l 561 1374 l 436 1253 z "},"Ȓ":{"ha":899,"x_min":104,"x_max":894,"o":"m 346 440 l 618 0 l 894 0 l 590 440 l 346 440 m 104 972 l 104 0 l 338 0 l 338 972 l 104 972 m 250 772 l 440 772 q 522 757 488 772 q 574 714 557 742 q 592 646 592 686 q 574 577 592 606 q 522 534 557 549 q 440 519 488 519 l 250 519 l 250 335 l 457 335 q 666 376 582 335 q 793 489 750 417 q 836 654 836 561 q 793 820 836 749 q 666 932 750 892 q 457 972 582 972 l 250 972 l 250 772 m 228 1078 q 253 1181 228 1135 q 331 1253 279 1226 q 454 1281 382 1281 q 578 1253 528 1281 q 656 1181 629 1226 q 683 1078 683 1135 l 544 1078 q 534 1122 544 1103 q 503 1151 524 1140 q 454 1161 483 1161 q 407 1151 428 1161 q 375 1122 386 1140 q 364 1078 364 1103 l 228 1078 z "},"S":{"ha":869,"x_min":47,"x_max":817,"o":"m 211 342 l 47 225 q 139 95 79 153 q 280 3 199 38 q 456 -31 361 -31 q 589 -10 525 -31 q 705 49 653 10 q 787 144 757 88 q 817 276 817 201 q 797 385 817 338 q 742 469 776 433 q 663 531 708 506 q 567 576 618 557 q 476 609 517 593 q 409 641 436 625 q 367 677 382 657 q 353 724 353 697 q 364 763 353 746 q 398 788 375 779 q 456 797 421 797 q 524 784 492 797 q 585 744 557 771 q 632 683 613 718 l 811 783 q 739 882 786 833 q 621 963 692 931 q 451 994 550 994 q 281 961 358 994 q 158 866 203 928 q 113 717 113 804 q 140 595 113 644 q 207 510 167 546 q 292 453 247 475 q 372 417 336 431 q 485 369 443 389 q 547 325 528 349 q 565 265 565 301 q 551 215 565 236 q 510 181 536 193 q 449 169 483 169 q 356 190 400 169 q 276 250 313 211 q 211 342 240 289 z "},"Ś":{"ha":869,"x_min":49,"x_max":817,"o":"m 213 349 l 49 231 q 139 92 79 150 q 276 2 199 35 q 443 -31 354 -31 q 640 3 557 -31 q 770 105 724 38 q 817 272 817 172 q 797 383 817 335 q 742 468 776 432 q 662 530 707 504 q 567 574 617 556 q 485 604 525 590 q 413 634 444 618 q 364 669 382 650 q 346 711 346 688 q 360 756 346 736 q 398 785 374 775 q 456 796 422 796 q 524 782 493 796 q 579 741 554 768 q 625 679 604 714 l 801 781 q 738 880 782 831 q 622 962 694 929 q 446 994 550 994 q 268 960 346 994 q 147 865 190 926 q 103 719 103 803 q 130 599 103 650 q 199 513 157 547 q 285 456 240 479 q 367 419 331 433 q 467 378 422 396 q 539 336 513 361 q 565 268 565 311 q 552 216 565 238 q 513 185 539 194 q 449 175 488 175 q 378 185 410 175 q 317 217 346 196 q 263 272 289 239 q 213 349 238 306 m 696 1286 l 536 1360 l 328 1138 l 446 1078 l 696 1286 z "},"Ŝ":{"ha":869,"x_min":49,"x_max":817,"o":"m 213 349 l 49 231 q 139 92 79 150 q 276 2 199 35 q 443 -31 354 -31 q 640 3 557 -31 q 770 105 724 38 q 817 272 817 172 q 797 383 817 335 q 742 468 776 432 q 662 530 707 504 q 567 574 617 556 q 485 604 525 590 q 413 634 444 618 q 364 669 382 650 q 346 711 346 688 q 360 756 346 736 q 398 785 374 775 q 456 796 422 796 q 524 782 493 796 q 579 741 554 768 q 625 679 604 714 l 801 781 q 738 880 782 831 q 622 962 694 929 q 446 994 550 994 q 268 960 346 994 q 147 865 190 926 q 103 719 103 803 q 130 599 103 650 q 199 513 157 547 q 285 456 240 479 q 367 419 331 433 q 467 378 422 396 q 539 336 513 361 q 565 268 565 311 q 552 216 565 238 q 513 185 539 194 q 449 175 488 175 q 378 185 410 175 q 317 217 346 196 q 263 272 289 239 q 213 349 238 306 m 446 1197 l 574 1078 l 721 1179 l 446 1374 l 172 1179 l 319 1078 l 446 1197 z "},"Ş":{"ha":869,"x_min":49,"x_max":817,"o":"m 213 349 l 49 231 q 139 92 79 150 q 276 2 199 35 q 443 -31 354 -31 q 638 3 554 -31 q 769 105 722 38 q 817 272 817 172 q 797 383 817 335 q 742 468 776 432 q 662 530 707 504 q 567 574 617 556 q 485 604 525 590 q 413 634 444 618 q 364 669 382 650 q 346 711 346 688 q 358 756 346 736 q 394 785 369 775 q 451 796 418 796 q 520 782 489 796 q 578 741 551 768 q 625 679 604 714 l 801 781 q 737 882 781 833 q 622 963 693 931 q 446 994 550 994 q 265 960 342 994 q 145 864 188 925 q 103 719 103 803 q 130 595 103 646 q 199 510 157 544 q 285 455 240 476 q 367 419 331 433 q 467 378 422 396 q 539 336 513 361 q 565 268 565 311 q 552 216 565 238 q 513 185 539 194 q 449 175 488 175 q 378 185 410 175 q 317 217 346 196 q 263 272 289 239 q 213 349 238 306 m 404 85 l 282 -186 q 353 -167 318 -171 q 397 -164 388 -164 q 438 -167 419 -164 q 469 -181 457 -171 q 482 -208 482 -190 q 472 -235 482 -225 q 446 -251 463 -246 q 406 -257 429 -257 q 354 -249 385 -257 q 297 -222 324 -240 l 233 -318 q 328 -360 282 -349 q 433 -372 375 -372 q 519 -354 478 -372 q 588 -303 561 -336 q 615 -221 615 -271 q 596 -144 615 -175 q 547 -100 576 -114 q 490 -86 517 -86 q 463 -87 475 -86 q 438 -90 450 -87 l 557 79 l 404 85 z "},"Š":{"ha":869,"x_min":49,"x_max":817,"o":"m 213 349 l 49 231 q 139 92 79 150 q 276 2 199 35 q 443 -31 354 -31 q 640 3 557 -31 q 770 105 724 38 q 817 272 817 172 q 797 383 817 335 q 742 468 776 432 q 662 530 707 504 q 567 574 617 556 q 485 604 525 590 q 413 634 444 618 q 364 669 382 650 q 346 711 346 688 q 360 756 346 736 q 398 785 374 775 q 456 796 422 796 q 524 782 493 796 q 579 741 554 768 q 625 679 604 714 l 801 781 q 738 880 782 831 q 622 962 694 929 q 446 994 550 994 q 268 960 346 994 q 147 865 190 926 q 103 719 103 803 q 130 599 103 650 q 199 513 157 547 q 285 456 240 479 q 367 419 331 433 q 467 378 422 396 q 539 336 513 361 q 565 268 565 311 q 552 216 565 238 q 513 185 539 194 q 449 175 488 175 q 378 185 410 175 q 317 217 346 196 q 263 272 289 239 q 213 349 238 306 m 446 1253 l 319 1374 l 172 1272 l 446 1078 l 721 1272 l 574 1374 l 446 1253 z "},"Ș":{"ha":869,"x_min":49,"x_max":817,"o":"m 213 349 l 49 231 q 139 92 79 150 q 276 2 199 35 q 443 -31 354 -31 q 640 3 557 -31 q 770 105 724 38 q 817 272 817 172 q 797 383 817 335 q 742 468 776 432 q 662 530 707 504 q 567 574 617 556 q 485 604 525 590 q 413 634 444 618 q 364 669 382 650 q 346 711 346 688 q 360 756 346 736 q 398 785 374 775 q 456 796 422 796 q 524 782 493 796 q 579 741 554 768 q 625 679 604 714 l 801 781 q 738 880 782 831 q 622 962 694 929 q 446 994 550 994 q 268 960 346 994 q 147 865 190 926 q 103 719 103 803 q 130 599 103 650 q 199 513 157 547 q 285 456 240 479 q 367 419 331 433 q 467 378 422 396 q 539 336 513 361 q 565 268 565 311 q 552 216 565 238 q 513 185 539 194 q 449 175 488 175 q 378 185 410 175 q 317 217 346 196 q 263 272 289 239 q 213 349 238 306 m 364 -97 l 242 -457 l 401 -489 l 575 -142 l 364 -97 z "},"T":{"ha":779,"x_min":7,"x_max":775,"o":"m 7 761 l 272 761 l 272 0 l 508 0 l 508 761 l 775 761 l 775 972 l 7 972 l 7 761 z "},"Ţ":{"ha":779,"x_min":7,"x_max":775,"o":"m 314 15 l 190 -257 q 263 -237 229 -242 q 306 -233 296 -233 q 347 -237 328 -233 q 378 -250 365 -240 q 390 -278 390 -260 q 381 -305 390 -294 q 356 -321 372 -315 q 315 -326 339 -326 q 263 -318 294 -326 q 207 -292 232 -310 l 142 -386 q 236 -431 189 -418 q 342 -443 283 -443 q 428 -425 386 -443 q 497 -374 469 -407 q 525 -289 525 -340 q 505 -213 525 -243 q 456 -169 485 -183 q 397 -154 426 -154 q 370 -155 383 -154 q 346 -158 357 -156 l 468 11 l 314 15 m 7 761 l 272 761 l 272 0 l 508 0 l 508 761 l 775 761 l 775 972 l 7 972 l 7 761 z "},"Ť":{"ha":779,"x_min":7,"x_max":775,"o":"m 7 761 l 272 761 l 272 0 l 508 0 l 508 761 l 775 761 l 775 972 l 7 972 l 7 761 m 390 1253 l 265 1374 l 115 1272 l 390 1078 l 665 1272 l 518 1374 l 390 1253 z "},"Ț":{"ha":779,"x_min":7,"x_max":775,"o":"m 7 761 l 272 761 l 272 0 l 508 0 l 508 761 l 775 761 l 775 972 l 7 972 l 7 761 m 346 -83 l 224 -443 l 383 -475 l 557 -128 l 346 -83 z "},"U":{"ha":974,"x_min":97,"x_max":878,"o":"m 97 972 l 97 319 q 126 160 97 228 q 209 48 156 93 q 333 -19 263 3 q 488 -40 404 -40 q 640 -19 568 -40 q 765 48 711 3 q 848 160 818 93 q 878 319 878 228 l 878 972 l 643 972 l 643 336 q 626 249 643 286 q 574 192 608 213 q 489 171 540 171 q 401 192 435 171 q 349 249 367 213 q 331 336 331 286 l 331 972 l 97 972 z "},"Ù":{"ha":974,"x_min":97,"x_max":878,"o":"m 97 972 l 97 319 q 126 160 97 228 q 209 48 156 93 q 333 -19 263 3 q 488 -40 404 -40 q 640 -19 568 -40 q 765 48 711 3 q 848 160 818 93 q 878 319 878 228 l 878 972 l 643 972 l 643 336 q 626 250 643 288 q 575 192 610 213 q 488 171 540 171 q 401 192 435 171 q 349 250 367 213 q 331 336 331 288 l 331 972 l 97 972 m 263 1286 l 513 1078 l 632 1138 l 424 1360 l 263 1286 z "},"Ú":{"ha":974,"x_min":97,"x_max":878,"o":"m 97 972 l 97 319 q 126 160 97 228 q 209 48 156 93 q 333 -19 263 3 q 488 -40 404 -40 q 640 -19 568 -40 q 765 48 711 3 q 848 160 818 93 q 878 319 878 228 l 878 972 l 643 972 l 643 336 q 626 250 643 288 q 575 192 610 213 q 488 171 540 171 q 401 192 435 171 q 349 250 367 213 q 331 336 331 288 l 331 972 l 97 972 m 711 1286 l 551 1360 l 343 1138 l 461 1078 l 711 1286 z "},"Û":{"ha":974,"x_min":97,"x_max":878,"o":"m 97 972 l 97 319 q 126 160 97 228 q 209 48 156 93 q 333 -19 263 3 q 488 -40 404 -40 q 640 -19 568 -40 q 765 48 711 3 q 848 160 818 93 q 878 319 878 228 l 878 972 l 643 972 l 643 336 q 626 249 643 286 q 574 192 608 213 q 489 171 540 171 q 401 192 435 171 q 349 249 367 213 q 331 336 331 286 l 331 972 l 97 972 m 488 1197 l 614 1078 l 763 1179 l 488 1374 l 213 1179 l 360 1078 l 488 1197 z "},"Ü":{"ha":974,"x_min":97,"x_max":878,"o":"m 97 972 l 97 319 q 126 160 97 228 q 209 48 156 93 q 333 -19 263 3 q 488 -40 404 -40 q 640 -19 568 -40 q 765 48 711 3 q 848 160 818 93 q 878 319 878 228 l 878 972 l 643 972 l 643 336 q 626 249 643 286 q 574 192 608 213 q 489 171 540 171 q 401 192 435 171 q 349 249 367 213 q 331 336 331 286 l 331 972 l 97 972 m 561 1193 q 596 1110 561 1143 q 682 1078 631 1078 q 769 1110 733 1078 q 804 1192 804 1143 q 769 1274 804 1243 q 682 1306 733 1306 q 596 1274 631 1306 q 561 1193 561 1243 m 169 1193 q 205 1110 169 1143 q 292 1078 240 1078 q 378 1110 343 1078 q 414 1192 414 1143 q 378 1274 414 1243 q 292 1306 343 1306 q 205 1274 240 1306 q 169 1193 169 1243 z "},"Ũ":{"ha":974,"x_min":97,"x_max":878,"o":"m 97 972 l 97 319 q 126 160 97 228 q 209 48 156 93 q 333 -19 263 3 q 488 -40 404 -40 q 640 -19 568 -40 q 765 48 711 3 q 848 160 818 93 q 878 319 878 228 l 878 972 l 643 972 l 643 336 q 626 251 643 289 q 575 192 610 213 q 488 171 540 171 q 401 192 435 171 q 349 251 367 213 q 331 336 331 289 l 331 972 l 97 972 m 214 1169 l 315 1083 q 321 1111 315 1094 q 340 1141 326 1128 q 379 1154 353 1154 q 444 1136 414 1154 q 506 1099 475 1118 q 574 1081 536 1081 q 656 1099 618 1081 q 721 1147 693 1118 q 760 1200 749 1175 l 661 1303 q 618 1249 640 1269 q 569 1228 596 1228 q 519 1239 540 1228 q 480 1265 499 1250 q 438 1290 461 1279 q 381 1300 415 1300 q 302 1281 336 1300 q 244 1233 268 1263 q 214 1169 221 1204 z "},"Ū":{"ha":974,"x_min":97,"x_max":878,"o":"m 97 972 l 97 319 q 126 160 97 228 q 209 48 156 93 q 333 -19 263 3 q 488 -40 404 -40 q 640 -19 568 -40 q 765 48 711 3 q 848 160 818 93 q 878 319 878 228 l 878 972 l 643 972 l 643 336 q 626 249 643 286 q 574 192 608 213 q 489 171 540 171 q 401 192 435 171 q 349 249 367 213 q 331 336 331 286 l 331 972 l 97 972 m 229 1078 l 746 1078 l 746 1261 l 229 1261 l 229 1078 z "},"Ŭ":{"ha":974,"x_min":97,"x_max":878,"o":"m 97 972 l 97 319 q 126 160 97 228 q 209 48 156 93 q 333 -19 263 3 q 488 -40 404 -40 q 640 -19 568 -40 q 765 48 711 3 q 848 160 818 93 q 878 319 878 228 l 878 972 l 643 972 l 643 336 q 626 250 643 288 q 575 192 610 213 q 488 171 540 171 q 401 192 435 171 q 349 250 367 213 q 331 336 331 288 l 331 972 l 97 972 m 258 1281 q 285 1178 258 1224 q 363 1105 311 1132 q 488 1078 415 1078 q 611 1105 561 1078 q 688 1178 661 1132 q 715 1281 715 1224 l 579 1281 q 567 1240 579 1258 q 534 1210 554 1221 q 488 1199 514 1199 q 439 1210 460 1199 q 407 1240 418 1221 q 396 1281 396 1258 l 258 1281 z "},"Ů":{"ha":974,"x_min":97,"x_max":878,"o":"m 97 972 l 97 319 q 126 160 97 228 q 209 48 156 93 q 333 -19 263 3 q 488 -40 404 -40 q 640 -19 568 -40 q 765 48 711 3 q 848 160 818 93 q 878 319 878 228 l 878 972 l 643 972 l 643 336 q 626 249 643 286 q 574 192 608 213 q 489 171 540 171 q 401 192 435 171 q 349 249 367 213 q 331 336 331 286 l 331 972 l 97 972 m 313 1240 q 335 1155 313 1192 q 398 1098 358 1118 q 488 1078 438 1078 q 575 1098 536 1078 q 638 1155 614 1118 q 661 1239 661 1192 q 638 1324 661 1288 q 575 1381 614 1360 q 488 1401 536 1401 q 398 1381 438 1401 q 335 1324 358 1360 q 313 1240 313 1288 m 422 1239 q 431 1274 422 1260 q 456 1297 440 1289 q 488 1306 471 1306 q 532 1288 514 1306 q 550 1239 550 1269 q 541 1203 550 1218 q 519 1181 532 1189 q 488 1172 506 1172 q 442 1190 461 1172 q 422 1239 422 1207 z "},"Ű":{"ha":974,"x_min":97,"x_max":878,"o":"m 358 1079 l 558 1333 l 388 1375 l 229 1114 l 358 1079 m 617 1079 l 818 1333 l 646 1375 l 489 1114 l 617 1079 m 97 972 l 97 319 q 126 160 97 228 q 209 48 156 93 q 333 -19 263 3 q 488 -40 404 -40 q 640 -19 568 -40 q 765 48 711 3 q 848 160 818 93 q 878 319 878 228 l 878 972 l 643 972 l 643 336 q 626 249 643 286 q 574 192 608 213 q 489 171 540 171 q 401 192 435 171 q 349 249 367 213 q 331 336 331 286 l 331 972 l 97 972 z "},"Ų":{"ha":974,"x_min":97,"x_max":878,"o":"m 551 -187 q 520 -208 538 -201 q 482 -215 503 -215 q 444 -203 457 -215 q 432 -164 432 -190 q 445 -119 432 -142 q 483 -75 458 -97 q 544 -33 508 -53 l 488 1 q 395 -53 439 -24 q 324 -118 351 -82 q 297 -200 297 -154 q 318 -276 297 -244 q 376 -323 339 -307 q 457 -339 413 -339 q 549 -322 515 -339 q 597 -283 582 -304 l 551 -187 m 97 972 l 97 319 q 126 160 97 228 q 209 48 156 93 q 333 -19 263 3 q 488 -40 404 -40 q 640 -19 568 -40 q 765 48 711 3 q 848 160 818 93 q 878 319 878 228 l 878 972 l 643 972 l 643 336 q 626 249 643 286 q 574 192 608 213 q 489 171 540 171 q 401 192 435 171 q 349 249 367 213 q 331 336 331 286 l 331 972 l 97 972 z "},"V":{"ha":1021,"x_min":0,"x_max":1022,"o":"m 513 393 l 275 972 l 0 972 l 513 -61 l 1022 972 l 747 972 l 513 393 z "},"W":{"ha":1479,"x_min":7,"x_max":1474,"o":"m 1006 418 l 740 1021 l 475 418 l 285 972 l 7 972 l 426 -56 l 740 528 l 1053 -56 l 1474 972 l 1194 972 l 1006 418 z "},"Ŵ":{"ha":1479,"x_min":7,"x_max":1474,"o":"m 1013 396 l 740 1021 l 468 396 l 285 972 l 7 972 l 426 -56 l 740 528 l 1053 -56 l 1474 972 l 1194 972 l 1013 396 m 740 1224 l 867 1104 l 1015 1203 l 740 1397 l 465 1203 l 613 1104 l 740 1224 z "},"Ẁ":{"ha":1479,"x_min":7,"x_max":1474,"o":"m 740 1104 l 860 1163 l 651 1385 l 490 1313 l 740 1104 m 1006 418 l 740 1021 l 475 418 l 285 972 l 7 972 l 426 -56 l 740 528 l 1053 -56 l 1474 972 l 1194 972 l 1006 418 z "},"Ẃ":{"ha":1479,"x_min":7,"x_max":1474,"o":"m 740 1106 l 990 1314 l 829 1385 l 621 1163 l 740 1106 m 1006 418 l 740 1021 l 475 418 l 285 972 l 7 972 l 426 -56 l 740 528 l 1053 -56 l 1474 972 l 1194 972 l 1006 418 z "},"Ẅ":{"ha":1479,"x_min":7,"x_max":1474,"o":"m 786 1218 q 822 1138 786 1169 q 910 1106 858 1106 q 997 1138 961 1106 q 1033 1218 1033 1169 q 997 1301 1033 1268 q 910 1333 961 1333 q 822 1301 858 1333 q 786 1218 786 1268 m 449 1218 q 484 1138 449 1169 q 571 1106 519 1106 q 658 1138 622 1106 q 693 1218 693 1169 q 658 1301 693 1268 q 571 1333 622 1333 q 484 1301 519 1333 q 449 1218 449 1268 m 1006 418 l 740 1021 l 475 418 l 285 972 l 7 972 l 426 -56 l 740 528 l 1053 -56 l 1474 972 l 1194 972 l 1006 418 z "},"Ẇ":{"ha":1479,"x_min":7,"x_max":1474,"o":"m 618 1218 q 653 1136 618 1168 q 739 1104 688 1104 q 826 1136 790 1104 q 863 1218 863 1168 q 826 1300 863 1268 q 739 1332 790 1332 q 653 1300 688 1332 q 618 1218 618 1268 m 1006 418 l 740 1021 l 475 418 l 285 972 l 7 972 l 426 -56 l 740 528 l 1053 -56 l 1474 972 l 1194 972 l 1006 418 z "},"Ẉ":{"ha":1479,"x_min":7,"x_max":1474,"o":"m 618 -254 q 653 -336 618 -304 q 739 -368 688 -368 q 826 -336 790 -368 q 863 -254 863 -304 q 826 -172 863 -204 q 739 -140 790 -140 q 653 -172 688 -140 q 618 -254 618 -204 m 1006 418 l 740 1021 l 475 418 l 285 972 l 7 972 l 426 -56 l 740 528 l 1053 -56 l 1474 972 l 1194 972 l 1006 418 z "},"X":{"ha":953,"x_min":7,"x_max":947,"o":"m 638 972 l 482 690 l 331 972 l 42 972 l 339 497 l 7 0 l 296 0 l 479 322 l 657 0 l 947 0 l 622 497 l 928 972 l 638 972 z "},"Y":{"ha":917,"x_min":0,"x_max":921,"o":"m 649 972 l 458 607 l 269 972 l 0 972 l 339 394 l 339 0 l 579 0 l 579 396 l 921 972 l 649 972 z "},"Ý":{"ha":917,"x_min":0,"x_max":921,"o":"m 682 1286 l 522 1360 l 314 1138 l 432 1078 l 682 1286 m 649 972 l 458 607 l 269 972 l 0 972 l 339 394 l 339 0 l 579 0 l 579 396 l 921 972 l 649 972 z "},"Ŷ":{"ha":917,"x_min":0,"x_max":921,"o":"m 649 972 l 458 607 l 269 972 l 0 972 l 339 394 l 339 0 l 579 0 l 579 396 l 921 972 l 649 972 m 458 1197 l 585 1078 l 733 1179 l 458 1374 l 185 1179 l 333 1078 l 458 1197 z "},"Ÿ":{"ha":917,"x_min":0,"x_max":921,"o":"m 142 1207 q 176 1125 142 1157 q 263 1093 211 1093 q 350 1125 314 1093 q 386 1207 386 1157 q 350 1289 386 1257 q 263 1321 314 1321 q 176 1288 211 1321 q 142 1207 142 1256 m 532 1207 q 568 1125 532 1157 q 654 1093 604 1093 q 742 1125 707 1093 q 776 1207 776 1157 q 742 1289 776 1257 q 654 1321 707 1321 q 568 1288 604 1321 q 532 1207 532 1256 m 649 972 l 458 607 l 269 972 l 0 972 l 339 394 l 339 0 l 579 0 l 579 396 l 921 972 l 649 972 z "},"Ỳ":{"ha":917,"x_min":0,"x_max":921,"o":"m 458 1081 l 578 1139 l 369 1361 l 208 1289 l 458 1081 m 649 972 l 458 607 l 269 972 l 0 972 l 339 394 l 339 0 l 579 0 l 579 396 l 921 972 l 649 972 z "},"Z":{"ha":861,"x_min":14,"x_max":842,"o":"m 79 761 l 465 761 l 14 0 l 793 0 l 793 203 l 383 203 l 842 972 l 79 972 l 79 761 z "},"Ź":{"ha":861,"x_min":14,"x_max":842,"o":"m 79 761 l 465 761 l 14 0 l 793 0 l 793 203 l 383 203 l 842 972 l 79 972 l 79 761 m 700 1286 l 539 1360 l 331 1138 l 450 1078 l 700 1286 z "},"Ż":{"ha":861,"x_min":14,"x_max":842,"o":"m 79 761 l 465 761 l 14 0 l 793 0 l 793 203 l 383 203 l 842 972 l 79 972 l 79 761 m 338 1192 q 373 1110 338 1143 q 460 1078 408 1078 q 547 1110 511 1078 q 583 1192 583 1143 q 547 1274 583 1243 q 460 1306 511 1306 q 373 1274 408 1306 q 338 1192 338 1243 z "},"Ž":{"ha":861,"x_min":14,"x_max":842,"o":"m 79 761 l 465 761 l 14 0 l 793 0 l 793 203 l 383 203 l 842 972 l 79 972 l 79 761 m 460 1253 l 333 1374 l 186 1272 l 460 1078 l 735 1272 l 586 1374 l 460 1253 z "},"Æ":{"ha":1507,"x_min":19,"x_max":1410,"o":"m 375 210 l 800 210 l 800 426 l 383 426 l 375 210 m 608 972 l 19 0 l 317 0 l 836 917 l 608 972 m 876 0 l 1410 0 l 1410 193 l 876 193 l 876 0 m 888 779 l 1410 779 l 1410 972 l 608 972 l 888 779 m 876 415 l 1382 415 l 1382 607 l 876 607 l 876 415 m 763 972 l 763 0 l 1015 0 l 1015 972 l 763 972 z "},"Ð":{"ha":1018,"x_min":8,"x_max":971,"o":"m 8 419 l 494 419 l 494 558 l 8 558 l 8 419 m 104 972 l 104 0 l 347 0 l 347 972 l 104 972 m 450 0 q 726 59 610 0 q 907 227 843 118 q 971 486 971 336 q 907 745 971 636 q 726 913 843 854 q 450 972 610 972 l 258 972 l 258 763 l 443 763 q 550 749 499 763 q 641 703 601 735 q 704 617 681 671 q 728 486 728 564 q 704 355 728 408 q 641 269 681 301 q 550 224 601 238 q 443 210 499 210 l 258 210 l 258 0 l 450 0 z "},"Ø":{"ha":1097,"x_min":49,"x_max":1096,"o":"m 296 486 q 315 607 296 553 q 372 699 335 661 q 459 758 408 738 q 571 779 510 779 q 683 758 633 779 q 769 699 733 738 q 825 607 806 661 q 844 486 844 553 q 825 365 844 419 q 769 273 806 311 q 683 214 733 235 q 572 193 633 193 q 459 214 510 193 q 372 273 408 235 q 315 365 335 311 q 296 486 296 419 m 49 486 q 88 279 49 374 q 197 115 126 185 q 363 8 267 46 q 572 -31 458 -31 q 780 8 685 -31 q 945 115 875 46 q 1056 279 1015 185 q 1096 486 1096 374 q 1056 692 1096 599 q 945 854 1015 786 q 780 958 875 922 q 572 994 685 994 q 363 958 458 994 q 197 854 267 922 q 88 692 126 786 q 49 486 49 599 m 968 1050 l 68 -6 l 167 -76 l 1068 979 l 968 1050 z "},"Þ":{"ha":850,"x_min":111,"x_max":810,"o":"m 111 972 l 111 0 l 317 0 l 317 972 l 111 972 m 242 619 l 432 619 q 524 606 486 619 q 581 565 561 593 q 600 490 600 536 q 581 416 600 444 q 524 375 561 388 q 432 363 486 363 l 242 363 l 242 178 l 432 178 q 642 215 557 178 q 768 322 726 251 q 810 490 810 392 q 768 659 810 589 q 642 767 726 729 q 432 804 557 804 l 242 804 l 242 619 z "},"Đ":{"ha":1018,"x_min":7,"x_max":971,"o":"m 7 414 l 485 414 l 485 553 l 7 553 l 7 414 m 104 972 l 104 0 l 347 0 l 347 972 l 104 972 m 450 0 q 726 59 610 0 q 907 227 843 118 q 971 486 971 336 q 907 745 971 636 q 726 913 843 854 q 450 972 610 972 l 258 972 l 258 763 l 443 763 q 550 749 499 763 q 641 703 601 735 q 704 617 681 671 q 728 486 728 564 q 704 355 728 408 q 641 269 681 301 q 550 224 601 238 q 443 210 499 210 l 258 210 l 258 0 l 450 0 z "},"Ħ":{"ha":1092,"x_min":7,"x_max":1086,"o":"m 169 407 l 904 407 l 904 618 l 169 618 l 169 407 m 757 972 l 757 0 l 990 0 l 990 972 l 757 972 m 104 972 l 104 0 l 338 0 l 338 972 l 104 972 m 7 746 l 1086 746 l 1086 893 l 7 893 l 7 746 z "},"Ĳ":{"ha":867,"x_min":104,"x_max":765,"o":"m 308 -87 l 181 -253 q 249 -289 208 -271 q 340 -319 290 -307 q 444 -332 390 -332 q 568 -318 511 -332 q 669 -274 625 -304 q 740 -194 714 -243 q 765 -75 765 -146 l 765 972 l 513 972 l 513 -22 q 483 -109 513 -85 q 421 -133 453 -133 q 360 -119 390 -133 q 308 -87 329 -106 m 104 972 l 104 0 l 342 0 l 342 972 l 104 972 z "},"Ŀ":{"ha":733,"x_min":104,"x_max":729,"o":"m 104 972 l 104 0 l 729 0 l 729 203 l 338 203 l 338 972 l 104 972 m 450 600 q 467 534 450 564 q 513 487 483 504 q 581 469 543 469 q 649 487 619 469 q 694 534 678 504 q 711 600 711 564 q 694 663 711 635 q 649 709 678 692 q 582 726 619 726 q 514 709 543 726 q 467 663 485 692 q 450 600 450 635 z "},"Ł":{"ha":742,"x_min":-47,"x_max":729,"o":"m 7 429 l 513 769 l 460 872 l -47 531 l 7 429 m 104 972 l 104 0 l 729 0 l 729 203 l 338 203 l 338 972 l 104 972 z "},"Ŋ":{"ha":1101,"x_min":104,"x_max":1001,"o":"m 757 -299 q 888 -271 833 -299 q 972 -191 942 -243 q 1001 -68 1001 -139 l 1001 972 l 774 972 l 774 428 l 104 1021 l 104 0 l 329 0 l 329 544 l 797 121 l 797 -15 q 790 -67 797 -46 q 767 -99 782 -89 q 731 -110 753 -110 q 697 -101 713 -110 q 665 -74 682 -92 l 581 -226 q 665 -282 624 -265 q 757 -299 706 -299 z "},"Œ":{"ha":1368,"x_min":49,"x_max":1319,"o":"m 781 415 l 1290 415 l 1290 607 l 781 607 l 781 415 m 672 931 l 672 42 l 899 42 l 899 931 l 672 931 m 1319 193 l 794 193 l 761 207 l 585 207 q 458 225 513 207 q 365 278 403 243 q 310 365 328 313 q 292 486 292 418 q 310 608 292 556 q 365 694 328 660 q 458 747 403 729 q 585 765 513 765 l 765 765 l 789 779 l 1318 779 l 1318 972 l 542 972 q 346 938 436 972 q 188 838 256 903 q 85 684 121 774 q 49 486 49 594 q 85 288 49 378 q 189 134 122 199 q 346 35 256 69 q 542 0 436 0 l 1319 0 l 1319 193 z "},"Ŧ":{"ha":779,"x_min":7,"x_max":775,"o":"m 130 418 l 596 418 l 596 601 l 130 601 l 130 418 m 7 761 l 272 761 l 272 0 l 508 0 l 508 761 l 775 761 l 775 972 l 7 972 l 7 761 z "},"ẞ":{"ha":1132,"x_min":111,"x_max":1074,"o":"m 751 -17 q 634 -9 692 -17 q 523 13 576 -1 q 424 47 469 26 l 478 239 q 591 196 538 211 q 692 181 644 181 q 759 189 729 181 q 807 216 789 197 q 825 265 825 235 q 805 324 825 301 q 755 362 785 346 q 694 394 725 378 q 642 435 663 411 q 622 497 622 458 q 634 549 622 528 q 664 585 646 569 q 699 616 682 601 q 728 647 717 631 q 740 688 740 664 q 723 733 740 713 q 674 767 706 754 q 593 781 642 781 q 461 747 515 781 q 380 647 407 713 q 353 486 353 581 l 354 -3 l 111 -3 l 111 508 q 139 709 111 619 q 226 863 167 799 q 377 962 285 928 q 599 996 469 996 q 818 962 729 996 q 951 871 907 928 q 996 743 996 814 q 984 669 996 701 q 956 613 972 638 q 922 567 939 588 q 894 531 906 547 q 882 501 882 515 q 901 466 882 481 q 949 436 921 451 q 1006 397 978 421 q 1054 337 1035 374 q 1074 242 1074 300 q 1035 103 1074 161 q 924 15 996 46 q 751 -17 853 -17 z "},"Δ":{"ha":833,"x_min":25,"x_max":807,"o":"m 25 0 l 417 1111 l 807 0 l 25 0 m 260 160 l 574 160 l 417 678 l 260 160 z "},"Ω":{"ha":833,"x_min":92,"x_max":742,"o":"m 92 0 l 92 181 l 214 164 q 148 253 174 210 q 110 344 122 297 q 97 440 97 390 q 139 612 97 536 q 253 732 181 688 q 417 776 325 776 q 581 732 508 776 q 694 612 653 688 q 736 440 736 536 q 724 344 736 390 q 685 253 711 297 q 619 164 660 210 l 742 181 l 742 0 l 451 0 l 451 144 q 497 192 476 165 q 531 249 517 218 q 553 313 546 281 q 561 378 561 346 q 543 469 561 431 q 493 530 525 508 q 417 551 461 551 q 341 530 374 551 q 291 469 308 508 q 274 378 274 431 q 287 292 274 336 q 324 210 300 249 q 383 144 349 172 l 383 0 l 92 0 z "},"А":{"ha":1021,"x_min":0,"x_max":1022,"o":"m 257 188 l 771 188 l 754 367 l 272 367 l 257 188 m 513 614 l 649 301 l 639 239 l 754 0 l 1022 0 l 513 1033 l 0 0 l 265 0 l 385 247 l 375 301 l 513 614 z "},"Б":{"ha":935,"x_min":111,"x_max":879,"o":"m 176 415 l 499 415 q 576 403 544 415 q 624 367 607 390 q 640 307 640 343 q 624 242 640 268 q 576 205 607 217 q 499 193 544 193 l 176 193 l 176 0 l 549 0 q 717 39 643 0 q 835 147 792 78 q 879 304 879 215 q 835 462 879 394 q 717 568 792 529 q 549 607 643 607 l 176 607 l 176 415 m 111 972 l 111 0 l 350 0 l 350 779 l 806 779 l 806 972 l 111 972 z "},"В":{"ha":924,"x_min":104,"x_max":861,"o":"m 278 483 l 461 483 q 639 511 561 483 q 761 593 717 539 q 806 725 806 647 q 780 833 806 788 q 709 910 754 879 q 600 957 664 942 q 461 972 536 972 l 104 972 l 104 0 l 483 0 q 683 28 599 0 q 815 116 768 57 q 861 272 861 175 q 829 400 861 347 q 743 486 797 453 q 622 535 689 519 q 483 550 554 550 l 278 550 l 278 422 l 457 422 q 520 416 490 422 q 572 396 550 410 q 606 360 593 382 q 618 307 618 339 q 597 233 618 261 q 539 194 575 206 q 457 182 503 182 l 338 182 l 338 790 l 435 790 q 529 765 496 790 q 563 690 563 739 q 547 635 563 658 q 503 599 532 611 q 435 586 475 586 l 278 586 l 278 483 z "},"Г":{"ha":703,"x_min":111,"x_max":690,"o":"m 111 972 l 111 0 l 347 0 l 347 761 l 690 761 l 690 972 l 111 972 z "},"Ѓ":{"ha":703,"x_min":111,"x_max":690,"o":"m 111 972 l 111 0 l 347 0 l 347 761 l 690 761 l 690 972 l 111 972 m 650 1286 l 492 1360 l 283 1138 l 400 1078 l 650 1286 z "},"Д":{"ha":1225,"x_min":56,"x_max":1165,"o":"m 610 597 l 813 42 l 1083 42 l 610 1021 l 136 42 l 408 42 l 610 597 m 931 0 l 931 -153 l 1165 -153 l 1165 203 l 56 203 l 56 -153 l 290 -153 l 290 0 l 931 0 z "},"Е":{"ha":838,"x_min":104,"x_max":749,"o":"m 258 0 l 749 0 l 749 193 l 258 193 l 258 0 m 258 779 l 749 779 l 749 972 l 258 972 l 258 779 m 258 415 l 721 415 l 721 607 l 258 607 l 258 415 m 104 972 l 104 0 l 329 0 l 329 972 l 104 972 z "},"Ѐ":{"ha":838,"x_min":104,"x_max":749,"o":"m 258 0 l 749 0 l 749 193 l 258 193 l 258 0 m 258 779 l 749 779 l 749 972 l 258 972 l 258 779 m 258 415 l 721 415 l 721 607 l 258 607 l 258 415 m 104 972 l 104 0 l 329 0 l 329 972 l 104 972 m 176 1286 l 426 1078 l 546 1138 l 338 1360 l 176 1286 z "},"Ё":{"ha":838,"x_min":104,"x_max":749,"o":"m 258 0 l 749 0 l 749 193 l 258 193 l 258 0 m 258 779 l 749 779 l 749 972 l 258 972 l 258 779 m 258 415 l 721 415 l 721 607 l 258 607 l 258 415 m 104 972 l 104 0 l 329 0 l 329 972 l 104 972 m 474 1193 q 508 1110 474 1143 q 594 1078 543 1078 q 682 1110 646 1078 q 718 1192 718 1143 q 682 1274 718 1243 q 594 1306 646 1306 q 508 1274 543 1306 q 474 1193 474 1243 m 135 1193 q 170 1110 135 1143 q 257 1078 206 1078 q 344 1110 308 1078 q 379 1192 379 1143 q 344 1274 379 1243 q 257 1306 308 1306 q 170 1274 206 1306 q 135 1193 135 1243 z "},"Ж":{"ha":1507,"x_min":0,"x_max":1510,"o":"m 294 972 l 21 972 l 422 517 l 0 0 l 276 0 l 696 514 l 294 972 m 635 972 l 635 0 l 878 0 l 878 972 l 635 972 m 1206 972 l 817 514 l 1226 0 l 1510 0 l 1085 517 l 1489 972 l 1206 972 z "},"З":{"ha":928,"x_min":67,"x_max":888,"o":"m 424 472 q 593 487 514 472 q 733 532 672 501 q 826 610 793 563 q 860 722 860 658 q 817 857 860 796 q 692 954 775 918 q 485 990 608 990 q 279 950 363 990 q 152 842 196 910 q 108 688 108 775 l 325 688 q 344 747 325 721 q 400 788 364 774 q 485 803 436 803 q 563 789 532 803 q 611 751 594 775 q 628 697 628 728 q 605 635 628 663 q 538 592 582 608 q 424 576 493 576 l 424 472 m 492 -21 q 712 15 625 -21 q 843 116 799 51 q 888 265 888 181 q 853 393 888 340 q 756 479 818 446 q 608 528 693 513 q 424 544 524 544 l 424 425 q 529 415 486 425 q 600 388 572 406 q 642 344 628 369 q 656 289 656 319 q 634 221 656 247 q 574 181 613 194 q 482 167 535 167 q 390 182 429 167 q 326 229 350 197 q 299 310 301 261 l 67 310 q 92 184 67 243 q 169 78 117 125 q 301 6 221 32 q 492 -21 382 -21 z "},"И":{"ha":1101,"x_min":104,"x_max":1001,"o":"m 993 728 l 1001 1021 l 111 244 l 104 -49 l 993 728 m 329 972 l 104 972 l 104 -49 l 329 182 l 329 972 m 1001 1021 l 774 781 l 774 0 l 1001 0 l 1001 1021 z "},"Ѝ":{"ha":1101,"x_min":104,"x_max":1001,"o":"m 993 728 l 1001 1021 l 111 244 l 104 -49 l 993 728 m 329 972 l 104 972 l 104 -49 l 329 182 l 329 972 m 1001 1021 l 774 781 l 774 0 l 1001 0 l 1001 1021 m 347 1261 l 597 1053 l 714 1113 l 506 1335 l 347 1261 z "},"Й":{"ha":1101,"x_min":104,"x_max":1001,"o":"m 993 728 l 1001 1021 l 111 244 l 104 -49 l 993 728 m 329 972 l 104 972 l 104 -49 l 329 182 l 329 972 m 1001 1021 l 774 781 l 774 0 l 1001 0 l 1001 1021 m 357 1275 q 383 1172 357 1218 q 461 1098 410 1125 q 585 1071 513 1071 q 709 1098 658 1071 q 787 1172 760 1125 q 814 1275 814 1218 l 674 1275 q 663 1232 674 1251 q 633 1203 653 1213 q 585 1193 613 1193 q 538 1203 558 1193 q 506 1232 517 1213 q 496 1275 496 1251 l 357 1275 z "},"К":{"ha":972,"x_min":104,"x_max":974,"o":"m 104 972 l 104 0 l 347 0 l 347 972 l 104 972 m 676 972 l 278 510 l 689 0 l 974 0 l 558 517 l 953 972 l 676 972 z "},"Ќ":{"ha":972,"x_min":104,"x_max":974,"o":"m 104 972 l 104 0 l 347 0 l 347 972 l 104 972 m 676 972 l 278 510 l 689 0 l 974 0 l 558 517 l 953 972 l 676 972 m 779 1286 l 617 1360 l 408 1138 l 529 1078 l 779 1286 z "},"Л":{"ha":1069,"x_min":14,"x_max":958,"o":"m 958 972 l 161 972 l 161 397 q 151 315 161 351 q 123 253 142 279 q 76 213 104 226 q 14 199 49 199 l 14 0 q 235 46 150 0 q 358 183 319 92 q 397 411 397 274 l 397 761 l 721 761 l 721 0 l 958 0 l 958 972 z "},"М":{"ha":1238,"x_min":49,"x_max":1193,"o":"m 354 494 l 619 90 l 885 494 l 944 0 l 1193 0 l 1033 1021 l 619 429 l 204 1021 l 49 0 l 294 0 l 354 494 z "},"Н":{"ha":1092,"x_min":104,"x_max":990,"o":"m 169 407 l 904 407 l 904 618 l 169 618 l 169 407 m 757 972 l 757 0 l 990 0 l 990 972 l 757 972 m 104 972 l 104 0 l 338 0 l 338 972 l 104 972 z "},"О":{"ha":1140,"x_min":49,"x_max":1096,"o":"m 296 486 q 315 604 296 551 q 372 696 335 657 q 459 757 408 735 q 572 779 510 779 q 685 757 635 779 q 772 696 736 735 q 826 603 808 657 q 844 486 844 550 q 825 369 844 422 q 769 276 806 315 q 683 215 733 238 q 572 193 633 193 q 459 215 510 193 q 372 276 408 238 q 315 369 335 315 q 296 486 296 424 m 49 486 q 86 279 49 374 q 194 115 124 185 q 361 8 265 46 q 572 -31 457 -31 q 781 8 686 -31 q 947 115 876 46 q 1057 279 1018 185 q 1096 486 1096 374 q 1056 692 1096 599 q 945 854 1015 786 q 780 958 875 922 q 572 994 685 994 q 364 958 460 994 q 197 854 268 922 q 88 692 126 786 q 49 486 49 599 z "},"П":{"ha":1071,"x_min":111,"x_max":960,"o":"m 721 761 l 721 0 l 960 0 l 960 972 l 111 972 l 111 0 l 350 0 l 350 761 l 721 761 z "},"Р":{"ha":865,"x_min":104,"x_max":818,"o":"m 104 972 l 104 0 l 338 0 l 338 972 l 104 972 m 250 779 l 440 779 q 522 765 488 779 q 574 722 557 750 q 592 654 592 694 q 574 586 592 614 q 522 544 557 558 q 440 531 488 531 l 250 531 l 250 335 l 440 335 q 649 374 565 335 q 776 484 733 413 q 818 654 818 556 q 776 824 818 753 q 649 934 733 896 q 440 972 565 972 l 250 972 l 250 779 z "},"С":{"ha":972,"x_min":49,"x_max":885,"o":"m 304 486 q 327 605 304 553 q 390 694 350 657 q 483 751 431 732 q 596 771 536 771 q 718 753 665 771 q 812 706 771 735 q 885 642 853 676 l 885 897 q 758 969 826 943 q 582 994 689 994 q 367 958 464 994 q 197 854 269 921 q 87 694 125 788 q 49 486 49 600 q 87 278 49 372 q 197 119 125 185 q 367 16 269 53 q 582 -21 464 -21 q 758 6 689 -21 q 885 75 826 32 l 885 331 q 812 267 853 296 q 718 219 771 238 q 596 201 665 201 q 483 221 536 201 q 390 278 431 240 q 327 367 350 315 q 304 486 304 419 z "},"Т":{"ha":779,"x_min":7,"x_max":775,"o":"m 7 761 l 272 761 l 272 0 l 508 0 l 508 761 l 775 761 l 775 972 l 7 972 l 7 761 z "},"У":{"ha":858,"x_min":-12,"x_max":872,"o":"m 872 972 l 626 972 l 369 396 l 469 393 l 251 972 l -12 972 l 306 296 l 172 0 l 414 0 l 872 972 z "},"Ў":{"ha":840,"x_min":-12,"x_max":854,"o":"m 854 972 l 618 972 l 360 396 l 461 393 l 242 972 l -12 972 l 297 296 l 165 0 l 397 0 l 854 972 m 194 1281 q 222 1178 194 1224 q 299 1105 249 1132 q 422 1078 350 1078 q 547 1105 496 1078 q 624 1178 597 1132 q 651 1281 651 1224 l 513 1281 q 502 1240 513 1258 q 472 1210 492 1221 q 422 1199 451 1199 q 375 1210 396 1199 q 343 1240 354 1221 q 332 1281 332 1258 l 194 1281 z "},"Ф":{"ha":1296,"x_min":56,"x_max":1240,"o":"m 528 972 l 528 0 l 768 0 l 768 972 l 528 972 m 1000 486 q 969 385 1000 422 q 881 333 938 349 q 744 317 824 317 l 554 317 q 417 333 475 317 q 326 385 358 349 q 294 486 294 422 q 326 587 294 549 q 417 640 358 625 q 554 656 475 656 l 744 656 q 881 640 824 656 q 969 587 938 625 q 1000 486 1000 549 m 1240 486 q 1206 643 1240 574 q 1110 761 1171 713 q 967 835 1049 810 q 789 861 885 861 l 508 861 q 278 816 381 861 q 115 688 175 771 q 56 486 56 604 q 90 329 56 399 q 186 211 125 260 q 330 137 247 163 q 508 111 413 111 l 789 111 q 1019 156 917 111 q 1181 285 1121 201 q 1240 486 1240 369 z "},"Х":{"ha":953,"x_min":7,"x_max":947,"o":"m 638 972 l 482 690 l 331 972 l 42 972 l 339 497 l 7 0 l 296 0 l 479 322 l 657 0 l 947 0 l 622 497 l 928 972 l 638 972 z "},"Ц":{"ha":1194,"x_min":104,"x_max":1149,"o":"m 342 211 l 342 972 l 104 972 l 104 0 l 922 0 l 922 -187 l 1149 -187 l 1149 211 l 994 211 l 994 972 l 757 972 l 757 211 l 342 211 z "},"Ч":{"ha":997,"x_min":104,"x_max":886,"o":"m 429 307 l 731 307 l 731 517 l 499 517 l 429 307 m 642 972 l 642 0 l 886 0 l 886 972 l 642 972 m 340 972 l 104 972 l 104 650 q 141 478 104 557 q 251 353 178 400 q 429 307 324 307 l 499 517 q 417 535 453 517 q 360 590 381 553 q 340 679 340 626 l 340 972 z "},"Ш":{"ha":1501,"x_min":111,"x_max":1393,"o":"m 1156 211 l 864 211 l 864 972 l 638 972 l 638 211 l 347 211 l 347 972 l 111 972 l 111 0 l 1393 0 l 1393 972 l 1156 972 l 1156 211 z "},"Щ":{"ha":1599,"x_min":111,"x_max":1544,"o":"m 1156 211 l 864 211 l 864 972 l 638 972 l 638 211 l 347 211 l 347 972 l 111 972 l 111 0 l 1318 0 l 1318 -187 l 1544 -187 l 1544 211 l 1393 211 l 1393 972 l 1156 972 l 1156 211 z "},"Ъ":{"ha":1022,"x_min":14,"x_max":976,"o":"m 407 442 l 597 442 q 678 428 644 442 q 731 386 713 414 q 749 318 749 358 q 731 250 749 278 q 678 208 713 222 q 597 193 644 193 l 407 193 l 407 0 l 597 0 q 806 38 722 0 q 933 149 890 76 q 976 318 976 221 q 933 488 976 417 q 806 599 890 560 q 597 638 722 638 l 407 638 l 407 442 m 264 763 l 264 0 l 500 0 l 500 972 l 14 972 l 14 763 l 264 763 z "},"Ы":{"ha":1261,"x_min":104,"x_max":1160,"o":"m 919 972 l 919 0 l 1160 0 l 1160 972 l 919 972 m 104 972 l 104 0 l 338 0 l 338 972 l 104 972 m 250 442 l 440 442 q 522 428 488 442 q 574 386 557 414 q 592 318 592 358 q 574 250 592 278 q 522 208 557 222 q 440 193 488 193 l 250 193 l 250 0 l 440 0 q 649 38 565 0 q 776 149 733 76 q 818 318 818 221 q 776 488 818 417 q 649 599 733 560 q 440 638 565 638 l 250 638 l 250 442 z "},"Ь":{"ha":865,"x_min":104,"x_max":818,"o":"m 104 972 l 104 0 l 338 0 l 338 972 l 104 972 m 250 442 l 440 442 q 522 428 488 442 q 574 386 557 414 q 592 318 592 358 q 574 250 592 278 q 522 208 557 222 q 440 193 488 193 l 250 193 l 250 0 l 440 0 q 649 38 565 0 q 776 149 733 76 q 818 318 818 221 q 776 488 818 417 q 649 599 733 560 q 440 638 565 638 l 250 638 l 250 442 z "},"Э":{"ha":972,"x_min":90,"x_max":926,"o":"m 190 390 l 710 390 l 710 582 l 190 582 l 190 390 m 694 486 q 668 365 694 419 q 596 273 642 311 q 493 214 550 235 q 378 193 436 193 q 254 210 310 193 q 158 253 199 228 q 90 304 117 279 l 90 75 q 217 6 147 32 q 392 -21 286 -21 q 606 16 508 -21 q 776 119 704 53 q 887 278 847 185 q 926 486 926 372 q 887 694 926 600 q 776 854 847 788 q 606 958 704 921 q 392 994 508 994 q 217 969 286 994 q 90 897 147 943 l 90 668 q 158 719 117 694 q 254 762 199 744 q 378 779 310 779 q 493 758 436 779 q 596 699 550 738 q 668 607 642 661 q 694 486 694 553 z "},"Ю":{"ha":1586,"x_min":104,"x_max":1540,"o":"m 169 407 l 639 407 l 639 618 l 169 618 l 169 407 m 104 972 l 104 0 l 338 0 l 338 972 l 104 972 m 742 486 q 761 604 742 551 q 817 696 781 657 q 905 757 854 735 q 1018 779 956 779 q 1131 757 1081 779 q 1217 696 1182 735 q 1272 603 1253 657 q 1290 488 1290 550 q 1271 369 1290 422 q 1215 276 1251 315 q 1129 215 1179 238 q 1018 193 1079 193 q 904 215 954 193 q 817 276 854 238 q 761 369 781 315 q 742 486 742 424 m 493 486 q 531 279 493 374 q 640 115 569 185 q 807 8 711 46 q 1017 -31 903 -31 q 1227 8 1132 -31 q 1393 115 1322 46 q 1502 279 1464 185 q 1540 486 1540 374 q 1501 692 1540 599 q 1392 854 1463 786 q 1225 958 1321 922 q 1018 994 1129 994 q 811 958 907 994 q 644 854 715 922 q 533 692 572 786 q 493 486 493 599 z "},"Я":{"ha":899,"x_min":7,"x_max":797,"o":"m 554 440 l 307 440 l 7 0 l 281 0 l 554 440 m 797 972 l 561 972 l 561 0 l 797 0 l 797 972 m 649 772 l 649 972 l 443 972 q 232 932 317 972 q 106 820 147 892 q 65 654 65 749 q 106 489 65 561 q 232 376 147 417 q 443 335 317 335 l 649 335 l 649 519 l 460 519 q 378 534 413 519 q 326 577 344 549 q 308 646 308 606 q 326 714 308 686 q 378 757 344 742 q 460 772 413 772 l 649 772 z "},"µ":{"ha":799,"x_min":81,"x_max":717,"o":"m 303 639 l 81 639 l 81 -444 l 285 -444 l 285 22 q 332 0 310 6 q 376 -6 354 -6 q 452 17 418 -6 q 507 74 486 40 l 507 0 l 717 0 l 717 639 l 507 639 l 507 285 q 492 222 507 247 q 453 183 478 197 q 394 168 428 168 q 342 182 363 168 q 312 222 321 196 q 303 285 303 249 l 303 639 z "},"a":{"ha":749,"x_min":35,"x_max":674,"o":"m 246 200 q 256 240 246 225 q 290 264 267 256 q 349 272 313 272 q 441 259 397 272 q 518 221 485 246 l 518 314 q 469 349 503 332 q 388 376 435 365 q 285 386 340 386 q 147 363 201 386 q 63 295 92 340 q 35 189 35 250 q 66 78 35 124 q 149 9 97 32 q 261 -14 200 -14 q 376 8 322 -14 q 462 72 429 29 q 494 175 494 114 l 472 258 q 453 183 472 214 q 403 138 433 153 q 336 122 372 122 q 290 132 311 122 q 258 158 269 142 q 246 200 246 175 m 151 443 q 195 465 164 451 q 268 488 226 478 q 353 497 310 497 q 404 492 382 497 q 442 474 426 486 q 465 444 458 463 q 472 403 472 425 l 472 0 l 674 0 l 674 451 q 635 563 674 517 q 530 633 596 608 q 378 657 464 657 q 212 634 288 657 q 81 585 136 611 l 151 443 z "},"à":{"ha":757,"x_min":35,"x_max":682,"o":"m 246 192 q 259 235 246 215 q 297 264 272 254 q 360 274 322 274 q 451 261 413 274 q 525 221 490 249 l 525 319 q 478 350 511 335 q 402 376 446 365 q 310 386 358 386 q 167 361 231 386 q 69 290 103 336 q 35 178 35 243 q 63 75 35 118 q 143 9 90 32 q 265 -14 196 -14 q 385 9 332 -14 q 470 76 439 32 q 501 181 501 119 l 479 258 q 459 178 479 207 q 407 136 439 149 q 336 124 375 124 q 288 131 308 124 q 257 154 268 139 q 246 192 246 169 m 163 442 q 208 464 178 451 q 281 487 239 476 q 368 497 322 497 q 427 486 403 497 q 465 456 451 475 q 479 408 479 436 l 479 0 l 682 0 l 682 451 q 643 563 682 517 q 538 633 604 608 q 385 657 471 657 q 223 634 299 657 q 93 585 147 611 l 163 442 m 146 949 l 396 740 l 513 801 l 304 1024 l 146 949 z "},"á":{"ha":757,"x_min":35,"x_max":682,"o":"m 246 192 q 259 235 246 215 q 297 264 272 254 q 360 274 322 274 q 451 261 413 274 q 525 221 490 249 l 525 319 q 478 350 511 335 q 402 376 446 365 q 310 386 358 386 q 167 361 231 386 q 69 290 103 336 q 35 178 35 243 q 63 75 35 118 q 143 9 90 32 q 265 -14 196 -14 q 385 9 332 -14 q 470 76 439 32 q 501 181 501 119 l 479 258 q 459 178 479 207 q 407 136 439 149 q 336 124 375 124 q 288 131 308 124 q 257 154 268 139 q 246 192 246 169 m 163 442 q 208 464 178 451 q 281 487 239 476 q 368 497 322 497 q 427 486 403 497 q 465 456 451 475 q 479 408 479 436 l 479 0 l 682 0 l 682 451 q 643 563 682 517 q 538 633 604 608 q 385 657 471 657 q 223 634 299 657 q 93 585 147 611 l 163 442 m 624 949 l 463 1024 l 254 801 l 374 740 l 624 949 z "},"â":{"ha":757,"x_min":35,"x_max":682,"o":"m 246 192 q 259 235 246 215 q 297 264 272 254 q 360 274 322 274 q 451 261 413 274 q 525 221 490 249 l 525 319 q 478 350 511 335 q 402 376 446 365 q 310 386 358 386 q 167 361 231 386 q 69 290 103 336 q 35 178 35 243 q 63 75 35 118 q 143 9 90 32 q 265 -14 196 -14 q 385 9 332 -14 q 470 76 439 32 q 501 181 501 119 l 479 258 q 459 178 479 207 q 407 136 439 149 q 336 124 375 124 q 288 131 308 124 q 257 154 268 139 q 246 192 246 169 m 163 442 q 208 464 178 451 q 281 487 239 476 q 368 497 322 497 q 427 486 403 497 q 465 456 451 475 q 479 408 479 436 l 479 0 l 682 0 l 682 451 q 643 563 682 517 q 538 633 604 608 q 385 657 471 657 q 223 634 299 657 q 93 585 147 611 l 163 442 m 385 861 l 510 740 l 658 839 l 385 1033 l 110 839 l 257 740 l 385 861 z "},"ã":{"ha":757,"x_min":35,"x_max":682,"o":"m 246 192 q 259 235 246 215 q 297 264 272 254 q 360 274 322 274 q 451 261 413 274 q 525 221 490 249 l 525 319 q 478 350 511 335 q 402 376 446 365 q 310 386 358 386 q 167 361 231 386 q 69 290 103 336 q 35 178 35 243 q 63 75 35 118 q 143 9 90 32 q 265 -14 196 -14 q 385 9 332 -14 q 470 76 439 32 q 501 181 501 119 l 479 258 q 459 178 479 207 q 407 136 439 149 q 336 124 375 124 q 288 131 308 124 q 257 154 268 139 q 246 192 246 169 m 163 442 q 208 464 178 451 q 281 487 239 476 q 368 497 322 497 q 427 486 403 497 q 465 456 451 475 q 479 408 479 436 l 479 0 l 682 0 l 682 451 q 643 563 682 517 q 538 633 604 608 q 385 657 471 657 q 223 634 299 657 q 93 585 147 611 l 163 442 m 111 832 l 213 747 q 217 775 213 758 q 235 805 221 792 q 275 818 249 818 q 340 799 310 818 q 401 762 369 781 q 469 743 432 743 q 551 763 513 743 q 617 809 589 782 q 656 861 644 836 l 557 964 q 515 910 536 931 q 468 890 493 890 q 417 901 438 890 q 378 926 396 913 q 336 951 360 940 q 278 963 313 963 q 199 944 233 963 q 141 896 164 925 q 111 832 118 867 z "},"ä":{"ha":757,"x_min":35,"x_max":682,"o":"m 246 192 q 259 235 246 215 q 297 264 272 254 q 360 274 322 274 q 451 261 413 274 q 525 221 490 249 l 525 319 q 478 350 511 335 q 402 376 446 365 q 310 386 358 386 q 167 361 231 386 q 69 290 103 336 q 35 178 35 243 q 63 75 35 118 q 143 9 90 32 q 265 -14 196 -14 q 385 9 332 -14 q 470 76 439 32 q 501 181 501 119 l 479 258 q 459 178 479 207 q 407 136 439 149 q 336 124 375 124 q 288 131 308 124 q 257 154 268 139 q 246 192 246 169 m 163 442 q 208 464 178 451 q 281 487 239 476 q 368 497 322 497 q 427 486 403 497 q 465 456 451 475 q 479 408 479 436 l 479 0 l 682 0 l 682 451 q 643 563 682 517 q 538 633 604 608 q 385 657 471 657 q 223 634 299 657 q 93 585 147 611 l 163 442 m 431 854 q 466 772 431 804 q 553 740 501 740 q 640 772 604 740 q 675 854 675 804 q 640 936 675 904 q 553 968 604 968 q 466 936 501 968 q 431 854 431 904 m 92 854 q 127 772 92 804 q 214 740 163 740 q 301 772 265 740 q 336 854 336 804 q 301 936 336 904 q 214 968 265 968 q 127 936 163 968 q 92 854 92 904 z "},"å":{"ha":757,"x_min":35,"x_max":682,"o":"m 246 192 q 259 235 246 215 q 297 264 272 254 q 360 274 322 274 q 451 261 413 274 q 525 221 490 249 l 525 319 q 478 350 511 335 q 402 376 446 365 q 310 386 358 386 q 167 361 231 386 q 69 290 103 336 q 35 178 35 243 q 63 75 35 118 q 143 9 90 32 q 265 -14 196 -14 q 385 9 332 -14 q 470 76 439 32 q 501 181 501 119 l 479 258 q 459 178 479 207 q 407 136 439 149 q 336 124 375 124 q 288 131 308 124 q 257 154 268 139 q 246 192 246 169 m 163 442 q 208 464 178 451 q 281 487 239 476 q 368 497 322 497 q 427 486 403 497 q 465 456 451 475 q 479 408 479 436 l 479 0 l 682 0 l 682 451 q 643 563 682 517 q 538 633 604 608 q 385 657 471 657 q 223 634 299 657 q 93 585 147 611 l 163 442 m 210 901 q 233 819 210 856 q 295 761 256 782 q 385 740 335 740 q 472 761 433 740 q 534 819 511 782 q 557 901 557 856 q 534 986 557 951 q 472 1041 511 1021 q 385 1061 433 1061 q 295 1041 335 1061 q 233 986 256 1021 q 210 901 210 951 m 319 901 q 328 938 319 922 q 353 960 338 953 q 385 968 368 968 q 429 951 411 968 q 447 901 447 933 q 438 866 447 881 q 416 844 429 851 q 385 836 403 836 q 339 853 358 836 q 319 901 319 871 z "},"ā":{"ha":757,"x_min":35,"x_max":682,"o":"m 246 192 q 259 235 246 215 q 297 264 272 254 q 360 274 322 274 q 451 261 413 274 q 525 221 490 249 l 525 319 q 478 350 511 335 q 402 376 446 365 q 310 386 358 386 q 167 361 231 386 q 69 290 103 336 q 35 178 35 243 q 63 75 35 118 q 143 9 90 32 q 265 -14 196 -14 q 385 9 332 -14 q 470 76 439 32 q 501 181 501 119 l 479 258 q 459 178 479 207 q 407 136 439 149 q 336 124 375 124 q 288 131 308 124 q 257 154 268 139 q 246 192 246 169 m 163 442 q 208 464 178 451 q 281 487 239 476 q 368 497 322 497 q 427 486 403 497 q 465 456 451 475 q 479 408 479 436 l 479 0 l 682 0 l 682 451 q 643 563 682 517 q 538 633 604 608 q 385 657 471 657 q 223 634 299 657 q 93 585 147 611 l 163 442 m 125 751 l 642 751 l 642 933 l 125 933 l 125 751 z "},"ă":{"ha":757,"x_min":35,"x_max":682,"o":"m 246 192 q 259 235 246 215 q 297 264 272 254 q 360 274 322 274 q 451 261 413 274 q 525 221 490 249 l 525 319 q 478 350 511 335 q 402 376 446 365 q 310 386 358 386 q 167 361 231 386 q 69 290 103 336 q 35 178 35 243 q 63 75 35 118 q 143 9 90 32 q 265 -14 196 -14 q 385 9 332 -14 q 470 76 439 32 q 501 181 501 119 l 479 258 q 459 178 479 207 q 407 136 439 149 q 336 124 375 124 q 288 131 308 124 q 257 154 268 139 q 246 192 246 169 m 163 442 q 208 464 178 451 q 281 487 239 476 q 368 497 322 497 q 427 486 403 497 q 465 456 451 475 q 479 408 479 436 l 479 0 l 682 0 l 682 451 q 643 563 682 517 q 538 633 604 608 q 385 657 471 657 q 223 634 299 657 q 93 585 147 611 l 163 442 m 156 943 q 182 840 156 886 q 260 767 208 794 q 385 740 313 740 q 508 767 458 740 q 585 840 558 794 q 611 943 611 886 l 474 943 q 463 901 474 919 q 431 872 451 882 q 385 863 411 863 q 336 872 357 863 q 304 901 315 882 q 293 943 293 919 l 156 943 z "},"ą":{"ha":757,"x_min":35,"x_max":690,"o":"m 246 192 q 259 235 246 215 q 297 264 272 254 q 360 274 322 274 q 451 261 413 274 q 525 221 490 249 l 525 319 q 478 350 511 335 q 402 376 446 365 q 310 386 358 386 q 164 363 226 386 q 68 292 101 339 q 35 182 35 246 q 65 76 35 119 q 146 9 94 32 q 265 -14 197 -14 q 385 9 332 -14 q 470 76 439 32 q 501 181 501 119 l 479 258 q 459 178 479 207 q 407 136 439 149 q 336 124 375 124 q 291 131 311 124 q 258 154 271 139 q 246 192 246 169 m 163 442 q 208 464 178 451 q 281 487 239 476 q 368 497 322 497 q 427 486 403 497 q 465 456 451 475 q 479 408 479 436 l 479 0 l 682 0 l 682 451 q 643 563 682 517 q 538 633 604 608 q 385 657 471 657 q 223 634 299 657 q 93 585 147 611 l 163 442 m 644 -154 q 613 -175 631 -168 q 575 -182 596 -182 q 538 -169 550 -182 q 526 -131 526 -157 q 539 -86 526 -108 q 576 -42 551 -64 q 638 0 601 -19 l 581 35 q 488 -19 532 10 q 417 -85 444 -49 q 390 -167 390 -121 q 411 -242 390 -211 q 469 -290 432 -274 q 551 -306 507 -306 q 642 -288 610 -306 q 690 -250 675 -271 l 644 -154 z "},"b":{"ha":857,"x_min":81,"x_max":813,"o":"m 290 1083 l 81 1083 l 81 0 l 290 0 l 290 1083 m 813 319 q 769 502 813 428 q 656 615 725 576 q 508 653 586 653 q 399 630 449 653 q 312 564 349 607 q 253 459 275 521 q 232 319 232 397 q 253 180 232 242 q 312 75 275 118 q 399 9 349 32 q 508 -14 449 -14 q 656 24 586 -14 q 769 138 725 63 q 813 319 813 213 m 590 319 q 569 233 590 269 q 515 176 549 196 q 439 156 481 156 q 386 167 413 156 q 338 199 360 178 q 303 250 317 219 q 290 321 290 281 q 303 389 290 360 q 338 440 317 418 q 386 472 360 461 q 439 483 413 483 q 515 463 481 483 q 569 406 549 443 q 590 319 590 369 z "},"c":{"ha":685,"x_min":42,"x_max":618,"o":"m 260 319 q 283 403 260 367 q 344 463 306 440 q 429 485 382 485 q 500 474 464 485 q 567 443 536 464 q 618 392 599 422 l 618 597 q 534 638 585 622 q 411 653 483 653 q 221 611 304 653 q 90 495 138 569 q 42 319 42 421 q 90 144 42 219 q 221 28 138 69 q 411 -14 304 -14 q 534 2 483 -14 q 618 44 585 18 l 618 249 q 569 197 599 218 q 503 166 539 176 q 429 156 468 156 q 344 176 382 156 q 283 232 306 196 q 260 319 260 268 z "},"ç":{"ha":685,"x_min":42,"x_max":618,"o":"m 260 319 q 283 404 260 367 q 344 463 306 442 q 429 485 382 485 q 500 474 464 485 q 567 443 536 464 q 618 392 599 422 l 618 597 q 534 638 585 622 q 413 653 483 653 q 221 611 304 653 q 90 495 138 569 q 42 319 42 421 q 90 144 42 219 q 221 28 138 69 q 413 -14 304 -14 q 534 2 483 -14 q 618 44 585 18 l 618 249 q 569 197 599 218 q 503 166 539 176 q 429 156 468 156 q 344 175 382 156 q 283 231 306 194 q 260 319 260 268 m 329 85 l 208 -186 q 278 -167 244 -171 q 322 -164 313 -164 q 363 -167 344 -164 q 394 -181 382 -171 q 406 -208 406 -190 q 397 -235 406 -225 q 371 -251 388 -246 q 331 -257 354 -257 q 279 -249 310 -257 q 222 -222 249 -240 l 158 -318 q 253 -360 207 -349 q 360 -372 300 -372 q 444 -354 403 -372 q 513 -303 486 -336 q 540 -221 540 -271 q 521 -144 540 -175 q 472 -100 501 -114 q 414 -86 443 -86 q 387 -87 400 -86 q 363 -90 374 -87 l 482 79 l 329 85 z "},"ć":{"ha":685,"x_min":42,"x_max":618,"o":"m 260 319 q 283 404 260 367 q 344 463 306 442 q 429 485 382 485 q 500 474 464 485 q 567 443 536 464 q 618 392 599 422 l 618 597 q 534 638 585 622 q 413 653 483 653 q 221 611 304 653 q 90 495 138 569 q 42 319 42 421 q 90 144 42 219 q 221 28 138 69 q 413 -14 304 -14 q 534 2 483 -14 q 618 44 585 18 l 618 249 q 569 197 599 218 q 503 166 539 176 q 429 156 468 156 q 344 175 382 156 q 283 231 306 194 q 260 319 260 268 m 593 946 l 431 1018 l 222 796 l 343 738 l 593 946 z "},"ĉ":{"ha":685,"x_min":42,"x_max":642,"o":"m 260 319 q 283 404 260 367 q 344 463 306 442 q 429 485 382 485 q 500 474 464 485 q 567 443 536 464 q 618 392 599 422 l 618 597 q 534 638 585 622 q 413 653 483 653 q 221 611 304 653 q 90 495 138 569 q 42 319 42 421 q 90 144 42 219 q 221 28 138 69 q 413 -14 304 -14 q 534 2 483 -14 q 618 44 585 18 l 618 249 q 569 197 599 218 q 503 166 539 176 q 429 156 468 156 q 344 175 382 156 q 283 231 306 194 q 260 319 260 268 m 368 856 l 494 738 l 642 836 l 368 1031 l 93 836 l 243 738 l 368 856 z "},"ċ":{"ha":685,"x_min":42,"x_max":618,"o":"m 260 319 q 283 403 260 367 q 344 463 306 440 q 429 485 382 485 q 500 474 464 485 q 567 443 536 464 q 618 392 599 422 l 618 597 q 534 638 585 622 q 411 653 483 653 q 221 611 304 653 q 90 495 138 569 q 42 319 42 421 q 90 144 42 219 q 221 28 138 69 q 411 -14 304 -14 q 534 2 483 -14 q 618 44 585 18 l 618 249 q 569 197 599 218 q 503 166 539 176 q 429 156 468 156 q 344 176 382 156 q 283 232 306 196 q 260 319 260 268 m 254 860 q 290 778 254 810 q 375 747 325 747 q 463 778 428 747 q 499 860 499 810 q 463 942 499 910 q 375 974 428 974 q 290 942 325 974 q 254 860 254 910 z "},"č":{"ha":685,"x_min":42,"x_max":642,"o":"m 260 319 q 283 404 260 367 q 344 463 306 442 q 429 485 382 485 q 500 474 464 485 q 567 443 536 464 q 618 392 599 422 l 618 597 q 534 638 585 622 q 413 653 483 653 q 221 611 304 653 q 90 495 138 569 q 42 319 42 421 q 90 144 42 219 q 221 28 138 69 q 413 -14 304 -14 q 534 2 483 -14 q 618 44 585 18 l 618 249 q 569 197 599 218 q 503 166 539 176 q 429 156 468 156 q 344 175 382 156 q 283 231 306 194 q 260 319 260 268 m 368 911 l 243 1031 l 93 932 l 368 738 l 642 932 l 494 1031 l 368 911 z "},"d":{"ha":857,"x_min":44,"x_max":776,"o":"m 567 1083 l 567 0 l 776 0 l 776 1083 l 567 1083 m 44 319 q 88 138 44 213 q 199 24 131 63 q 347 -14 268 -14 q 458 9 407 -14 q 546 75 508 32 q 604 180 583 118 q 625 319 625 242 q 604 459 625 397 q 546 564 583 521 q 458 630 508 607 q 347 653 407 653 q 199 615 268 653 q 88 502 131 576 q 44 319 44 428 m 265 319 q 286 406 265 369 q 342 463 307 443 q 418 483 376 483 q 470 472 443 483 q 519 440 497 461 q 553 388 540 418 q 567 321 567 358 q 553 251 567 281 q 519 199 540 221 q 471 167 497 178 q 419 156 444 156 q 342 176 376 156 q 286 233 307 196 q 265 319 265 269 z "},"ď":{"ha":857,"x_min":44,"x_max":1151,"o":"m 567 1083 l 567 0 l 776 0 l 776 1083 l 567 1083 m 44 319 q 88 138 44 213 q 199 24 131 63 q 347 -14 268 -14 q 458 9 407 -14 q 546 75 508 32 q 605 180 583 118 q 626 319 626 242 q 605 459 626 397 q 546 564 583 521 q 458 630 508 607 q 347 653 407 653 q 199 615 268 653 q 88 502 131 576 q 44 319 44 428 m 265 319 q 286 406 265 369 q 342 463 307 443 q 418 483 376 483 q 470 472 443 483 q 519 440 497 461 q 553 388 540 418 q 567 319 567 358 q 553 251 567 281 q 519 199 540 221 q 471 167 497 178 q 419 156 444 156 q 342 176 376 156 q 286 233 307 196 q 265 319 265 269 m 940 1083 l 818 724 l 978 692 l 1151 1039 l 940 1083 z "},"e":{"ha":796,"x_min":44,"x_max":751,"o":"m 408 -14 q 615 33 531 -14 q 751 175 700 81 l 563 221 q 500 158 540 179 q 404 138 460 138 q 323 160 357 138 q 272 223 289 182 q 257 322 256 264 q 266 406 257 371 q 293 465 275 442 q 338 501 311 489 q 401 513 365 513 q 466 496 438 513 q 508 449 494 479 q 522 376 522 419 q 518 353 522 367 q 507 328 514 340 l 557 392 l 163 392 l 163 275 l 747 275 q 749 300 749 286 q 749 329 749 314 q 708 504 749 432 q 592 615 668 576 q 404 653 515 653 q 254 630 321 653 q 140 564 188 607 q 69 459 93 521 q 44 319 44 397 q 89 143 44 218 q 215 27 133 68 q 408 -14 296 -14 z "},"è":{"ha":796,"x_min":44,"x_max":751,"o":"m 163 275 l 747 275 q 749 306 750 292 q 749 329 749 321 q 709 503 749 431 q 593 614 669 575 q 404 653 517 653 q 226 619 300 653 q 108 526 151 586 q 50 388 64 467 q 46 354 47 371 q 44 319 44 338 q 87 148 44 224 q 210 29 129 72 q 408 -14 292 -14 q 565 10 500 -14 q 674 76 629 33 q 751 175 719 118 l 563 221 q 524 176 547 194 q 472 147 501 157 q 404 138 442 138 q 330 156 364 138 q 276 214 296 174 q 257 319 257 254 l 260 354 q 277 440 260 404 q 326 494 294 475 q 401 513 358 513 q 464 498 438 513 q 504 457 490 483 q 522 392 518 431 l 163 392 l 163 275 m 175 951 l 425 743 l 544 803 l 336 1025 l 175 951 z "},"é":{"ha":796,"x_min":44,"x_max":751,"o":"m 163 275 l 747 275 q 749 306 750 292 q 749 329 749 321 q 709 503 749 431 q 593 614 669 575 q 404 653 517 653 q 226 619 300 653 q 108 526 151 586 q 50 388 64 467 q 46 354 47 371 q 44 319 44 338 q 87 148 44 224 q 210 29 129 72 q 408 -14 292 -14 q 565 10 500 -14 q 674 76 629 33 q 751 175 719 118 l 563 221 q 524 176 547 194 q 472 147 501 157 q 404 138 442 138 q 330 156 364 138 q 276 214 296 174 q 257 319 257 254 l 260 354 q 277 440 260 404 q 326 494 294 475 q 401 513 358 513 q 464 498 438 513 q 504 457 490 483 q 522 392 518 431 l 163 392 l 163 275 m 644 951 l 483 1025 l 275 803 l 394 743 l 644 951 z "},"ê":{"ha":796,"x_min":44,"x_max":751,"o":"m 163 275 l 747 275 q 749 306 750 292 q 749 329 749 321 q 709 503 749 431 q 593 614 669 575 q 404 653 517 653 q 226 619 300 653 q 108 526 151 586 q 50 388 64 467 q 46 354 47 371 q 44 319 44 338 q 87 148 44 224 q 210 29 129 72 q 408 -14 292 -14 q 565 10 500 -14 q 674 76 629 33 q 751 175 719 118 l 563 221 q 524 176 547 194 q 472 147 501 157 q 404 138 442 138 q 330 156 364 138 q 276 214 296 174 q 257 319 257 254 l 260 354 q 277 440 260 404 q 326 494 294 475 q 401 513 358 513 q 464 498 438 513 q 504 457 490 483 q 522 392 518 431 l 163 392 l 163 275 m 404 856 l 531 738 l 679 836 l 404 1031 l 131 836 l 278 738 l 404 856 z "},"ë":{"ha":796,"x_min":44,"x_max":751,"o":"m 163 275 l 747 275 q 749 306 750 292 q 749 329 749 321 q 709 503 749 431 q 593 614 669 575 q 404 653 517 653 q 226 619 300 653 q 108 526 151 586 q 50 388 64 467 q 46 354 47 371 q 44 319 44 338 q 87 148 44 224 q 210 29 129 72 q 408 -14 292 -14 q 565 10 500 -14 q 674 76 629 33 q 751 175 719 118 l 563 221 q 524 176 547 194 q 472 147 501 157 q 404 138 442 138 q 330 156 364 138 q 276 214 296 174 q 257 319 257 254 l 260 354 q 277 440 260 404 q 326 494 294 475 q 401 513 358 513 q 464 498 438 513 q 504 457 490 483 q 522 392 518 431 l 163 392 l 163 275 m 451 850 q 487 769 451 800 q 574 738 522 738 q 660 769 625 738 q 696 850 696 800 q 660 933 696 900 q 574 965 625 965 q 487 933 522 965 q 451 850 451 900 m 113 850 q 148 769 113 800 q 235 738 183 738 q 322 769 286 738 q 357 850 357 800 q 322 933 357 900 q 235 965 286 965 q 148 933 183 965 q 113 850 113 900 z "},"ē":{"ha":796,"x_min":44,"x_max":751,"o":"m 163 275 l 747 275 q 749 306 750 292 q 749 329 749 321 q 709 503 749 431 q 593 614 669 575 q 403 653 517 653 q 226 619 300 653 q 108 526 151 586 q 50 388 64 467 q 46 354 47 371 q 44 319 44 338 q 87 148 44 224 q 210 29 129 72 q 408 -14 292 -14 q 565 10 500 -14 q 674 76 629 33 q 751 175 719 118 l 563 221 q 524 176 547 194 q 472 147 501 157 q 404 138 442 138 q 330 156 364 138 q 276 214 296 174 q 257 319 257 254 l 260 354 q 277 440 260 404 q 326 494 294 475 q 400 513 358 513 q 464 498 438 513 q 505 457 490 483 q 522 392 519 431 l 163 392 l 163 275 m 146 738 l 663 738 l 663 919 l 146 919 l 146 738 z "},"ĕ":{"ha":796,"x_min":44,"x_max":751,"o":"m 163 275 l 747 275 q 749 306 750 292 q 749 329 749 321 q 709 503 749 431 q 593 614 669 575 q 404 653 517 653 q 226 619 300 653 q 108 526 151 586 q 50 388 64 467 q 46 354 47 371 q 44 319 44 338 q 87 148 44 224 q 210 29 129 72 q 408 -14 292 -14 q 565 10 500 -14 q 674 76 629 33 q 751 175 719 118 l 563 221 q 524 176 547 194 q 472 147 501 157 q 404 138 442 138 q 330 156 364 138 q 276 214 296 174 q 257 319 257 254 l 260 354 q 277 440 260 404 q 326 494 294 475 q 401 513 358 513 q 464 498 438 513 q 504 457 490 483 q 522 392 518 431 l 163 392 l 163 275 m 176 942 q 203 838 176 883 q 281 765 231 792 q 404 738 332 738 q 528 765 478 738 q 606 838 579 792 q 632 942 632 883 l 494 942 q 483 898 494 917 q 452 869 472 879 q 404 858 432 858 q 357 869 378 858 q 325 898 336 879 q 314 942 314 917 l 176 942 z "},"ė":{"ha":796,"x_min":44,"x_max":751,"o":"m 163 275 l 747 275 q 749 306 750 292 q 749 329 749 321 q 709 503 749 431 q 593 614 669 575 q 404 653 517 653 q 226 619 300 653 q 108 526 151 586 q 50 388 64 467 q 46 354 47 371 q 44 319 44 338 q 87 148 44 224 q 210 29 129 72 q 408 -14 292 -14 q 565 10 500 -14 q 674 76 629 33 q 751 175 719 118 l 563 221 q 524 176 547 194 q 472 147 501 157 q 404 138 442 138 q 330 156 364 138 q 276 214 296 174 q 257 319 257 254 l 260 354 q 277 440 260 404 q 326 494 294 475 q 401 513 358 513 q 464 498 438 513 q 504 457 490 483 q 522 392 518 431 l 163 392 l 163 275 m 283 850 q 318 769 283 800 q 404 738 353 738 q 491 769 456 738 q 526 850 526 800 q 491 933 526 900 q 404 965 456 965 q 318 933 353 965 q 283 850 283 900 z "},"ę":{"ha":796,"x_min":44,"x_max":751,"o":"m 163 275 l 747 275 q 749 306 750 292 q 749 329 749 321 q 709 503 749 431 q 593 614 669 575 q 404 653 517 653 q 226 619 300 653 q 108 526 151 586 q 50 388 64 467 q 46 354 47 371 q 44 319 44 338 q 87 148 44 224 q 210 29 129 72 q 408 -14 292 -14 q 565 10 500 -14 q 674 76 629 33 q 751 175 719 118 l 563 221 q 524 176 547 194 q 472 147 501 157 q 404 138 442 138 q 330 156 364 138 q 276 214 296 174 q 257 319 257 254 l 260 354 q 277 440 260 404 q 326 494 294 475 q 401 513 358 513 q 464 498 438 513 q 504 457 490 483 q 522 392 518 431 l 163 392 l 163 275 m 454 -143 q 423 -164 440 -157 q 385 -171 406 -171 q 348 -158 360 -171 q 336 -118 336 -146 q 349 -75 336 -97 q 387 -30 361 -53 q 449 11 413 -7 l 390 46 q 299 -8 342 21 q 227 -74 256 -37 q 199 -156 199 -110 q 220 -231 199 -199 q 279 -278 242 -262 q 363 -294 317 -294 q 453 -277 419 -294 q 501 -239 486 -260 l 454 -143 z "},"ě":{"ha":796,"x_min":44,"x_max":751,"o":"m 163 275 l 747 275 q 749 306 750 292 q 749 329 749 321 q 709 503 749 431 q 593 614 669 575 q 404 653 517 653 q 226 619 300 653 q 108 526 151 586 q 50 388 64 467 q 46 354 47 371 q 44 319 44 338 q 87 148 44 224 q 210 29 129 72 q 408 -14 292 -14 q 565 10 500 -14 q 674 76 629 33 q 751 175 719 118 l 563 221 q 524 176 547 194 q 472 147 501 157 q 404 138 442 138 q 330 156 364 138 q 276 214 296 174 q 257 319 257 254 l 260 354 q 277 440 260 404 q 326 494 294 475 q 401 513 358 513 q 464 498 438 513 q 504 457 490 483 q 522 392 518 431 l 163 392 l 163 275 m 404 911 l 278 1031 l 131 932 l 404 738 l 679 932 l 531 1031 l 404 911 z "},"f":{"ha":478,"x_min":25,"x_max":524,"o":"m 25 639 l 25 465 l 461 465 l 461 639 l 25 639 m 440 882 l 524 1036 q 487 1066 510 1050 q 428 1094 464 1082 q 346 1106 393 1106 q 213 1078 268 1106 q 132 999 158 1050 q 106 875 106 947 l 106 0 l 307 0 l 307 821 q 315 876 307 856 q 338 907 324 897 q 374 917 353 917 q 410 909 394 917 q 440 882 426 901 z "},"g":{"ha":847,"x_min":44,"x_max":768,"o":"m 58 -46 q 106 -194 67 -131 q 221 -295 144 -258 q 418 -332 297 -332 q 594 -297 514 -332 q 721 -186 674 -262 q 768 14 768 -110 l 768 639 l 567 639 l 567 14 q 545 -83 567 -43 q 488 -143 524 -124 q 407 -162 451 -162 q 335 -150 367 -162 q 286 -111 304 -137 q 263 -46 268 -85 l 58 -46 m 44 328 q 88 148 44 221 q 199 39 131 75 q 347 3 268 3 q 458 24 407 3 q 545 88 508 46 q 604 190 582 129 q 626 328 626 250 q 604 466 626 406 q 545 568 582 526 q 458 631 508 610 q 347 653 407 653 q 199 617 268 653 q 88 508 131 581 q 44 328 44 436 m 265 328 q 286 413 265 378 q 342 465 307 447 q 418 483 376 483 q 471 474 444 483 q 519 444 497 464 q 553 396 540 425 q 567 328 567 367 q 553 260 567 289 q 519 212 540 232 q 471 182 497 192 q 418 172 444 172 q 342 190 376 172 q 286 243 307 208 q 265 328 265 278 z "},"ĝ":{"ha":847,"x_min":44,"x_max":768,"o":"m 58 -46 q 106 -194 67 -131 q 221 -295 144 -258 q 418 -332 297 -332 q 594 -297 514 -332 q 721 -186 674 -262 q 768 14 768 -110 l 768 639 l 567 639 l 567 14 q 545 -83 567 -43 q 488 -143 524 -124 q 407 -162 451 -162 q 335 -150 367 -162 q 286 -111 304 -137 q 263 -46 268 -85 l 58 -46 m 44 328 q 88 148 44 221 q 199 39 131 75 q 347 3 268 3 q 458 24 407 3 q 545 88 508 46 q 604 190 582 129 q 626 328 626 250 q 604 466 626 406 q 545 568 582 526 q 458 631 508 610 q 347 653 407 653 q 199 617 268 653 q 88 508 131 581 q 44 328 44 436 m 265 328 q 286 413 265 378 q 342 465 307 447 q 418 483 376 483 q 471 474 444 483 q 519 444 497 464 q 553 396 540 425 q 567 328 567 367 q 553 260 567 289 q 519 212 540 232 q 471 182 497 192 q 418 172 444 172 q 342 190 376 172 q 286 243 307 208 q 265 328 265 278 m 443 856 l 571 738 l 718 836 l 443 1031 l 169 836 l 318 738 l 443 856 z "},"ğ":{"ha":847,"x_min":44,"x_max":768,"o":"m 58 -46 q 106 -194 67 -131 q 221 -295 144 -258 q 418 -332 297 -332 q 594 -297 514 -332 q 721 -186 674 -262 q 768 14 768 -110 l 768 639 l 567 639 l 567 14 q 545 -83 567 -43 q 488 -143 524 -124 q 407 -162 451 -162 q 335 -150 367 -162 q 286 -111 304 -137 q 263 -46 268 -85 l 58 -46 m 44 328 q 88 148 44 221 q 199 39 131 75 q 347 3 268 3 q 458 24 407 3 q 545 88 508 46 q 604 190 582 129 q 626 328 626 250 q 604 466 626 406 q 545 568 582 526 q 458 631 508 610 q 347 653 407 653 q 199 617 268 653 q 88 508 131 581 q 44 328 44 436 m 265 328 q 286 413 265 378 q 342 465 307 447 q 418 483 376 483 q 471 474 444 483 q 519 444 497 464 q 553 396 540 425 q 567 328 567 367 q 553 260 567 289 q 519 212 540 232 q 471 182 497 192 q 418 172 444 172 q 342 190 376 172 q 286 243 307 208 q 265 328 265 278 m 215 942 q 242 838 215 883 q 319 765 268 792 q 443 738 371 738 q 568 765 517 738 q 646 838 619 792 q 672 942 672 883 l 533 942 q 522 898 533 917 q 491 869 511 879 q 443 858 471 858 q 396 869 417 858 q 364 898 375 879 q 353 942 353 917 l 215 942 z "},"ġ":{"ha":847,"x_min":44,"x_max":768,"o":"m 58 -46 q 106 -194 67 -131 q 221 -295 144 -258 q 418 -332 297 -332 q 594 -297 514 -332 q 721 -186 674 -262 q 768 14 768 -110 l 768 639 l 567 639 l 567 14 q 545 -83 567 -43 q 488 -143 524 -124 q 407 -162 451 -162 q 335 -150 367 -162 q 286 -111 304 -137 q 263 -46 268 -85 l 58 -46 m 44 328 q 88 148 44 221 q 199 39 131 75 q 347 3 268 3 q 458 24 407 3 q 545 88 508 46 q 604 190 582 129 q 626 328 626 250 q 604 466 626 406 q 545 568 582 526 q 458 631 508 610 q 347 653 407 653 q 199 617 268 653 q 88 508 131 581 q 44 328 44 436 m 265 328 q 286 413 265 378 q 342 465 307 447 q 418 483 376 483 q 471 474 444 483 q 519 444 497 464 q 553 396 540 425 q 567 328 567 367 q 553 260 567 289 q 519 212 540 232 q 471 182 497 192 q 418 172 444 172 q 342 190 376 172 q 286 243 307 208 q 265 328 265 278 m 306 872 q 341 790 306 822 q 429 758 376 758 q 515 790 479 758 q 550 872 550 822 q 515 954 550 924 q 429 985 479 985 q 341 954 376 985 q 306 872 306 924 z "},"ģ":{"ha":792,"x_min":44,"x_max":768,"o":"m 58 -46 q 106 -194 67 -131 q 221 -295 144 -258 q 418 -332 297 -332 q 594 -297 514 -332 q 721 -186 674 -262 q 768 14 768 -110 l 768 639 l 567 639 l 567 14 q 545 -83 567 -43 q 488 -143 524 -124 q 407 -162 451 -162 q 335 -150 367 -162 q 286 -111 304 -137 q 263 -46 268 -85 l 58 -46 m 44 328 q 88 148 44 221 q 199 39 131 75 q 347 3 268 3 q 458 24 407 3 q 545 88 508 46 q 604 190 582 129 q 626 328 626 250 q 604 466 626 406 q 545 568 582 526 q 458 631 508 610 q 347 653 407 653 q 199 617 268 653 q 88 508 131 581 q 44 328 44 436 m 265 328 q 286 413 265 378 q 342 465 307 447 q 418 483 376 483 q 471 474 444 483 q 519 444 497 464 q 553 396 540 425 q 567 328 567 367 q 553 260 567 289 q 519 212 540 232 q 471 182 497 192 q 418 172 444 172 q 342 190 376 172 q 286 243 307 208 q 265 328 265 278 m 432 753 l 607 1089 l 454 1147 l 229 829 l 432 753 z "},"h":{"ha":789,"x_min":81,"x_max":707,"o":"m 293 1083 l 81 1083 l 81 0 l 293 0 l 293 1083 m 497 389 l 497 0 l 707 0 l 707 419 q 685 553 707 499 q 615 635 664 607 q 488 664 567 664 q 358 626 408 664 q 282 527 307 589 q 257 389 257 465 l 293 389 q 307 453 293 428 q 346 492 321 479 q 404 506 371 506 q 459 492 439 506 q 488 453 479 479 q 497 389 497 426 z "},"ĥ":{"ha":789,"x_min":-83,"x_max":707,"o":"m 293 1083 l 81 1083 l 81 0 l 293 0 l 293 1083 m 497 389 l 497 0 l 707 0 l 707 419 q 685 553 707 499 q 615 635 664 607 q 488 664 567 664 q 356 626 408 664 q 278 527 304 589 q 253 389 253 465 l 293 389 q 307 453 293 428 q 346 492 321 479 q 404 506 371 506 q 459 492 439 506 q 488 453 479 479 q 497 389 497 426 m 193 1286 l 318 1167 l 465 1265 l 193 1460 l -83 1265 l 65 1167 l 193 1286 z "},"i":{"ha":385,"x_min":69,"x_max":314,"o":"m 69 878 q 104 797 69 828 q 192 767 139 767 q 278 797 243 767 q 314 878 314 828 q 278 960 314 928 q 192 992 243 992 q 104 960 139 992 q 69 878 69 928 m 89 639 l 89 0 l 293 0 l 293 639 l 89 639 z "},"ì":{"ha":385,"x_min":-58,"x_max":310,"o":"m 89 639 l 89 0 l 293 0 l 293 639 l 89 639 m -58 956 l 192 747 l 310 807 l 101 1029 l -58 956 z "},"í":{"ha":385,"x_min":61,"x_max":431,"o":"m 89 639 l 89 0 l 293 0 l 293 639 l 89 639 m 431 956 l 269 1029 l 61 807 l 181 747 l 431 956 z "},"î":{"ha":385,"x_min":-83,"x_max":467,"o":"m 89 639 l 89 0 l 293 0 l 293 639 l 89 639 m 192 860 l 318 743 l 467 842 l 192 1036 l -83 842 l 64 743 l 192 860 z "},"ï":{"ha":385,"x_min":-100,"x_max":483,"o":"m 89 639 l 89 0 l 293 0 l 293 639 l 89 639 m 239 867 q 274 784 239 815 q 361 753 310 753 q 448 784 413 753 q 483 867 483 815 q 448 949 483 917 q 361 981 413 981 q 274 949 310 981 q 239 867 239 917 m -100 867 q -65 784 -100 815 q 22 753 -29 753 q 109 784 74 753 q 144 867 144 815 q 109 949 144 917 q 22 981 74 981 q -65 949 -29 981 q -100 867 -100 917 z "},"ĩ":{"ha":385,"x_min":-81,"x_max":464,"o":"m 89 639 l 89 0 l 293 0 l 293 639 l 89 639 m -81 828 l 19 742 q 25 769 19 753 q 43 799 31 786 q 83 813 56 813 q 149 794 118 813 q 210 758 179 776 q 278 739 240 739 q 360 758 322 739 q 425 806 397 778 q 464 858 453 833 l 365 961 q 322 908 344 928 q 274 889 300 889 q 224 899 244 889 q 184 924 203 910 q 142 949 165 938 q 83 960 119 960 q 6 941 40 960 q -51 892 -29 922 q -81 828 -74 863 z "},"ī":{"ha":385,"x_min":-67,"x_max":450,"o":"m 89 639 l 89 0 l 293 0 l 293 639 l 89 639 m -67 738 l 450 738 l 450 919 l -67 919 l -67 738 z "},"ĭ":{"ha":385,"x_min":-37,"x_max":419,"o":"m 89 639 l 89 0 l 293 0 l 293 639 l 89 639 m -37 942 q -10 838 -37 883 q 68 765 17 792 q 192 738 119 738 q 316 765 265 738 q 393 838 367 792 q 419 942 419 883 l 282 942 q 271 898 282 917 q 239 869 260 879 q 192 858 218 858 q 144 869 165 858 q 112 898 124 879 q 100 942 100 917 l -37 942 z "},"į":{"ha":385,"x_min":10,"x_max":314,"o":"m 69 878 q 104 797 69 828 q 192 767 139 767 q 278 797 243 767 q 314 878 314 828 q 278 960 314 928 q 192 992 243 992 q 104 960 139 992 q 69 878 69 928 m 89 639 l 89 0 l 293 0 l 293 639 l 89 639 m 267 -154 q 235 -175 253 -168 q 197 -182 217 -182 q 160 -169 172 -182 q 147 -131 147 -157 q 160 -86 147 -108 q 198 -42 172 -64 q 260 0 224 -19 l 203 35 q 110 -19 154 10 q 38 -85 65 -49 q 10 -167 10 -121 q 31 -242 10 -211 q 90 -290 53 -274 q 172 -306 128 -306 q 264 -288 231 -306 q 313 -250 297 -271 l 267 -154 z "},"j":{"ha":376,"x_min":-131,"x_max":307,"o":"m 63 878 q 98 797 63 828 q 185 765 133 765 q 272 797 236 765 q 307 878 307 828 q 272 959 307 926 q 185 992 236 992 q 98 959 133 992 q 63 878 63 926 m -47 -106 l -131 -261 q -91 -293 -114 -276 q -35 -321 -68 -310 q 46 -332 -1 -332 q 180 -303 126 -332 q 260 -222 233 -275 q 288 -99 288 -169 l 288 639 l 85 639 l 85 -46 q 77 -100 85 -79 q 56 -131 69 -121 q 19 -140 42 -140 q -18 -131 -3 -140 q -47 -106 -33 -121 z "},"ĵ":{"ha":376,"x_min":-131,"x_max":460,"o":"m -47 -106 l -131 -261 q -92 -292 -115 -275 q -36 -320 -69 -308 q 46 -332 -3 -332 q 180 -303 126 -332 q 260 -223 233 -275 q 288 -100 288 -171 l 288 639 l 85 639 l 85 -46 q 77 -101 85 -79 q 54 -131 69 -122 q 18 -140 39 -140 q -17 -133 0 -140 q -47 -106 -33 -125 m 186 856 l 314 738 l 460 836 l 186 1031 l -89 836 l 58 738 l 186 856 z "},"k":{"ha":803,"x_min":81,"x_max":793,"o":"m 81 1083 l 81 0 l 282 0 l 282 1083 l 81 1083 m 515 639 l 243 375 l 546 0 l 793 0 l 492 375 l 765 639 l 515 639 z "},"ķ":{"ha":803,"x_min":81,"x_max":793,"o":"m 81 1083 l 81 0 l 282 0 l 282 1083 l 81 1083 m 515 639 l 243 375 l 546 0 l 793 0 l 492 375 l 765 639 l 515 639 m 357 -83 l 235 -443 l 394 -475 l 569 -128 l 357 -83 z "},"l":{"ha":375,"x_min":81,"x_max":293,"o":"m 81 1083 l 81 0 l 293 0 l 293 1083 l 81 1083 z "},"ĺ":{"ha":375,"x_min":43,"x_max":413,"o":"m 81 1083 l 81 0 l 293 0 l 293 1083 l 81 1083 m 413 1375 l 251 1447 l 43 1225 l 163 1167 l 413 1375 z "},"ļ":{"ha":375,"x_min":19,"x_max":354,"o":"m 81 1083 l 81 0 l 293 0 l 293 1083 l 81 1083 m 142 -83 l 19 -443 l 181 -475 l 354 -128 l 142 -83 z "},"ľ":{"ha":375,"x_min":81,"x_max":697,"o":"m 81 1083 l 81 0 l 293 0 l 293 1083 l 81 1083 m 485 1083 l 363 724 l 522 692 l 697 1039 l 485 1083 z "},"m":{"ha":1139,"x_min":81,"x_max":1057,"o":"m 1057 411 q 1038 542 1057 488 q 974 626 1018 597 q 856 654 931 654 q 739 627 790 654 q 653 549 688 600 q 617 607 640 583 q 556 642 593 631 q 469 654 519 654 q 391 641 426 654 q 330 604 356 628 q 285 544 304 581 l 285 639 l 81 639 l 81 0 l 285 0 l 285 389 q 297 453 285 426 q 330 492 308 479 q 379 506 351 506 q 426 492 408 506 q 451 453 443 479 q 460 389 460 428 l 460 0 l 671 0 l 671 389 q 682 452 671 426 q 715 492 693 478 q 765 506 738 506 q 812 492 794 506 q 837 453 829 479 q 844 389 844 428 l 844 0 l 1057 0 l 1057 411 z "},"n":{"ha":799,"x_min":81,"x_max":717,"o":"m 497 389 l 497 0 l 717 0 l 717 411 q 692 542 717 488 q 617 625 668 596 q 488 654 567 654 q 369 625 418 654 q 293 543 321 596 l 293 639 l 81 639 l 81 0 l 293 0 l 293 389 q 307 452 293 425 q 346 492 321 479 q 404 506 371 506 q 459 492 439 506 q 488 453 479 479 q 497 389 497 426 z "},"ñ":{"ha":799,"x_min":81,"x_max":717,"o":"m 293 639 l 81 639 l 81 0 l 293 0 l 293 639 m 497 389 l 497 0 l 717 0 l 717 411 q 692 544 717 490 q 617 626 668 599 q 488 654 567 654 q 356 617 408 654 q 278 519 304 581 q 253 382 253 458 l 293 389 q 307 453 293 428 q 346 492 321 479 q 404 506 371 506 q 459 492 439 506 q 488 453 479 479 q 497 389 497 426 m 129 828 l 226 742 q 232 769 226 753 q 251 799 238 786 q 292 813 265 813 q 356 794 326 813 q 418 758 386 776 q 488 739 450 739 q 567 758 529 739 q 633 806 606 778 q 672 858 661 833 l 574 961 q 531 908 553 928 q 482 889 510 889 q 433 899 453 889 q 393 924 413 910 q 351 949 374 938 q 293 960 328 960 q 215 941 249 960 q 158 892 181 922 q 129 828 136 863 z "},"ń":{"ha":799,"x_min":81,"x_max":717,"o":"m 293 639 l 81 639 l 81 0 l 293 0 l 293 639 m 497 389 l 497 0 l 717 0 l 717 411 q 692 544 717 490 q 617 626 668 599 q 488 654 567 654 q 358 617 408 654 q 282 519 307 581 q 257 382 257 458 l 293 389 q 307 453 293 428 q 346 492 321 479 q 404 506 371 506 q 459 492 439 506 q 488 453 479 479 q 497 389 497 426 m 628 946 l 468 1018 l 260 796 l 378 738 l 628 946 z "},"ņ":{"ha":799,"x_min":81,"x_max":717,"o":"m 293 639 l 81 639 l 81 0 l 293 0 l 293 639 m 497 389 l 497 0 l 717 0 l 717 411 q 692 544 717 490 q 617 626 668 599 q 488 654 567 654 q 356 617 408 654 q 278 519 304 581 q 253 382 253 458 l 293 389 q 307 453 293 428 q 346 492 321 479 q 404 506 371 506 q 459 492 439 506 q 488 453 479 479 q 497 389 497 426 m 354 -83 l 232 -443 l 393 -475 l 565 -128 l 354 -83 z "},"ň":{"ha":799,"x_min":81,"x_max":717,"o":"m 293 639 l 81 639 l 81 0 l 293 0 l 293 639 m 497 389 l 497 0 l 717 0 l 717 411 q 692 544 717 490 q 617 626 668 599 q 488 654 567 654 q 356 617 408 654 q 278 519 304 581 q 253 382 253 458 l 293 389 q 307 453 293 428 q 346 492 321 479 q 404 506 371 506 q 459 492 439 506 q 488 453 479 479 q 497 389 497 426 m 399 911 l 272 1031 l 125 932 l 399 738 l 672 932 l 525 1031 l 399 911 z "},"o":{"ha":818,"x_min":44,"x_max":775,"o":"m 44 319 q 92 144 44 219 q 223 28 140 69 q 410 -14 306 -14 q 597 28 515 -14 q 727 144 679 69 q 775 319 775 219 q 727 495 775 421 q 597 612 679 569 q 411 654 515 654 q 224 613 307 654 q 92 496 140 571 q 44 319 44 421 m 261 319 q 281 405 261 369 q 335 460 301 440 q 411 481 369 481 q 485 460 451 481 q 538 404 518 440 q 557 321 557 368 q 538 235 557 271 q 485 179 518 199 q 410 160 451 160 q 335 179 369 160 q 281 235 301 199 q 261 319 261 272 z "},"ò":{"ha":818,"x_min":44,"x_max":775,"o":"m 44 319 q 92 144 44 219 q 223 28 140 69 q 410 -14 306 -14 q 597 28 515 -14 q 727 144 679 69 q 775 319 775 219 q 727 495 775 421 q 597 612 679 569 q 411 654 515 654 q 224 613 307 654 q 92 496 140 571 q 44 319 44 421 m 261 319 q 281 405 261 369 q 335 460 301 440 q 411 481 369 481 q 485 460 451 481 q 538 404 518 440 q 557 321 557 368 q 538 235 557 271 q 485 179 518 199 q 410 160 451 160 q 335 179 369 160 q 281 235 301 199 q 261 319 261 272 m 188 956 l 438 747 l 556 807 l 347 1029 l 188 956 z "},"ó":{"ha":818,"x_min":44,"x_max":775,"o":"m 44 319 q 92 144 44 219 q 223 28 140 69 q 410 -14 306 -14 q 597 28 515 -14 q 727 144 679 69 q 775 319 775 219 q 727 495 775 421 q 597 612 679 569 q 411 654 515 654 q 224 613 307 654 q 92 496 140 571 q 44 319 44 421 m 261 319 q 281 405 261 369 q 335 460 301 440 q 411 481 369 481 q 485 460 451 481 q 538 404 518 440 q 557 321 557 368 q 538 235 557 271 q 485 179 518 199 q 410 160 451 160 q 335 179 369 160 q 281 235 301 199 q 261 319 261 272 m 632 956 l 471 1029 l 263 807 l 382 747 l 632 956 z "},"ô":{"ha":818,"x_min":44,"x_max":775,"o":"m 44 319 q 92 144 44 219 q 223 28 140 69 q 410 -14 306 -14 q 597 28 515 -14 q 727 144 679 69 q 775 319 775 219 q 727 495 775 421 q 597 612 679 569 q 411 654 515 654 q 224 613 307 654 q 92 496 140 571 q 44 319 44 421 m 261 319 q 281 405 261 369 q 335 460 301 440 q 411 481 369 481 q 485 460 451 481 q 538 404 518 440 q 557 321 557 368 q 538 235 557 271 q 485 179 518 199 q 410 160 451 160 q 335 179 369 160 q 281 235 301 199 q 261 319 261 272 m 410 867 l 536 747 l 683 846 l 410 1040 l 133 846 l 283 747 l 410 867 z "},"õ":{"ha":818,"x_min":44,"x_max":775,"o":"m 44 319 q 92 144 44 219 q 223 28 140 69 q 410 -14 306 -14 q 597 28 515 -14 q 727 144 679 69 q 775 319 775 219 q 727 496 775 421 q 597 613 679 571 q 410 654 515 654 q 223 613 306 654 q 92 496 140 571 q 44 319 44 421 m 261 319 q 281 406 261 369 q 336 461 301 442 q 410 481 371 481 q 485 461 451 481 q 538 406 518 442 q 557 319 557 369 q 538 235 557 271 q 485 179 518 199 q 410 160 451 160 q 336 179 371 160 q 281 235 301 199 q 261 319 261 271 m 138 828 l 236 742 q 242 769 236 753 q 262 799 247 786 q 301 813 276 813 q 367 794 338 813 q 427 758 396 776 q 496 739 458 739 q 577 758 539 739 q 643 806 615 778 q 682 858 671 833 l 585 961 q 542 908 564 928 q 493 889 521 889 q 443 899 464 889 q 403 924 422 910 q 361 949 383 938 q 303 960 339 960 q 224 941 258 960 q 167 892 189 922 q 138 828 144 863 z "},"ö":{"ha":818,"x_min":44,"x_max":775,"o":"m 44 319 q 92 144 44 219 q 223 28 140 69 q 410 -14 306 -14 q 597 28 515 -14 q 727 144 679 69 q 775 319 775 219 q 727 495 775 421 q 597 612 679 569 q 411 654 515 654 q 224 613 307 654 q 92 496 140 571 q 44 319 44 421 m 261 319 q 281 405 261 369 q 335 460 301 440 q 411 481 369 481 q 485 460 451 481 q 538 404 518 440 q 557 321 557 368 q 538 235 557 271 q 485 179 518 199 q 410 160 451 160 q 335 179 369 160 q 281 235 301 199 q 261 319 261 272 m 457 867 q 492 784 457 815 q 579 753 528 753 q 666 785 631 753 q 701 867 701 817 q 666 949 701 917 q 579 981 631 981 q 492 949 528 981 q 457 867 457 917 m 118 867 q 153 784 118 815 q 239 753 188 753 q 326 785 290 753 q 363 867 363 817 q 326 949 363 917 q 239 981 290 981 q 153 949 188 981 q 118 867 118 917 z "},"ō":{"ha":818,"x_min":44,"x_max":775,"o":"m 44 319 q 92 144 44 219 q 223 28 140 69 q 410 -14 306 -14 q 597 28 515 -14 q 727 144 679 69 q 775 319 775 219 q 727 495 775 421 q 597 612 679 569 q 411 654 515 654 q 224 613 307 654 q 92 496 140 571 q 44 319 44 421 m 261 319 q 281 405 261 369 q 335 460 301 440 q 411 481 369 481 q 485 460 451 481 q 538 404 518 440 q 557 321 557 368 q 538 235 557 271 q 485 179 518 199 q 410 160 451 160 q 335 179 369 160 q 281 235 301 199 q 261 319 261 272 m 151 738 l 667 738 l 667 919 l 151 919 l 151 738 z "},"ŏ":{"ha":818,"x_min":44,"x_max":775,"o":"m 44 319 q 92 144 44 219 q 223 28 140 69 q 410 -14 306 -14 q 597 28 515 -14 q 727 144 679 69 q 775 319 775 219 q 727 495 775 421 q 597 612 679 569 q 411 654 515 654 q 224 613 307 654 q 92 496 140 571 q 44 319 44 421 m 261 319 q 281 405 261 369 q 335 460 301 440 q 411 481 369 481 q 485 460 451 481 q 538 404 518 440 q 557 321 557 368 q 538 235 557 271 q 485 179 518 199 q 410 160 451 160 q 335 179 369 160 q 281 235 301 199 q 261 319 261 272 m 183 942 q 209 838 183 883 q 286 765 235 792 q 410 738 338 738 q 535 765 483 738 q 612 838 586 792 q 638 942 638 883 l 500 942 q 489 898 500 917 q 458 869 478 879 q 413 858 438 858 q 363 869 385 858 q 331 898 342 879 q 319 942 319 917 l 183 942 z "},"ő":{"ha":818,"x_min":44,"x_max":775,"o":"m 281 738 l 481 992 l 310 1033 l 151 772 l 281 738 m 539 738 l 740 992 l 568 1033 l 411 772 l 539 738 m 44 319 q 92 144 44 219 q 223 28 140 69 q 410 -14 306 -14 q 597 28 515 -14 q 727 144 679 69 q 775 319 775 219 q 727 495 775 421 q 597 612 679 569 q 411 654 515 654 q 224 613 307 654 q 92 496 140 571 q 44 319 44 421 m 261 319 q 281 405 261 369 q 335 460 301 440 q 411 481 369 481 q 485 460 451 481 q 538 404 518 440 q 557 321 557 368 q 538 235 557 271 q 485 179 518 199 q 410 160 451 160 q 335 179 369 160 q 281 235 301 199 q 261 319 261 272 z "},"p":{"ha":857,"x_min":81,"x_max":813,"o":"m 290 -306 l 290 639 l 81 639 l 81 -306 l 290 -306 m 813 318 q 769 508 813 432 q 656 623 725 585 q 508 661 586 661 q 396 637 446 661 q 311 567 346 613 q 258 460 276 522 q 240 319 240 397 q 258 179 240 242 q 311 72 276 117 q 396 3 346 26 q 508 -21 446 -21 q 656 17 586 -21 q 769 131 725 56 q 813 318 813 206 m 590 319 q 569 235 590 269 q 515 182 549 200 q 439 164 481 164 q 386 174 413 164 q 338 203 360 183 q 303 251 317 222 q 290 319 290 281 q 303 388 290 358 q 338 437 317 417 q 386 466 360 457 q 439 475 413 475 q 515 457 481 475 q 569 404 549 439 q 590 319 590 369 z "},"q":{"ha":857,"x_min":44,"x_max":776,"o":"m 567 -306 l 776 -306 l 776 639 l 567 639 l 567 -306 m 44 318 q 88 131 44 206 q 199 17 131 56 q 347 -21 268 -21 q 460 3 410 -21 q 545 72 510 26 q 599 179 581 117 q 617 319 617 242 q 599 460 617 397 q 545 567 581 522 q 460 637 510 613 q 347 661 410 661 q 199 623 268 661 q 88 508 131 585 q 44 318 44 432 m 265 319 q 286 404 265 369 q 342 457 307 439 q 419 475 376 475 q 471 466 444 475 q 519 437 497 457 q 553 388 540 417 q 567 321 567 360 q 553 251 567 281 q 519 203 540 222 q 471 174 497 183 q 419 164 444 164 q 342 182 376 164 q 286 235 307 200 q 265 319 265 269 z "},"r":{"ha":572,"x_min":81,"x_max":565,"o":"m 289 639 l 81 639 l 81 0 l 289 0 l 289 639 m 474 421 l 565 603 q 517 639 550 624 q 450 654 485 654 q 348 619 396 654 q 269 525 300 585 q 239 389 239 465 l 289 315 q 302 393 289 361 q 339 441 315 425 q 392 457 363 457 q 438 447 419 457 q 474 421 457 438 z "},"ŕ":{"ha":572,"x_min":81,"x_max":565,"o":"m 289 639 l 81 639 l 81 0 l 289 0 l 289 639 m 474 421 l 565 603 q 517 639 550 624 q 450 654 485 654 q 348 619 396 654 q 269 525 300 585 q 239 389 239 465 l 289 315 q 302 393 289 361 q 339 441 315 425 q 392 457 363 457 q 438 447 419 457 q 474 421 457 438 m 547 946 l 388 1019 l 179 797 l 297 738 l 547 946 z "},"ŗ":{"ha":572,"x_min":19,"x_max":565,"o":"m 289 639 l 81 639 l 81 0 l 289 0 l 289 639 m 474 421 l 565 603 q 517 639 550 624 q 450 654 485 654 q 348 619 396 654 q 269 525 300 585 q 239 389 239 465 l 289 315 q 302 393 289 361 q 339 441 315 425 q 392 457 363 457 q 438 447 419 457 q 474 421 457 438 m 142 -83 l 19 -443 l 178 -475 l 353 -128 l 142 -83 z "},"ř":{"ha":572,"x_min":49,"x_max":597,"o":"m 289 639 l 81 639 l 81 0 l 289 0 l 289 639 m 474 421 l 565 603 q 517 639 550 624 q 450 654 485 654 q 348 619 396 654 q 269 525 300 585 q 239 389 239 465 l 289 315 q 302 393 289 361 q 339 441 315 425 q 392 457 363 457 q 438 447 419 457 q 474 421 457 438 m 324 913 l 199 1031 l 49 932 l 324 738 l 597 932 l 450 1031 l 324 913 z "},"ȓ":{"ha":572,"x_min":81,"x_max":565,"o":"m 289 639 l 81 639 l 81 0 l 289 0 l 289 639 m 474 421 l 565 603 q 517 639 550 624 q 450 654 485 654 q 348 619 396 654 q 269 525 300 585 q 239 389 239 465 l 289 315 q 302 393 289 361 q 339 441 315 425 q 392 457 363 457 q 438 447 419 457 q 474 421 457 438 m 96 738 q 122 841 96 794 q 200 915 149 888 q 324 942 251 942 q 449 915 397 942 q 526 841 500 888 q 553 738 553 794 l 414 738 q 403 781 414 763 q 372 810 392 800 q 324 821 351 821 q 276 810 297 821 q 244 781 256 800 q 233 738 233 763 l 96 738 z "},"s":{"ha":633,"x_min":29,"x_max":600,"o":"m 117 232 l 29 93 q 122 33 72 60 q 231 -10 172 6 q 360 -26 290 -26 q 490 -3 436 -26 q 572 67 543 21 q 600 181 600 113 q 574 276 600 240 q 508 336 549 313 q 415 378 467 360 q 335 408 368 396 q 285 433 303 419 q 268 468 268 447 q 283 497 268 486 q 325 508 299 508 q 421 483 368 508 q 511 421 474 458 l 586 558 q 508 607 550 586 q 417 640 465 628 q 313 653 369 653 q 190 632 244 653 q 105 571 136 611 q 74 472 74 531 q 100 372 74 411 q 169 310 126 333 q 254 269 211 286 q 336 241 307 254 q 378 213 365 228 q 390 179 390 199 q 375 142 390 156 q 328 128 360 128 q 275 137 306 128 q 205 169 244 146 q 117 232 165 192 z "},"ś":{"ha":633,"x_min":28,"x_max":600,"o":"m 114 243 l 28 104 q 117 36 67 65 q 226 -10 167 7 q 354 -26 286 -26 q 487 -6 432 -26 q 571 62 542 15 q 600 181 600 108 q 575 273 600 236 q 510 333 550 310 q 424 372 469 356 q 346 401 383 388 q 284 428 308 414 q 260 461 260 442 q 276 491 260 482 q 326 500 293 500 q 386 490 353 500 q 453 463 419 481 q 511 421 486 446 l 586 558 q 510 607 554 586 q 418 640 467 628 q 313 653 369 653 q 186 632 244 653 q 93 569 128 611 q 58 467 58 528 q 81 375 58 411 q 141 316 104 339 q 218 274 178 293 q 276 251 246 261 q 333 231 307 240 q 374 208 358 221 q 390 178 390 196 q 372 145 390 154 q 326 136 354 136 q 274 145 306 136 q 202 178 242 154 q 114 243 163 201 m 563 946 l 401 1018 l 193 796 l 313 738 l 563 946 z "},"ŝ":{"ha":633,"x_min":28,"x_max":604,"o":"m 114 243 l 28 104 q 117 36 67 65 q 226 -10 167 7 q 354 -26 286 -26 q 487 -6 432 -26 q 571 62 542 15 q 600 181 600 108 q 575 273 600 236 q 510 333 550 310 q 424 372 469 356 q 346 401 383 388 q 284 428 308 414 q 260 461 260 442 q 276 491 260 482 q 326 500 293 500 q 386 490 353 500 q 453 463 419 481 q 511 421 486 446 l 586 558 q 510 607 554 586 q 418 640 467 628 q 313 653 369 653 q 186 632 244 653 q 93 569 128 611 q 58 467 58 528 q 81 375 58 411 q 141 316 104 339 q 218 274 178 293 q 276 251 246 261 q 333 231 307 240 q 374 208 358 221 q 390 178 390 196 q 372 145 390 154 q 326 136 354 136 q 274 145 306 136 q 202 178 242 154 q 114 243 163 201 m 329 856 l 458 738 l 604 836 l 329 1031 l 56 836 l 203 738 l 329 856 z "},"ş":{"ha":633,"x_min":28,"x_max":600,"o":"m 115 244 l 28 104 q 123 36 72 65 q 233 -10 174 7 q 360 -26 293 -26 q 489 -5 435 -26 q 572 63 543 17 q 600 181 600 108 q 575 275 600 239 q 510 335 550 311 q 424 375 469 358 q 348 402 383 390 q 290 428 313 414 q 268 467 268 443 q 285 497 268 486 q 338 508 303 508 q 425 483 376 508 q 511 422 474 458 l 586 558 q 463 626 531 599 q 313 653 394 653 q 190 632 244 653 q 105 570 136 611 q 74 469 74 529 q 100 371 74 408 q 167 311 126 333 q 254 271 208 289 q 322 247 290 260 q 372 219 354 235 q 390 181 390 204 q 374 144 390 156 q 329 132 357 132 q 281 140 311 132 q 208 174 250 149 q 115 244 167 199 m 313 89 l 192 -182 q 262 -162 229 -167 q 304 -158 294 -158 q 345 -162 326 -158 q 376 -176 364 -167 q 389 -204 389 -186 q 380 -231 389 -221 q 353 -248 371 -242 q 313 -254 336 -254 q 261 -245 292 -254 q 206 -217 231 -236 l 143 -312 q 236 -353 190 -342 q 340 -365 282 -365 q 426 -349 385 -365 q 496 -299 468 -332 q 524 -215 524 -265 q 503 -140 524 -169 q 453 -94 483 -110 q 397 -79 424 -79 q 370 -81 382 -79 q 346 -85 358 -82 l 465 85 l 313 89 z "},"š":{"ha":633,"x_min":28,"x_max":600,"o":"m 114 243 l 28 104 q 117 36 67 65 q 226 -10 167 7 q 354 -26 286 -26 q 487 -6 432 -26 q 571 62 542 15 q 600 181 600 108 q 575 273 600 236 q 510 333 550 310 q 424 372 469 356 q 346 401 383 388 q 284 428 308 414 q 260 461 260 442 q 276 491 260 482 q 326 500 293 500 q 386 490 353 500 q 453 463 419 481 q 511 421 486 446 l 586 558 q 510 607 554 586 q 418 640 467 628 q 313 653 369 653 q 186 632 244 653 q 93 569 128 611 q 58 467 58 528 q 81 375 58 411 q 141 316 104 339 q 218 274 178 293 q 276 251 246 261 q 333 231 307 240 q 374 208 358 221 q 390 178 390 196 q 372 145 390 154 q 326 136 354 136 q 274 145 306 136 q 202 178 242 154 q 114 243 163 201 m 313 894 l 186 1013 l 36 914 l 313 719 l 586 914 l 439 1013 l 313 894 z "},"ș":{"ha":633,"x_min":28,"x_max":600,"o":"m 114 243 l 28 104 q 117 36 67 65 q 226 -10 167 7 q 354 -26 286 -26 q 487 -6 432 -26 q 571 62 542 15 q 600 181 600 108 q 575 273 600 236 q 510 333 550 310 q 424 372 469 356 q 346 401 383 388 q 284 428 308 414 q 260 461 260 442 q 276 491 260 482 q 326 500 293 500 q 386 490 353 500 q 453 463 419 481 q 511 421 486 446 l 586 558 q 510 607 554 586 q 418 640 467 628 q 313 653 369 653 q 186 632 244 653 q 93 569 128 611 q 58 467 58 528 q 81 375 58 411 q 141 316 104 339 q 218 274 178 293 q 276 251 246 261 q 333 231 307 240 q 374 208 358 221 q 390 178 390 196 q 372 145 390 154 q 326 136 354 136 q 274 145 306 136 q 202 178 242 154 q 114 243 163 201 m 275 -93 l 153 -453 l 314 -485 l 486 -137 l 275 -93 z "},"t":{"ha":442,"x_min":7,"x_max":435,"o":"m 7 639 l 7 465 l 435 465 l 435 639 l 7 639 m 119 861 l 119 0 l 322 0 l 322 861 l 119 861 z "},"ţ":{"ha":442,"x_min":-26,"x_max":435,"o":"m 144 15 l 21 -257 q 93 -237 60 -242 q 136 -233 126 -233 q 177 -237 158 -233 q 208 -250 196 -240 q 221 -278 221 -260 q 212 -305 221 -294 q 186 -321 203 -315 q 146 -326 169 -326 q 94 -318 125 -326 q 38 -292 63 -310 l -28 -386 q 67 -431 19 -418 q 172 -443 114 -443 q 258 -425 217 -443 q 328 -374 300 -407 q 356 -289 356 -340 q 335 -213 356 -243 q 286 -169 315 -183 q 228 -154 257 -154 q 201 -155 214 -154 q 176 -158 188 -156 l 299 11 l 144 15 m 7 639 l 7 465 l 435 465 l 435 639 l 7 639 m 119 861 l 119 0 l 322 0 l 322 861 l 119 861 z "},"ť":{"ha":672,"x_min":7,"x_max":740,"o":"m 7 639 l 7 465 l 435 465 l 435 639 l 7 639 m 119 861 l 119 0 l 322 0 l 322 861 l 119 861 m 529 1092 l 407 732 l 565 700 l 740 1047 l 529 1092 z "},"ț":{"ha":442,"x_min":7,"x_max":435,"o":"m 7 639 l 7 465 l 435 465 l 435 639 l 7 639 m 119 861 l 119 0 l 322 0 l 322 861 l 119 861 m 176 -83 l 54 -443 l 213 -475 l 388 -128 l 176 -83 z "},"u":{"ha":799,"x_min":81,"x_max":717,"o":"m 303 250 l 303 639 l 81 639 l 81 229 q 106 98 81 153 q 181 14 131 43 q 311 -15 232 -15 q 430 15 382 -15 q 507 96 478 44 l 507 0 l 717 0 l 717 639 l 507 639 l 507 250 q 492 188 507 214 q 453 147 478 161 q 394 133 428 133 q 342 147 363 133 q 313 187 322 161 q 303 250 303 213 z "},"ù":{"ha":799,"x_min":81,"x_max":717,"o":"m 507 0 l 717 0 l 717 639 l 507 639 l 507 0 m 303 250 l 303 639 l 81 639 l 81 229 q 106 95 81 150 q 181 13 131 40 q 311 -15 232 -15 q 442 22 390 -15 q 521 122 494 58 q 547 258 547 185 l 507 250 q 492 187 507 213 q 453 147 478 161 q 394 133 428 133 q 342 148 363 133 q 312 188 321 163 q 303 250 303 213 m 197 956 l 447 747 l 567 807 l 358 1029 l 197 956 z "},"ú":{"ha":799,"x_min":81,"x_max":717,"o":"m 507 0 l 717 0 l 717 639 l 507 639 l 507 0 m 303 250 l 303 639 l 81 639 l 81 229 q 106 95 81 150 q 181 13 131 40 q 311 -15 232 -15 q 442 22 390 -15 q 521 122 494 58 q 547 258 547 185 l 507 250 q 492 187 507 213 q 453 147 478 161 q 394 133 428 133 q 342 148 363 133 q 312 188 321 163 q 303 250 303 213 m 600 956 l 440 1029 l 232 807 l 350 747 l 600 956 z "},"û":{"ha":799,"x_min":81,"x_max":717,"o":"m 507 0 l 717 0 l 717 639 l 507 639 l 507 0 m 303 250 l 303 639 l 81 639 l 81 229 q 106 95 81 150 q 181 13 131 40 q 311 -15 232 -15 q 442 22 390 -15 q 521 122 494 58 q 547 258 547 185 l 507 250 q 492 187 507 213 q 453 147 478 161 q 394 133 428 133 q 342 148 363 133 q 312 188 321 163 q 303 250 303 213 m 399 867 l 525 747 l 672 846 l 399 1040 l 125 846 l 272 747 l 399 867 z "},"ü":{"ha":799,"x_min":81,"x_max":717,"o":"m 507 0 l 717 0 l 717 639 l 507 639 l 507 0 m 303 250 l 303 639 l 81 639 l 81 229 q 106 95 81 150 q 181 13 131 40 q 311 -15 232 -15 q 442 22 390 -15 q 521 122 494 58 q 547 258 547 185 l 507 250 q 492 187 507 213 q 453 147 478 161 q 394 133 428 133 q 342 148 363 133 q 312 188 321 163 q 303 250 303 213 m 447 863 q 483 779 447 811 q 569 747 518 747 q 656 779 621 747 q 692 863 692 811 q 656 944 692 913 q 569 975 621 975 q 483 944 518 975 q 447 863 447 913 m 108 863 q 144 779 108 811 q 231 747 179 747 q 317 779 282 747 q 353 863 353 811 q 317 944 353 913 q 231 975 282 975 q 144 944 179 975 q 108 863 108 913 z "},"ũ":{"ha":799,"x_min":81,"x_max":717,"o":"m 507 0 l 717 0 l 717 639 l 507 639 l 507 0 m 303 250 l 303 639 l 81 639 l 81 229 q 106 95 81 150 q 181 13 131 40 q 311 -15 232 -15 q 442 22 390 -15 q 518 122 493 58 q 543 258 543 185 l 507 250 q 492 187 507 213 q 453 147 478 161 q 394 133 428 133 q 342 148 363 133 q 312 188 321 163 q 303 250 303 213 m 125 828 l 226 742 q 232 769 226 753 q 251 799 238 786 q 292 813 265 813 q 356 794 326 813 q 417 758 386 776 q 488 739 449 739 q 567 758 529 739 q 633 806 606 778 q 672 858 661 833 l 574 961 q 531 908 553 928 q 482 889 510 889 q 432 899 453 889 q 392 924 411 910 q 351 949 374 938 q 293 960 328 960 q 214 941 249 960 q 156 892 179 922 q 125 828 132 863 z "},"ū":{"ha":799,"x_min":81,"x_max":717,"o":"m 507 0 l 717 0 l 717 639 l 507 639 l 507 0 m 303 250 l 303 639 l 81 639 l 81 229 q 106 95 81 150 q 181 13 131 40 q 311 -15 232 -15 q 442 22 390 -15 q 518 122 493 58 q 543 258 543 185 l 507 250 q 492 187 507 213 q 453 147 478 161 q 394 133 428 133 q 342 148 363 133 q 312 188 321 163 q 303 250 303 213 m 142 738 l 658 738 l 658 919 l 142 919 l 142 738 z "},"ŭ":{"ha":799,"x_min":81,"x_max":717,"o":"m 507 0 l 717 0 l 717 639 l 507 639 l 507 0 m 303 250 l 303 639 l 81 639 l 81 229 q 106 95 81 150 q 181 13 131 40 q 311 -15 232 -15 q 442 22 390 -15 q 518 122 493 58 q 543 258 543 185 l 507 250 q 492 187 507 213 q 453 147 478 161 q 394 133 428 133 q 342 148 363 133 q 312 188 321 163 q 303 250 303 213 m 171 942 q 198 838 171 883 q 276 765 225 792 q 401 738 328 738 q 524 765 474 738 q 601 838 575 792 q 628 942 628 883 l 490 942 q 479 898 490 917 q 448 869 468 879 q 401 858 428 858 q 353 869 374 858 q 321 898 332 879 q 310 942 310 917 l 171 942 z "},"ů":{"ha":799,"x_min":81,"x_max":717,"o":"m 507 0 l 717 0 l 717 639 l 507 639 l 507 0 m 303 250 l 303 639 l 81 639 l 81 229 q 106 95 81 150 q 181 13 131 40 q 310 -15 232 -15 q 442 22 390 -15 q 518 122 493 58 q 543 258 543 185 l 507 250 q 492 187 507 213 q 453 147 478 161 q 394 133 428 133 q 342 148 363 133 q 312 188 321 163 q 303 250 303 213 m 225 899 q 248 814 225 850 q 311 758 271 778 q 400 738 351 738 q 487 758 447 738 q 550 814 526 778 q 574 897 574 850 q 550 981 574 944 q 487 1038 526 1018 q 400 1058 447 1058 q 311 1038 351 1058 q 248 982 271 1018 q 225 899 225 946 m 336 896 q 345 932 336 918 q 369 955 354 946 q 399 964 383 964 q 444 947 425 964 q 464 899 464 931 q 455 863 464 878 q 431 840 446 847 q 400 832 417 832 q 354 849 372 832 q 336 896 336 865 z "},"ű":{"ha":799,"x_min":81,"x_max":731,"o":"m 271 738 l 471 992 l 300 1033 l 142 772 l 271 738 m 529 738 l 731 992 l 558 1033 l 401 772 l 529 738 m 303 250 l 303 639 l 81 639 l 81 229 q 106 98 81 153 q 181 14 131 43 q 311 -15 232 -15 q 430 15 382 -15 q 507 96 478 44 l 507 0 l 717 0 l 717 639 l 507 639 l 507 250 q 492 188 507 214 q 453 147 478 161 q 394 133 428 133 q 342 147 363 133 q 313 187 322 161 q 303 250 303 213 z "},"ų":{"ha":799,"x_min":81,"x_max":717,"o":"m 383 -162 q 352 -183 369 -176 q 314 -190 335 -190 q 276 -178 289 -190 q 264 -139 264 -165 q 277 -94 264 -117 q 315 -50 290 -72 q 376 -8 340 -28 l 319 26 q 227 -28 271 1 q 156 -93 183 -57 q 129 -175 129 -129 q 150 -251 129 -219 q 208 -298 171 -282 q 289 -314 244 -314 q 381 -297 347 -314 q 429 -258 414 -279 l 383 -162 m 303 250 l 303 639 l 81 639 l 81 229 q 106 98 81 153 q 181 14 131 43 q 311 -15 232 -15 q 430 15 382 -15 q 507 96 478 44 l 507 0 l 717 0 l 717 639 l 507 639 l 507 250 q 492 188 507 214 q 453 147 478 161 q 394 133 428 133 q 342 147 363 133 q 313 187 322 161 q 303 250 303 213 z "},"v":{"ha":732,"x_min":-4,"x_max":738,"o":"m -4 639 l 367 -75 l 738 639 l 513 639 l 367 285 l 221 639 l -4 639 z "},"w":{"ha":1057,"x_min":-11,"x_max":1068,"o":"m -11 639 l 321 -40 l 526 339 l 738 -40 l 1068 639 l 849 639 l 714 311 l 526 688 l 344 313 l 210 639 l -11 639 z "},"ŵ":{"ha":1057,"x_min":-11,"x_max":1068,"o":"m -11 639 l 321 -40 l 526 339 l 738 -40 l 1068 639 l 849 639 l 714 311 l 526 688 l 344 313 l 210 639 l -11 639 m 526 890 l 654 771 l 800 869 l 526 1064 l 251 869 l 400 771 l 526 890 z "},"ẁ":{"ha":1057,"x_min":-11,"x_max":1068,"o":"m 526 771 l 646 829 l 438 1051 l 276 979 l 526 771 m -11 639 l 321 -40 l 526 339 l 738 -40 l 1068 639 l 849 639 l 714 311 l 526 688 l 344 313 l 210 639 l -11 639 z "},"ẃ":{"ha":1057,"x_min":-11,"x_max":1068,"o":"m 526 772 l 776 981 l 615 1051 l 407 829 l 526 772 m -11 639 l 321 -40 l 526 339 l 738 -40 l 1068 639 l 849 639 l 714 311 l 526 688 l 344 313 l 210 639 l -11 639 z "},"ẅ":{"ha":1057,"x_min":-11,"x_max":1068,"o":"m 572 885 q 608 804 572 836 q 696 772 644 772 q 783 804 747 772 q 819 885 819 836 q 783 967 819 935 q 696 1000 747 1000 q 608 967 644 1000 q 572 885 572 935 m 235 885 q 270 804 235 836 q 357 772 306 772 q 444 804 408 772 q 479 885 479 836 q 444 967 479 935 q 357 1000 408 1000 q 270 967 306 1000 q 235 885 235 935 m -11 639 l 321 -40 l 526 339 l 738 -40 l 1068 639 l 849 639 l 714 311 l 526 688 l 344 313 l 210 639 l -11 639 z "},"ẇ":{"ha":1057,"x_min":-11,"x_max":1068,"o":"m 404 885 q 439 803 404 835 q 525 771 474 771 q 613 803 576 771 q 649 885 649 835 q 613 967 649 935 q 525 999 576 999 q 439 967 474 999 q 404 885 404 935 m -11 639 l 321 -40 l 526 339 l 738 -40 l 1068 639 l 849 639 l 714 311 l 526 688 l 344 313 l 210 639 l -11 639 z "},"ẉ":{"ha":1057,"x_min":-11,"x_max":1068,"o":"m 407 -236 q 442 -318 407 -286 q 528 -350 476 -350 q 615 -318 579 -350 q 651 -236 651 -286 q 615 -154 651 -186 q 528 -122 579 -122 q 442 -154 476 -122 q 407 -236 407 -186 m -11 639 l 321 -40 l 526 339 l 738 -40 l 1068 639 l 849 639 l 714 311 l 526 688 l 344 313 l 210 639 l -11 639 z "},"x":{"ha":739,"x_min":0,"x_max":739,"o":"m 492 639 l 374 471 l 257 639 l 14 639 l 263 328 l 0 0 l 243 0 l 374 185 l 506 0 l 739 0 l 481 328 l 725 639 l 492 639 z "},"y":{"ha":724,"x_min":-12,"x_max":738,"o":"m 738 639 l 521 639 l 317 128 l 425 126 l 219 639 l -12 639 l 264 51 l 110 -306 l 321 -306 l 738 639 z "},"ý":{"ha":724,"x_min":-12,"x_max":738,"o":"m 738 639 l 521 639 l 317 128 l 425 126 l 219 639 l -12 639 l 264 51 l 110 -306 l 321 -306 l 738 639 m 586 956 l 425 1029 l 217 807 l 336 747 l 586 956 z "},"ÿ":{"ha":724,"x_min":-12,"x_max":738,"o":"m 738 639 l 521 639 l 317 128 l 425 126 l 219 639 l -12 639 l 264 51 l 110 -306 l 321 -306 l 738 639 m 408 850 q 444 769 408 800 q 531 738 479 738 q 618 769 582 738 q 654 850 654 800 q 618 933 654 900 q 531 965 582 965 q 444 933 479 965 q 408 850 408 900 m 71 850 q 106 769 71 800 q 193 738 142 738 q 280 769 244 738 q 315 850 315 800 q 280 933 315 900 q 193 965 244 965 q 106 933 142 965 q 71 850 71 900 z "},"ŷ":{"ha":724,"x_min":-12,"x_max":738,"o":"m 738 639 l 521 639 l 317 128 l 425 126 l 219 639 l -12 639 l 264 51 l 110 -306 l 321 -306 l 738 639 m 363 856 l 489 738 l 636 836 l 363 1031 l 88 836 l 235 738 l 363 856 z "},"ỳ":{"ha":724,"x_min":-12,"x_max":738,"o":"m 363 738 l 482 796 l 274 1018 l 113 946 l 363 738 m 738 639 l 521 639 l 317 128 l 425 126 l 219 639 l -12 639 l 264 51 l 110 -306 l 321 -306 l 738 639 z "},"z":{"ha":725,"x_min":21,"x_max":706,"o":"m 357 447 l 21 0 l 660 0 l 660 192 l 386 192 l 706 639 l 81 639 l 81 447 l 357 447 z "},"ź":{"ha":725,"x_min":21,"x_max":706,"o":"m 357 447 l 21 0 l 660 0 l 660 192 l 386 192 l 706 639 l 81 639 l 81 447 l 357 447 m 632 956 l 471 1029 l 263 807 l 382 747 l 632 956 z "},"ż":{"ha":725,"x_min":21,"x_max":706,"o":"m 357 447 l 21 0 l 660 0 l 660 192 l 386 192 l 706 639 l 81 639 l 81 447 l 357 447 m 269 867 q 305 784 269 815 q 393 753 340 753 q 479 784 443 753 q 515 867 515 815 q 479 949 515 917 q 393 981 443 981 q 305 949 340 981 q 269 867 269 917 z "},"ž":{"ha":717,"x_min":21,"x_max":706,"o":"m 393 911 l 265 1029 l 118 931 l 393 736 l 668 931 l 519 1029 l 393 911 m 357 447 l 21 0 l 660 0 l 660 192 l 385 192 l 706 639 l 81 639 l 81 447 l 357 447 z "},"ß":{"ha":839,"x_min":64,"x_max":839,"o":"m 518 -17 q 637 6 579 -17 q 740 67 694 28 q 813 157 786 106 q 839 268 839 208 q 824 353 839 318 q 785 412 808 388 q 735 453 761 436 q 685 486 710 471 q 647 519 661 501 q 632 557 632 536 q 644 602 632 581 q 674 646 656 624 q 709 695 692 668 q 739 759 726 722 q 751 849 751 796 q 706 990 751 933 q 585 1077 661 1047 q 417 1107 510 1107 q 226 1067 306 1107 q 106 951 147 1028 q 64 767 64 875 l 64 -3 l 278 -3 l 275 763 q 290 852 275 818 q 336 903 306 886 q 413 919 367 919 q 474 908 446 919 q 517 871 501 896 q 533 807 533 846 q 521 742 533 771 q 490 688 508 713 q 452 640 471 664 q 421 592 433 617 q 408 535 408 567 q 424 481 408 504 q 463 439 439 457 q 514 403 488 421 q 565 368 540 386 q 605 325 589 350 q 621 267 621 300 q 605 208 621 235 q 563 168 589 182 q 501 154 538 154 q 454 160 478 154 q 408 176 431 165 q 365 201 386 186 l 324 38 q 378 10 346 22 q 446 -10 410 -3 q 518 -17 482 -17 z "},"æ":{"ha":1244,"x_min":35,"x_max":1199,"o":"m 301 -14 q 493 26 418 -14 q 589 142 568 65 l 572 142 q 677 24 608 63 q 856 -14 746 -14 q 1061 33 976 -14 q 1199 175 1146 81 l 1011 221 q 947 160 989 182 q 853 138 906 138 q 775 156 807 138 q 726 210 743 174 q 706 300 708 247 l 679 275 l 1194 275 q 1197 297 1196 282 q 1197 329 1197 313 q 1160 503 1197 431 q 1052 614 1122 575 q 883 653 982 653 q 762 635 818 653 q 663 584 706 618 q 590 500 619 550 l 607 500 q 542 618 597 579 q 385 657 486 657 q 242 639 314 657 q 93 585 169 621 l 163 442 q 225 469 189 457 q 299 490 261 482 q 368 497 338 497 q 451 470 422 497 q 479 392 479 443 l 479 313 l 579 313 q 431 371 490 356 q 310 386 371 386 q 166 360 228 386 q 69 288 104 335 q 35 178 35 240 q 105 37 35 88 q 301 -14 175 -14 m 336 124 q 267 140 289 124 q 246 192 246 157 q 258 237 246 218 q 296 265 271 256 q 360 274 321 274 q 437 263 399 274 q 508 233 475 253 l 478 271 l 485 186 l 486 260 q 444 158 481 192 q 336 124 407 124 m 704 328 q 721 428 704 388 q 769 491 738 469 q 847 513 801 513 q 916 496 888 513 q 959 447 944 479 q 974 369 974 414 q 974 360 974 363 q 971 347 974 357 l 1003 392 l 679 392 l 704 328 z "},"ð":{"ha":869,"x_min":69,"x_max":801,"o":"m 431 -21 q 578 6 511 -21 q 696 82 646 32 q 774 197 746 132 q 801 343 801 263 q 783 469 801 403 q 728 604 765 535 q 638 747 692 674 q 511 897 583 819 q 349 1057 439 975 l 193 953 q 325 844 264 899 q 438 731 386 789 q 534 610 490 672 q 614 479 578 547 l 674 478 q 531 613 608 568 q 363 658 453 658 q 244 635 299 658 q 150 569 189 611 q 90 470 111 528 q 69 343 69 413 q 116 154 69 238 q 244 25 163 71 q 431 -21 326 -21 m 435 161 q 358 183 392 161 q 306 240 325 204 q 288 319 288 275 q 299 384 288 354 q 330 435 310 414 q 377 469 350 457 q 436 481 404 481 q 511 460 478 481 q 564 402 544 439 q 583 319 583 365 q 572 256 583 285 q 541 206 561 228 q 494 173 521 185 q 435 161 468 161 m 215 704 l 701 860 l 678 936 l 194 781 l 215 704 z "},"ø":{"ha":758,"x_min":44,"x_max":775,"o":"m 44 319 q 93 140 44 213 q 224 26 142 67 q 410 -14 307 -14 q 595 26 513 -14 q 726 140 678 67 q 775 319 775 213 q 726 499 775 425 q 595 613 678 574 q 410 653 513 653 q 224 613 307 653 q 93 499 142 574 q 44 319 44 425 m 243 319 q 266 406 243 369 q 327 466 289 443 q 410 489 365 489 q 492 466 456 489 q 551 406 529 443 q 574 319 574 369 q 551 228 574 267 q 492 171 529 190 q 410 151 456 151 q 327 171 365 151 q 266 228 289 190 q 243 319 243 267 m 635 703 l 93 -25 l 171 -68 l 713 660 l 635 703 z "},"þ":{"ha":857,"x_min":81,"x_max":813,"o":"m 290 -306 l 290 1083 l 81 1083 l 81 -306 l 290 -306 m 813 319 q 769 502 813 428 q 656 615 725 576 q 508 653 586 653 q 399 630 449 653 q 312 564 349 607 q 253 459 275 521 q 232 319 232 397 q 253 180 232 242 q 312 75 275 118 q 399 9 349 32 q 508 -14 449 -14 q 656 24 586 -14 q 769 138 725 63 q 813 319 813 213 m 590 319 q 569 233 590 269 q 515 176 549 196 q 439 156 481 156 q 386 167 413 156 q 338 199 360 178 q 303 250 317 219 q 290 321 290 281 q 303 389 290 360 q 338 440 317 418 q 386 472 360 461 q 439 483 413 483 q 515 463 481 483 q 569 406 549 443 q 590 319 590 369 z "},"đ":{"ha":857,"x_min":44,"x_max":904,"o":"m 410 785 l 904 785 l 904 924 l 410 924 l 410 785 m 567 1083 l 567 0 l 776 0 l 776 1083 l 567 1083 m 44 319 q 88 138 44 213 q 199 24 131 63 q 347 -14 268 -14 q 458 9 407 -14 q 546 75 508 32 q 604 180 583 118 q 625 319 625 242 q 604 459 625 397 q 546 564 583 521 q 458 630 508 607 q 347 653 407 653 q 199 615 268 653 q 88 502 131 576 q 44 319 44 428 m 265 319 q 286 406 265 369 q 342 463 307 443 q 418 483 376 483 q 470 472 443 483 q 519 440 497 461 q 553 388 540 418 q 567 321 567 358 q 553 251 567 281 q 519 199 540 221 q 471 167 497 178 q 419 156 444 156 q 342 176 376 156 q 286 233 307 196 q 265 319 265 269 z "},"ħ":{"ha":789,"x_min":7,"x_max":707,"o":"m 293 1083 l 81 1083 l 81 0 l 293 0 l 293 1083 m 497 389 l 497 0 l 707 0 l 707 419 q 685 553 707 499 q 615 635 664 607 q 488 664 567 664 q 358 626 408 664 q 282 527 307 589 q 257 389 257 465 l 293 389 q 307 453 293 428 q 346 492 321 479 q 404 506 371 506 q 459 492 439 506 q 488 453 479 479 q 497 389 497 426 m 7 829 l 468 829 l 468 1013 l 7 1013 l 7 829 z "},"ı":{"ha":385,"x_min":89,"x_max":293,"o":"m 89 639 l 89 0 l 293 0 l 293 639 l 89 639 z "},"ĳ":{"ha":757,"x_min":69,"x_max":688,"o":"m 444 878 q 479 797 444 828 q 565 767 514 767 q 652 797 617 767 q 688 878 688 828 q 652 960 688 928 q 565 992 617 992 q 479 960 514 992 q 444 878 444 928 m 332 -106 l 247 -261 q 285 -292 263 -275 q 343 -320 308 -308 q 425 -332 378 -332 q 558 -303 506 -332 q 638 -223 611 -275 q 665 -100 665 -171 l 665 639 l 465 639 l 465 -46 q 458 -101 465 -79 q 435 -131 450 -122 q 399 -140 419 -140 q 372 -137 385 -140 q 351 -127 360 -135 q 332 -106 342 -119 m 69 878 q 104 797 69 828 q 192 767 139 767 q 278 797 243 767 q 314 878 314 828 q 278 960 314 928 q 192 992 243 992 q 104 960 139 992 q 69 878 69 928 m 89 639 l 89 0 l 293 0 l 293 639 l 89 639 z "},"ĸ":{"ha":803,"x_min":81,"x_max":793,"o":"m 81 639 l 81 0 l 282 0 l 282 639 l 81 639 m 515 639 l 243 375 l 546 0 l 793 0 l 492 375 l 765 639 l 515 639 z "},"ŀ":{"ha":663,"x_min":81,"x_max":613,"o":"m 81 1083 l 81 0 l 293 0 l 293 1083 l 81 1083 m 351 568 q 368 503 351 532 q 415 457 385 474 q 482 440 446 440 q 550 457 521 440 q 596 503 579 474 q 613 569 613 533 q 596 633 613 604 q 550 678 579 661 q 483 696 521 696 q 415 678 446 696 q 368 633 385 661 q 351 568 351 604 z "},"ł":{"ha":375,"x_min":-64,"x_max":450,"o":"m -11 429 l 450 735 l 396 835 l -64 531 l -11 429 m 81 1083 l 81 0 l 293 0 l 293 1083 l 81 1083 z "},"ŉ":{"ha":1038,"x_min":81,"x_max":956,"o":"m 533 639 l 322 639 l 322 0 l 533 0 l 533 639 m 736 389 l 736 0 l 956 0 l 956 411 q 931 544 956 490 q 857 626 907 599 q 728 654 807 654 q 597 617 649 654 q 518 519 544 581 q 492 382 492 458 l 533 389 q 547 453 533 428 q 585 492 561 479 q 643 506 610 506 q 698 492 678 506 q 727 453 718 479 q 736 389 736 426 m 154 972 l 81 618 l 231 618 l 374 972 l 154 972 z "},"ŋ":{"ha":799,"x_min":81,"x_max":717,"o":"m 458 -332 q 650 -271 583 -332 q 717 -100 717 -210 l 717 411 q 660 594 717 533 q 488 654 604 654 q 373 626 422 654 q 293 544 324 597 l 293 639 l 81 639 l 81 0 l 293 0 l 293 385 q 307 451 293 424 q 346 492 321 478 q 404 506 371 506 q 475 478 453 506 q 497 389 497 450 l 497 -46 q 480 -117 497 -93 q 431 -140 463 -140 q 365 -106 392 -140 l 281 -261 q 365 -315 321 -297 q 458 -332 408 -332 z "},"œ":{"ha":1250,"x_min":49,"x_max":1203,"o":"m 979 347 l 979 319 l 1199 275 q 1201 300 1200 283 q 1201 325 1201 317 q 1161 499 1201 426 q 1056 613 1121 572 q 914 653 990 653 q 766 619 832 653 q 658 526 700 586 q 603 388 617 467 q 599 354 600 371 q 597 319 597 338 q 635 148 597 224 q 740 29 672 72 q 893 -14 807 -14 q 1022 12 963 -14 q 1128 81 1082 38 q 1203 175 1175 124 l 1017 221 q 952 158 989 183 q 860 133 915 133 q 781 156 814 133 q 731 219 749 178 q 714 319 714 260 l 717 361 q 736 447 717 414 q 788 496 756 479 q 857 513 819 513 q 926 492 899 513 q 966 436 953 472 q 979 347 979 400 m 668 275 l 1199 275 l 1172 390 l 668 390 l 668 275 m 49 319 q 92 142 49 217 q 207 26 135 67 q 365 -14 279 -14 q 516 26 453 -14 q 613 142 579 67 q 647 319 647 217 q 613 498 647 424 q 516 613 579 572 q 365 653 453 653 q 207 613 279 653 q 92 498 135 572 q 49 319 49 424 m 257 319 q 278 407 257 371 q 331 461 299 443 q 406 479 364 479 q 478 461 446 479 q 526 407 510 443 q 543 319 543 371 q 526 233 543 269 q 478 178 510 196 q 406 160 446 160 q 331 178 364 160 q 278 233 299 196 q 257 319 257 269 z "},"ŧ":{"ha":442,"x_min":7,"x_max":435,"o":"m 26 185 l 322 185 l 322 368 l 26 368 l 26 185 m 7 639 l 7 465 l 435 465 l 435 639 l 7 639 m 119 861 l 119 0 l 322 0 l 322 861 l 119 861 z "},"ƒ":{"ha":833,"x_min":89,"x_max":760,"o":"m 268 -278 q 387 -249 335 -278 q 469 -169 439 -221 q 501 -47 499 -117 l 528 465 l 653 465 l 664 639 l 538 639 l 551 821 q 571 892 554 865 q 615 918 588 918 q 644 910 629 918 q 679 883 660 903 l 760 1032 q 667 1089 708 1072 q 582 1104 626 1106 q 465 1077 517 1106 q 383 997 414 1049 q 347 874 353 944 l 336 639 l 244 639 l 232 465 l 328 465 l 299 6 q 278 -65 296 -37 q 233 -92 260 -92 q 205 -83 219 -92 q 171 -56 190 -75 l 89 -204 q 183 -260 142 -243 q 268 -278 224 -278 z "},"ȷ":{"ha":376,"x_min":-131,"x_max":288,"o":"m -47 -106 l -131 -261 q -92 -292 -115 -275 q -36 -320 -69 -308 q 46 -332 -3 -332 q 180 -303 126 -332 q 260 -223 233 -275 q 288 -100 288 -171 l 288 639 l 85 639 l 85 -46 q 77 -101 85 -79 q 54 -131 69 -122 q 18 -140 39 -140 q -17 -133 0 -140 q -47 -106 -33 -125 z "},"μ":{"ha":792,"x_min":81,"x_max":717,"o":"m 303 639 l 81 639 l 81 -444 l 285 -444 l 285 22 q 332 0 310 6 q 376 -6 354 -6 q 452 17 418 -6 q 507 74 486 40 l 507 0 l 717 0 l 717 639 l 507 639 l 507 285 q 492 222 507 247 q 453 183 478 197 q 394 168 428 168 q 342 182 363 168 q 312 222 321 196 q 303 285 303 249 l 303 639 z "},"π":{"ha":836,"x_min":42,"x_max":781,"o":"m 125 597 l 125 0 l 322 0 l 322 597 l 125 597 m 42 639 l 42 465 l 781 465 l 781 639 l 42 639 m 472 597 l 472 168 q 490 69 472 104 q 542 15 508 33 q 628 -8 576 -3 q 744 -12 679 -12 l 744 151 q 707 157 724 151 q 680 183 690 163 q 669 249 669 203 l 669 597 l 472 597 z "},"а":{"ha":757,"x_min":35,"x_max":682,"o":"m 246 192 q 259 235 246 215 q 297 264 272 254 q 360 274 322 274 q 451 261 413 274 q 525 221 490 249 l 525 319 q 478 350 511 335 q 402 376 446 365 q 310 386 358 386 q 164 363 226 386 q 68 292 101 339 q 35 182 35 246 q 65 76 35 119 q 146 9 94 32 q 265 -14 197 -14 q 385 9 332 -14 q 470 76 439 32 q 501 181 501 119 l 479 258 q 459 178 479 207 q 407 136 439 149 q 336 124 375 124 q 291 131 311 124 q 258 154 271 139 q 246 192 246 169 m 163 442 q 208 464 178 451 q 281 487 239 476 q 368 497 322 497 q 427 486 403 497 q 465 456 451 475 q 479 408 479 436 l 479 0 l 682 0 l 682 451 q 660 538 682 500 q 597 603 638 576 q 503 643 557 629 q 385 657 449 657 q 223 634 299 657 q 93 585 147 611 l 163 442 z "},"б":{"ha":844,"x_min":49,"x_max":797,"o":"m 432 481 q 507 461 474 481 q 560 406 540 442 q 581 319 581 369 q 560 235 581 271 q 506 179 540 199 q 432 160 472 160 q 356 179 390 160 q 301 235 321 199 q 281 319 281 271 l 49 403 q 98 172 49 265 q 234 33 147 79 q 432 -14 321 -14 q 624 29 542 -14 q 752 148 707 72 q 797 319 797 224 q 753 492 797 417 q 630 610 708 567 q 449 653 551 653 l 432 481 m 188 319 l 281 319 q 293 388 281 358 q 327 439 306 418 q 376 470 349 460 q 432 481 403 481 l 449 653 q 341 630 389 653 q 258 564 293 607 q 206 459 224 521 q 188 319 188 397 m 49 403 l 267 322 l 233 472 q 243 572 233 525 q 277 660 253 619 q 344 735 301 701 q 450 794 386 769 q 587 867 526 822 q 685 967 647 911 q 731 1083 724 1022 l 528 1083 q 467 996 518 1033 q 322 919 417 958 q 188 838 240 886 q 104 725 135 789 q 61 581 74 661 q 49 403 49 500 z "},"в":{"ha":728,"x_min":104,"x_max":688,"o":"m 226 333 l 226 258 l 411 258 q 448 253 433 258 q 472 240 463 249 q 485 219 481 231 q 489 196 489 208 q 472 151 489 171 q 411 132 454 132 l 226 132 l 226 0 l 482 0 q 640 51 592 0 q 688 174 688 101 q 657 271 688 236 q 574 319 626 306 q 454 333 521 333 l 226 333 m 226 306 l 440 306 q 549 323 500 306 q 629 376 599 340 q 660 465 660 411 q 629 566 660 528 q 549 622 599 604 q 440 639 500 639 l 226 639 l 226 507 l 397 507 q 432 499 418 507 q 453 478 446 492 q 461 447 461 464 q 457 425 461 436 q 444 406 453 414 q 424 394 435 399 q 397 389 413 389 l 226 389 l 226 306 m 104 639 l 104 0 l 307 0 l 307 639 l 104 639 z "},"г":{"ha":497,"x_min":85,"x_max":494,"o":"m 85 639 l 85 0 l 292 0 l 292 465 l 494 465 l 494 639 l 85 639 z "},"ѓ":{"ha":497,"x_min":85,"x_max":540,"o":"m 85 639 l 85 0 l 292 0 l 292 465 l 494 465 l 494 639 l 85 639 m 540 946 l 379 1018 l 171 796 l 290 738 l 540 946 z "},"д":{"ha":979,"x_min":56,"x_max":917,"o":"m 488 388 l 639 42 l 842 85 l 488 688 l 132 85 l 333 42 l 488 388 m 719 0 l 719 -125 l 917 -125 l 917 165 l 56 165 l 56 -125 l 261 -125 l 261 0 l 719 0 z "},"е":{"ha":799,"x_min":44,"x_max":751,"o":"m 163 275 l 747 275 q 749 306 750 292 q 749 329 749 321 q 709 503 749 431 q 593 614 669 575 q 404 653 517 653 q 226 619 300 653 q 108 526 151 586 q 50 388 64 467 q 46 354 47 371 q 44 319 44 338 q 87 148 44 224 q 210 29 129 72 q 408 -14 292 -14 q 565 10 500 -14 q 674 76 629 33 q 751 175 719 118 l 563 221 q 524 176 547 194 q 472 147 501 157 q 404 138 442 138 q 330 156 364 138 q 276 214 296 174 q 257 319 257 254 l 260 354 q 277 440 260 404 q 326 494 294 475 q 401 513 358 513 q 464 498 438 513 q 504 457 490 483 q 522 392 518 431 l 163 392 l 163 275 z "},"ѐ":{"ha":799,"x_min":44,"x_max":751,"o":"m 163 275 l 747 275 q 749 306 750 292 q 749 329 749 321 q 709 503 749 431 q 593 614 669 575 q 404 653 517 653 q 226 619 300 653 q 108 526 151 586 q 50 388 64 467 q 46 354 47 371 q 44 319 44 338 q 87 148 44 224 q 210 29 129 72 q 408 -14 292 -14 q 565 10 500 -14 q 674 76 629 33 q 751 175 719 118 l 563 221 q 524 176 547 194 q 472 147 501 157 q 404 138 442 138 q 330 156 364 138 q 276 214 296 174 q 257 319 257 254 l 260 354 q 277 440 260 404 q 326 494 294 475 q 401 513 358 513 q 464 498 438 513 q 504 457 490 483 q 522 392 518 431 l 163 392 l 163 275 m 169 946 l 419 738 l 539 796 l 331 1018 l 169 946 z "},"ё":{"ha":799,"x_min":44,"x_max":751,"o":"m 163 275 l 747 275 q 749 306 750 292 q 749 329 749 321 q 709 503 749 431 q 593 614 669 575 q 404 653 517 653 q 226 619 300 653 q 108 526 151 586 q 50 388 64 467 q 46 354 47 371 q 44 319 44 338 q 87 148 44 224 q 210 29 129 72 q 408 -14 292 -14 q 565 10 500 -14 q 674 76 629 33 q 751 175 719 118 l 563 221 q 524 176 547 194 q 472 147 501 157 q 404 138 442 138 q 330 156 364 138 q 276 214 296 174 q 257 319 257 254 l 260 354 q 277 440 260 404 q 326 494 294 475 q 401 513 358 513 q 464 498 438 513 q 504 457 490 483 q 522 392 518 431 l 163 392 l 163 275 m 451 850 q 487 769 451 800 q 574 738 522 738 q 660 769 625 738 q 696 850 696 800 q 660 933 696 900 q 574 965 625 965 q 487 933 522 965 q 451 850 451 900 m 113 850 q 148 769 113 800 q 235 738 183 738 q 322 769 286 738 q 357 850 357 800 q 322 933 357 900 q 235 965 286 965 q 148 933 183 965 q 113 850 113 900 z "},"ж":{"ha":1224,"x_min":0,"x_max":1224,"o":"m 953 639 l 675 375 l 981 0 l 1224 0 l 922 369 l 1196 639 l 953 639 m 711 639 l 513 639 l 513 0 l 711 0 l 711 639 m 271 639 l 28 639 l 303 369 l 0 0 l 243 0 l 549 375 l 271 639 z "},"з":{"ha":744,"x_min":83,"x_max":683,"o":"m 378 319 q 534 333 472 315 q 626 387 596 351 q 656 469 656 422 q 621 564 656 522 q 526 629 586 606 q 390 653 467 653 q 247 624 308 653 q 153 545 186 596 q 119 426 119 494 l 311 426 q 322 465 313 449 q 350 490 332 481 q 392 499 368 499 q 428 492 413 499 q 453 474 443 486 q 463 443 463 461 q 442 400 463 417 q 378 383 422 383 l 378 319 m 389 -14 q 540 10 474 -14 q 644 81 606 35 q 683 186 683 126 q 647 284 683 243 q 543 345 611 325 q 378 361 475 365 l 378 281 q 438 272 415 281 q 474 248 461 264 q 486 210 486 232 q 474 169 486 186 q 438 145 461 153 q 386 138 415 138 q 321 158 347 138 q 283 219 294 179 l 83 219 q 172 50 94 114 q 389 -14 250 -14 z "},"и":{"ha":822,"x_min":85,"x_max":738,"o":"m 731 458 l 738 688 l 92 181 l 85 -49 l 731 458 m 288 639 l 85 639 l 85 -49 l 288 147 l 288 639 m 738 688 l 535 492 l 535 0 l 738 0 l 738 688 z "},"й":{"ha":822,"x_min":85,"x_max":738,"o":"m 731 458 l 738 688 l 92 181 l 85 -49 l 731 458 m 288 639 l 85 639 l 85 -49 l 288 147 l 288 639 m 738 688 l 535 492 l 535 0 l 738 0 l 738 688 m 193 965 q 220 861 193 907 q 298 790 247 815 q 421 764 349 764 q 545 790 494 764 q 622 861 596 815 q 649 965 649 907 l 511 965 q 500 923 511 942 q 469 894 489 904 q 421 885 449 885 q 374 894 394 885 q 342 923 353 904 q 331 965 331 942 l 193 965 z "},"ѝ":{"ha":822,"x_min":85,"x_max":738,"o":"m 731 458 l 738 688 l 92 181 l 85 -49 l 731 458 m 288 639 l 85 639 l 85 -49 l 288 147 l 288 639 m 738 688 l 535 492 l 535 0 l 738 0 l 738 688 m 183 979 l 433 771 l 550 831 l 342 1053 l 183 979 z "},"к":{"ha":803,"x_min":81,"x_max":793,"o":"m 81 639 l 81 0 l 282 0 l 282 639 l 81 639 m 515 639 l 243 375 l 546 0 l 793 0 l 492 375 l 765 639 l 515 639 z "},"ќ":{"ha":611,"x_min":81,"x_max":793,"o":"m 81 639 l 81 0 l 282 0 l 282 639 l 81 639 m 515 639 l 243 375 l 546 0 l 793 0 l 492 375 l 765 639 l 515 639 m 672 946 l 513 1018 l 304 796 l 422 738 l 672 946 z "},"л":{"ha":865,"x_min":14,"x_max":756,"o":"m 756 639 l 115 639 l 115 276 q 85 205 115 221 q 14 189 56 189 l 14 0 q 197 24 129 0 q 291 98 264 49 q 318 222 318 147 l 318 447 l 553 447 l 553 0 l 756 0 l 756 639 z "},"м":{"ha":913,"x_min":7,"x_max":906,"o":"m 694 0 l 906 0 l 713 688 l 607 438 l 694 0 m 413 183 l 454 -43 l 726 406 l 713 688 l 413 183 m 454 -43 l 496 183 l 200 688 l 186 406 l 454 -43 m 7 0 l 219 0 l 306 438 l 200 688 l 7 0 z "},"н":{"ha":854,"x_min":81,"x_max":772,"o":"m 146 258 l 665 258 l 665 415 l 146 415 l 146 258 m 569 639 l 569 0 l 772 0 l 772 639 l 569 639 m 81 639 l 81 0 l 285 0 l 285 639 l 81 639 z "},"о":{"ha":818,"x_min":44,"x_max":775,"o":"m 44 319 q 92 144 44 219 q 223 28 140 69 q 410 -14 306 -14 q 597 28 515 -14 q 727 144 679 69 q 775 319 775 219 q 727 495 775 421 q 597 612 679 569 q 411 654 515 654 q 224 613 307 654 q 92 496 140 571 q 44 319 44 421 m 261 319 q 281 405 261 369 q 335 460 301 440 q 411 481 369 481 q 485 460 451 481 q 538 404 518 440 q 557 321 557 368 q 538 235 557 271 q 485 179 518 199 q 410 160 451 160 q 335 179 369 160 q 281 235 301 199 q 261 319 261 272 z "},"п":{"ha":799,"x_min":81,"x_max":717,"o":"m 717 639 l 81 639 l 81 0 l 285 0 l 285 457 l 514 457 l 514 0 l 717 0 l 717 639 z "},"р":{"ha":857,"x_min":81,"x_max":813,"o":"m 290 -306 l 290 639 l 81 639 l 81 -306 l 290 -306 m 813 318 q 769 508 813 432 q 656 623 725 585 q 508 661 586 661 q 396 637 446 661 q 311 567 346 613 q 258 460 276 522 q 240 319 240 397 q 258 179 240 242 q 311 72 276 117 q 396 3 346 26 q 508 -21 446 -21 q 656 17 586 -21 q 769 131 725 56 q 813 318 813 206 m 590 319 q 569 235 590 269 q 515 182 549 200 q 439 164 481 164 q 386 174 413 164 q 338 203 360 183 q 303 251 317 222 q 290 319 290 281 q 303 388 290 358 q 338 437 317 417 q 386 466 360 457 q 439 475 413 475 q 515 457 481 475 q 569 404 549 439 q 590 319 590 369 z "},"с":{"ha":685,"x_min":42,"x_max":618,"o":"m 260 319 q 283 403 260 367 q 344 463 306 440 q 429 485 382 485 q 500 474 464 485 q 567 443 536 464 q 618 392 599 422 l 618 597 q 534 638 585 622 q 411 653 483 653 q 221 611 304 653 q 90 495 138 569 q 42 319 42 421 q 90 144 42 219 q 221 28 138 69 q 411 -14 304 -14 q 534 2 483 -14 q 618 44 585 18 l 618 249 q 569 197 599 218 q 503 166 539 176 q 429 156 468 156 q 344 176 382 156 q 283 232 306 196 q 260 319 260 268 z "},"т":{"ha":463,"x_min":7,"x_max":456,"o":"m 7 639 l 7 465 l 456 465 l 456 639 l 7 639 m 132 611 l 132 0 l 332 0 l 332 611 l 132 611 z "},"у":{"ha":724,"x_min":-12,"x_max":738,"o":"m 738 639 l 521 639 l 317 128 l 425 126 l 219 639 l -12 639 l 264 51 l 110 -306 l 321 -306 l 738 639 z "},"ў":{"ha":611,"x_min":-12,"x_max":738,"o":"m 738 639 l 521 639 l 317 128 l 425 126 l 219 639 l -12 639 l 264 51 l 110 -306 l 321 -306 l 738 639 m 133 942 q 161 838 133 883 q 240 765 189 792 q 363 738 290 738 q 487 765 436 738 q 564 838 538 792 q 590 942 590 883 l 453 942 q 442 898 453 917 q 412 869 432 879 q 363 858 392 858 q 315 869 336 858 q 283 898 294 879 q 272 942 272 917 l 133 942 z "},"ф":{"ha":926,"x_min":44,"x_max":883,"o":"m 364 778 l 364 -139 l 563 -139 l 563 778 l 364 778 m 44 319 q 94 144 44 219 q 239 28 144 69 q 464 -14 333 -14 q 690 28 597 -14 q 833 144 782 69 q 883 319 883 219 q 833 496 883 421 q 690 613 782 571 q 464 654 597 654 q 239 613 333 654 q 94 496 144 571 q 44 319 44 421 m 235 319 q 258 406 235 369 q 333 461 282 442 q 464 481 383 481 q 594 461 544 481 q 669 406 644 442 q 693 319 693 369 q 669 235 693 271 q 594 179 644 199 q 464 160 544 160 q 333 179 383 160 q 258 235 282 199 q 235 319 235 271 z "},"х":{"ha":739,"x_min":0,"x_max":739,"o":"m 492 639 l 374 471 l 257 639 l 14 639 l 263 328 l 0 0 l 243 0 l 374 185 l 506 0 l 739 0 l 481 328 l 725 639 l 492 639 z "},"ц":{"ha":863,"x_min":81,"x_max":836,"o":"m 725 174 l 725 639 l 514 639 l 514 174 l 293 174 l 293 639 l 81 639 l 81 0 l 639 0 l 639 -142 l 836 -142 l 836 174 l 725 174 z "},"ч":{"ha":760,"x_min":69,"x_max":669,"o":"m 319 160 l 538 160 l 538 335 l 381 335 l 319 160 m 458 639 l 458 0 l 669 0 l 669 639 l 458 639 m 281 639 l 69 639 l 69 456 q 92 296 69 363 q 169 194 114 229 q 319 160 224 160 l 381 335 q 324 344 346 335 q 291 378 301 354 q 281 439 281 401 l 281 639 z "},"ш":{"ha":1161,"x_min":81,"x_max":1081,"o":"m 682 174 l 682 639 l 481 639 l 481 174 l 285 174 l 285 639 l 81 639 l 81 0 l 1081 0 l 1081 639 l 879 639 l 879 174 l 682 174 z "},"щ":{"ha":1217,"x_min":81,"x_max":1190,"o":"m 682 174 l 682 639 l 481 639 l 481 174 l 285 174 l 285 639 l 81 639 l 81 0 l 993 0 l 993 -142 l 1190 -142 l 1190 174 l 1079 174 l 1079 639 l 876 639 l 876 174 l 682 174 z "},"ъ":{"ha":850,"x_min":7,"x_max":788,"o":"m 354 288 l 515 288 q 570 271 553 288 q 588 225 588 254 q 579 192 588 207 q 555 170 571 178 q 515 163 539 163 l 354 163 l 354 0 l 554 0 q 674 28 621 0 q 757 106 726 56 q 788 225 788 157 q 757 338 788 294 q 674 403 726 382 q 554 424 621 424 l 354 424 l 354 288 m 201 465 l 201 0 l 394 0 l 394 639 l 7 639 l 7 465 l 201 465 z "},"ы":{"ha":1060,"x_min":81,"x_max":978,"o":"m 767 639 l 767 0 l 978 0 l 978 639 l 767 639 m 81 639 l 81 0 l 293 0 l 293 639 l 81 639 m 247 288 l 408 288 q 448 280 432 288 q 474 258 464 272 q 483 226 483 244 q 474 192 483 207 q 448 170 464 178 q 408 163 432 163 l 247 163 l 247 0 l 446 0 q 565 28 513 0 q 649 106 618 56 q 679 225 679 157 q 649 338 679 294 q 565 403 618 382 q 446 424 513 424 l 247 424 l 247 288 z "},"ь":{"ha":757,"x_min":92,"x_max":689,"o":"m 92 639 l 92 0 l 303 0 l 303 639 l 92 639 m 256 288 l 418 288 q 458 280 442 288 q 482 258 474 272 q 490 226 490 244 q 482 192 490 207 q 458 170 474 178 q 418 163 442 163 l 256 163 l 256 0 l 456 0 q 575 28 522 0 q 658 106 628 56 q 689 225 689 157 q 658 338 689 294 q 575 403 628 382 q 456 424 522 424 l 256 424 l 256 288 z "},"э":{"ha":685,"x_min":69,"x_max":646,"o":"m 156 389 l 156 250 l 528 250 l 564 389 l 156 389 m 428 319 q 405 213 428 256 q 342 149 382 169 q 257 128 303 128 q 183 139 218 128 q 118 171 147 150 q 69 222 89 192 l 69 44 q 152 2 103 18 q 275 -14 201 -14 q 465 28 382 -14 q 597 144 549 69 q 646 319 646 219 q 597 495 646 421 q 465 611 549 569 q 275 653 382 653 q 152 638 201 653 q 69 597 103 622 l 69 417 q 119 468 89 447 q 187 500 150 489 q 257 511 224 511 q 342 488 303 511 q 405 423 382 465 q 428 319 428 381 z "},"ю":{"ha":1140,"x_min":81,"x_max":1096,"o":"m 146 258 l 524 258 l 524 415 l 146 415 l 146 258 m 81 639 l 81 0 l 285 0 l 285 639 l 81 639 m 365 319 q 413 144 365 219 q 543 28 460 69 q 731 -14 626 -14 q 918 28 836 -14 q 1048 144 1000 69 q 1096 319 1096 219 q 1048 495 1096 421 q 918 612 1000 569 q 731 654 836 654 q 543 612 626 654 q 413 495 460 569 q 365 319 365 421 m 582 319 q 602 405 582 369 q 656 460 622 440 q 732 481 690 481 q 807 460 774 481 q 860 404 840 440 q 879 321 879 368 q 859 235 879 271 q 806 179 839 199 q 731 160 772 160 q 656 179 690 160 q 602 235 622 199 q 582 319 582 272 z "},"я":{"ha":757,"x_min":56,"x_max":701,"o":"m 274 0 l 450 290 l 250 290 l 56 0 l 274 0 m 701 0 l 701 639 l 490 639 l 490 0 l 701 0 m 563 369 l 394 369 q 349 374 368 369 q 321 390 331 379 q 311 421 311 401 q 321 451 311 440 q 349 467 331 461 q 394 472 368 472 l 563 472 l 563 639 l 364 639 q 239 619 299 639 q 142 556 179 600 q 104 439 104 511 q 142 319 104 367 q 239 251 179 272 q 364 229 299 229 l 563 229 l 563 369 z "},"ˆ":{"ha":667,"x_min":57,"x_max":610,"o":"m 333 872 l 460 757 l 610 854 l 333 1049 l 57 854 l 207 757 l 333 872 z "},"ˇ":{"ha":667,"x_min":57,"x_max":610,"o":"m 333 939 l 207 1058 l 57 960 l 333 765 l 610 960 l 460 1058 l 333 939 z "},"ª":{"ha":375,"x_min":25,"x_max":347,"o":"m 131 736 q 146 768 131 756 q 186 781 161 781 q 233 774 214 781 q 269 753 251 768 l 269 804 q 229 826 260 815 q 163 838 199 838 q 65 810 104 838 q 25 733 25 782 q 58 659 25 686 q 140 632 90 632 q 224 658 190 632 q 258 729 258 683 l 247 768 q 226 716 247 731 q 176 701 204 701 q 142 710 154 701 q 131 736 131 719 m 89 868 q 128 885 100 875 q 192 896 157 896 q 233 883 218 896 q 247 849 247 869 l 247 639 l 347 639 l 347 876 q 306 953 347 926 q 200 979 265 979 q 119 967 157 979 q 53 943 81 956 l 89 868 z "},"º":{"ha":386,"x_min":26,"x_max":393,"o":"m 26 804 q 78 685 26 731 q 208 639 129 639 q 304 660 263 639 q 369 718 346 681 q 393 806 393 756 q 369 893 393 856 q 303 951 344 931 q 208 972 263 972 q 115 951 156 972 q 50 893 74 931 q 26 804 26 856 m 133 806 q 144 849 133 831 q 172 876 156 867 q 210 886 189 886 q 261 865 239 886 q 283 806 283 843 q 273 763 283 782 q 246 735 263 744 q 208 726 229 726 q 156 747 178 726 q 133 806 133 768 z "},"̀":{"ha":0,"x_min":0,"x_max":369,"o":"m 250 744 l 369 803 l 161 1025 l 0 953 l 250 744 z "},"́":{"ha":0,"x_min":21,"x_max":390,"o":"m 140 750 l 390 958 l 229 1029 l 21 807 l 140 750 z "},"̂":{"ha":0,"x_min":0,"x_max":476,"o":"m 93 764 l 263 904 l 213 904 l 385 764 l 476 882 l 239 1051 l 0 882 l 93 764 z "},"̃":{"ha":0,"x_min":0,"x_max":544,"o":"m 100 800 q 108 833 100 817 q 134 859 117 849 q 174 869 151 869 q 217 858 197 869 q 256 832 236 846 q 298 807 275 818 q 351 796 321 796 q 429 815 389 796 q 501 863 469 835 q 544 917 533 892 l 449 1018 q 401 965 425 985 q 347 944 376 944 q 303 956 321 944 q 269 981 285 967 q 233 1006 254 994 q 175 1018 213 1018 q 98 999 136 1018 q 34 950 60 979 q 0 886 8 921 l 100 800 z "},"̄":{"ha":0,"x_min":0,"x_max":517,"o":"m 0 786 l 517 786 l 517 938 l 0 938 l 0 786 z "},"̆":{"ha":0,"x_min":0,"x_max":456,"o":"m 229 758 q 347 783 296 758 q 427 855 399 808 q 456 961 456 901 l 294 961 q 286 919 294 938 q 263 890 278 900 q 228 879 249 879 q 193 890 208 879 q 169 919 178 900 q 161 961 161 938 l 0 961 q 28 855 0 901 q 109 783 57 808 q 229 758 161 758 z "},"̇":{"ha":0,"x_min":0,"x_max":244,"o":"m 122 738 q 210 772 175 738 q 244 853 244 806 q 210 935 244 901 q 122 968 175 968 q 35 935 71 968 q 0 853 0 901 q 35 772 0 806 q 122 738 71 738 z "},"̈":{"ha":0,"x_min":0,"x_max":583,"o":"m 124 764 q 211 795 178 764 q 244 876 244 826 q 210 960 244 929 q 122 992 176 992 q 33 960 67 992 q 0 878 0 929 q 34 795 0 826 q 124 764 68 764 m 461 764 q 550 795 517 764 q 583 876 583 826 q 550 960 583 929 q 461 992 517 992 q 372 960 406 992 q 339 878 339 929 q 372 795 339 826 q 461 764 406 764 z "},"̊":{"ha":0,"x_min":0,"x_max":358,"o":"m 178 722 q 270 744 229 722 q 335 803 311 765 q 358 888 358 840 q 335 973 358 935 q 270 1033 311 1011 q 179 1054 229 1054 q 86 1033 126 1054 q 23 973 46 1011 q 0 889 0 935 q 51 769 0 817 q 178 722 103 722 m 179 819 q 131 839 149 819 q 113 888 113 858 q 131 938 113 919 q 179 957 149 957 q 226 938 207 957 q 246 889 246 918 q 226 840 246 860 q 179 819 206 819 z "},"̋":{"ha":0,"x_min":0,"x_max":589,"o":"m 129 726 l 329 981 l 158 1022 l 0 761 l 129 726 m 388 726 l 589 981 l 417 1022 l 260 761 l 388 726 z "},"̌":{"ha":0,"x_min":0,"x_max":476,"o":"m 239 764 l 476 936 l 385 1051 l 213 911 l 263 911 l 93 1051 l 0 936 l 239 764 z "},"̒":{"ha":0,"x_min":0,"x_max":333,"o":"m 211 692 l 333 1050 l 176 1083 l 0 736 l 211 692 z "},"̦":{"ha":0,"x_min":0,"x_max":282,"o":"m 114 -286 l 282 -85 l 131 -28 l 0 -244 l 114 -286 z "},"̧":{"ha":0,"x_min":0,"x_max":338,"o":"m 175 -300 q 258 -281 222 -300 q 316 -228 294 -261 q 338 -154 338 -196 q 309 -75 338 -108 q 236 -42 281 -42 q 168 -47 200 -42 q 113 -60 136 -51 l 186 -79 l 272 94 l 151 99 l 57 -114 q 103 -111 79 -111 q 144 -111 128 -111 q 193 -121 178 -111 q 208 -150 208 -131 q 194 -186 208 -172 q 151 -200 181 -200 q 94 -192 124 -200 q 40 -174 65 -185 l 0 -260 q 82 -290 35 -279 q 175 -300 129 -300 z "},"̨":{"ha":0,"x_min":0,"x_max":301,"o":"m 164 -306 q 253 -288 221 -306 q 301 -250 286 -271 l 256 -154 q 224 -175 242 -168 q 186 -182 207 -182 q 149 -169 161 -182 q 138 -131 138 -157 q 150 -86 138 -108 q 188 -42 163 -64 q 249 0 213 -19 l 192 35 q 99 -19 143 10 q 28 -85 56 -49 q 0 -167 0 -121 q 22 -242 0 -211 q 81 -290 43 -274 q 164 -306 118 -306 z "},"０":{"ha":875,"x_min":31,"x_max":842,"o":"m 258 486 q 271 610 258 556 q 307 705 283 665 q 363 767 331 744 q 438 789 396 789 q 497 775 469 789 q 547 735 525 761 q 583 672 568 708 q 606 589 599 636 q 614 486 614 542 q 601 362 614 418 q 565 266 589 306 q 509 205 542 226 q 436 183 476 183 q 377 197 404 183 q 328 238 350 211 q 290 300 306 264 q 267 383 275 336 q 258 486 258 431 m 31 486 q 50 313 31 393 q 105 172 69 233 q 190 69 140 111 q 303 4 240 26 q 438 -18 365 -18 q 604 15 529 -18 q 732 115 679 49 q 813 274 785 181 q 842 485 842 367 q 824 660 842 581 q 771 800 806 739 q 686 903 736 861 q 574 968 636 946 q 438 990 511 990 q 272 957 346 990 q 143 858 197 924 q 60 699 89 792 q 31 486 31 607 z "},"１":{"ha":875,"x_min":153,"x_max":619,"o":"m 153 692 l 392 750 l 392 0 l 619 0 l 619 990 l 153 897 l 153 692 z "},"２":{"ha":875,"x_min":18,"x_max":843,"o":"m 18 0 l 843 0 l 843 215 l 453 215 l 679 419 q 781 536 743 472 q 819 678 819 600 q 797 791 819 735 q 727 892 774 847 q 613 965 681 938 q 454 992 544 992 q 242 940 329 992 q 110 803 154 889 q 65 613 65 717 l 294 613 q 314 704 294 665 q 368 766 333 743 q 447 789 403 789 q 505 778 481 789 q 545 751 529 768 q 569 712 561 733 q 576 667 576 690 q 561 595 576 629 q 518 526 546 561 q 451 449 490 490 l 18 0 z "},"３":{"ha":875,"x_min":64,"x_max":819,"o":"m 379 472 q 540 487 465 472 q 672 532 615 501 q 760 610 728 563 q 792 722 792 658 q 751 857 792 796 q 635 954 711 918 q 449 990 558 990 q 267 950 344 990 q 148 842 190 910 q 106 688 106 775 l 322 688 q 340 747 322 721 q 385 788 357 774 q 449 803 414 803 q 510 790 486 803 q 547 756 535 778 q 558 706 558 735 q 546 656 558 679 q 510 615 533 633 q 453 587 486 597 q 379 576 419 576 l 379 472 m 440 -21 q 644 15 558 -21 q 775 116 731 51 q 819 264 819 181 q 787 393 819 340 q 695 479 754 446 q 556 528 636 513 q 379 544 475 544 l 379 425 q 472 415 433 425 q 535 388 510 406 q 574 344 561 369 q 586 289 586 319 q 568 221 586 247 q 519 181 550 194 q 447 167 488 167 q 373 182 407 167 q 317 229 339 197 q 296 310 296 261 l 64 310 q 90 184 64 243 q 164 78 115 125 q 282 6 213 32 q 440 -21 351 -21 z "},"４":{"ha":875,"x_min":18,"x_max":847,"o":"m 18 171 l 847 171 l 847 372 l 621 372 l 596 342 l 208 342 l 18 171 m 236 242 l 494 632 l 494 236 l 468 221 l 468 0 l 713 0 l 713 972 l 538 972 l 18 171 l 236 242 z "},"５":{"ha":875,"x_min":39,"x_max":821,"o":"m 821 313 q 779 483 821 413 q 670 591 738 553 q 525 629 603 629 q 386 608 451 629 q 267 528 321 586 l 103 411 q 201 449 153 435 q 294 467 250 463 q 375 472 339 472 q 467 458 425 472 q 536 413 510 443 q 563 336 563 383 q 541 258 563 289 q 477 213 519 228 q 375 197 435 197 q 298 210 340 197 q 213 246 256 222 q 129 301 169 269 l 39 108 q 140 46 85 75 q 267 -1 196 17 q 428 -18 339 -18 q 568 1 499 -18 q 694 60 638 21 q 786 163 751 100 q 821 313 821 225 m 410 768 l 801 768 l 801 972 l 238 972 l 103 411 l 331 526 l 410 768 z "},"６":{"ha":875,"x_min":42,"x_max":832,"o":"m 274 343 q 296 428 274 392 q 354 486 318 465 q 438 507 390 507 q 520 486 483 507 q 578 428 557 465 q 599 343 599 392 q 578 256 599 294 q 520 198 557 218 q 438 178 483 178 q 355 198 392 178 q 296 256 318 218 q 274 343 274 294 m 435 968 l 154 613 q 74 488 107 554 q 42 343 42 422 q 95 140 42 222 q 238 19 149 58 q 436 -21 328 -21 q 635 19 546 -21 q 778 140 725 58 q 832 343 832 222 q 806 474 832 415 q 737 573 781 532 q 640 636 693 614 q 532 658 588 658 q 445 646 481 658 q 369 596 410 633 l 418 617 l 732 968 l 435 968 z "},"７":{"ha":875,"x_min":54,"x_max":847,"o":"m 54 753 l 501 753 l 124 0 l 376 0 l 847 972 l 54 972 l 54 753 z "},"８":{"ha":875,"x_min":93,"x_max":818,"o":"m 128 738 q 156 621 128 669 q 233 540 185 572 q 339 491 281 507 q 457 475 397 475 q 574 491 517 475 q 679 540 632 507 q 755 621 726 572 q 783 738 783 669 q 758 847 783 800 q 687 927 732 894 q 582 977 642 960 q 457 994 522 994 q 292 965 367 994 q 173 877 218 935 q 128 738 128 819 m 347 715 q 361 772 347 747 q 400 811 375 797 q 456 825 425 825 q 512 811 488 825 q 549 773 536 797 q 563 717 563 749 q 549 658 563 683 q 510 618 535 632 q 457 604 486 604 q 401 618 426 604 q 362 658 376 632 q 347 715 347 683 m 93 264 q 122 144 93 196 q 201 54 150 92 q 318 -2 253 17 q 457 -21 383 -21 q 593 -2 528 -21 q 709 54 658 17 q 789 144 760 92 q 818 264 818 196 q 785 397 818 343 q 698 484 753 450 q 580 534 643 518 q 457 550 517 550 q 333 534 397 550 q 215 484 269 518 q 127 397 161 450 q 93 264 93 343 m 325 301 q 343 365 325 338 q 391 410 361 393 q 457 426 421 426 q 522 409 492 426 q 569 364 551 392 q 586 300 586 336 q 569 230 586 260 q 522 184 551 200 q 457 168 492 168 q 391 184 421 168 q 343 230 361 200 q 325 301 325 260 z "},"９":{"ha":875,"x_min":42,"x_max":832,"o":"m 599 629 q 578 544 599 582 q 521 486 558 507 q 438 465 483 465 q 354 486 390 465 q 296 544 318 507 q 274 629 274 582 q 296 717 274 679 q 354 774 318 754 q 438 794 390 794 q 521 774 483 794 q 578 717 558 754 q 599 629 599 679 m 439 4 l 719 360 q 800 485 768 418 q 832 629 832 551 q 778 832 832 750 q 635 954 725 914 q 438 994 546 994 q 238 954 328 994 q 95 832 149 914 q 42 629 42 750 q 67 499 42 557 q 137 399 93 440 q 234 336 181 358 q 342 314 288 314 q 430 326 394 314 q 504 376 465 339 l 456 356 l 142 4 l 439 4 z "},"²":{"ha":567,"x_min":35,"x_max":529,"o":"m 35 392 l 529 392 l 529 522 l 296 522 l 431 642 q 492 712 468 672 q 515 797 515 751 q 491 888 515 844 q 418 959 467 931 q 297 988 369 988 q 169 957 221 988 q 90 874 117 926 q 63 760 63 822 l 203 760 q 213 815 203 792 q 244 852 224 839 q 292 865 265 865 q 335 855 318 865 q 361 828 353 844 q 369 790 369 811 q 351 727 369 756 q 294 661 332 699 l 35 392 z "},"³":{"ha":507,"x_min":24,"x_max":479,"o":"m 214 671 q 340 688 283 671 q 429 739 396 706 q 463 822 463 772 q 438 904 463 868 q 367 962 413 940 q 256 983 321 983 q 106 931 164 983 q 49 801 49 879 l 182 801 q 202 852 182 833 q 256 871 222 871 q 306 856 289 871 q 322 813 322 840 q 308 775 322 793 q 270 746 294 757 q 214 735 246 735 l 214 671 m 250 375 q 373 397 322 375 q 451 459 424 419 q 479 549 479 499 q 459 624 479 593 q 403 676 439 656 q 320 706 368 696 q 214 717 272 717 l 214 644 q 285 634 257 644 q 326 605 313 624 q 339 563 339 586 q 315 506 339 522 q 256 489 290 489 q 191 510 218 489 q 164 575 164 532 l 24 575 q 51 478 24 524 q 128 403 78 432 q 250 375 179 375 z "},"¹":{"ha":669,"x_min":185,"x_max":465,"o":"m 185 794 l 329 831 l 329 381 l 465 381 l 465 975 l 185 918 l 185 794 z "},"¼":{"ha":1143,"x_min":35,"x_max":1100,"o":"m 875 972 l 153 0 l 288 0 l 1010 972 l 875 972 m 35 794 l 178 831 l 178 381 l 314 381 l 314 975 l 35 918 l 35 794 m 565 104 l 1100 104 l 1100 224 l 954 224 l 940 206 l 681 206 l 565 104 m 708 146 l 878 379 l 878 143 l 863 135 l 863 0 l 1008 0 l 1008 583 l 904 583 l 565 104 l 708 146 z "},"½":{"ha":1242,"x_min":35,"x_max":1197,"o":"m 875 972 l 153 0 l 288 0 l 1010 972 l 875 972 m 35 794 l 178 831 l 178 381 l 314 381 l 314 975 l 35 918 l 35 794 m 703 3 l 1197 3 l 1197 133 l 964 133 l 1099 253 q 1159 323 1136 283 q 1182 408 1182 363 q 1158 499 1182 456 q 1085 570 1133 542 q 964 599 1036 599 q 835 568 888 599 q 757 485 783 538 q 731 371 731 433 l 869 371 q 881 426 869 403 q 913 463 892 450 q 960 476 933 476 q 1003 466 986 476 q 1029 439 1021 456 q 1038 401 1038 422 q 1018 338 1038 367 q 963 272 999 310 l 703 3 z "},"¾":{"ha":1222,"x_min":36,"x_max":1181,"o":"m 964 972 l 242 0 l 376 0 l 1099 972 l 964 972 m 226 671 q 351 688 296 671 q 440 739 407 706 q 472 822 472 772 q 449 904 472 868 q 380 962 425 940 q 269 983 335 983 q 118 931 175 983 q 61 801 61 879 l 192 801 q 213 852 192 833 q 268 871 233 871 q 317 856 301 871 q 333 813 333 840 q 319 775 333 793 q 281 746 306 757 q 226 735 257 735 l 226 671 m 263 375 q 385 397 335 375 q 462 459 435 419 q 489 549 489 499 q 469 624 489 593 q 415 676 450 656 q 331 706 379 696 q 226 717 283 717 l 226 644 q 296 634 268 644 q 337 605 324 624 q 350 563 350 586 q 326 506 350 522 q 268 489 303 489 q 203 510 231 489 q 175 575 175 532 l 36 575 q 63 478 36 524 q 140 403 90 432 q 263 375 190 375 m 644 104 l 1181 104 l 1181 224 l 1032 224 l 1018 206 l 761 206 l 644 104 m 788 146 l 958 379 l 958 143 l 943 135 l 943 0 l 1089 0 l 1089 583 l 985 583 l 644 104 l 788 146 z "},"⁰":{"ha":542,"x_min":29,"x_max":515,"o":"m 165 682 q 172 755 165 721 q 193 813 179 789 q 228 848 207 836 q 271 860 249 860 q 315 848 294 860 q 348 813 335 836 q 369 755 361 789 q 378 681 378 721 q 369 606 378 639 q 348 549 361 572 q 315 513 335 525 q 272 501 294 501 q 228 513 249 501 q 193 549 207 525 q 172 606 179 572 q 165 682 165 639 m 29 681 q 46 554 29 610 q 96 459 63 499 q 173 399 129 419 q 271 378 217 378 q 372 399 326 378 q 449 459 417 419 q 498 554 481 499 q 515 681 515 610 q 498 808 515 751 q 449 903 481 864 q 372 963 417 942 q 271 983 326 983 q 173 963 217 983 q 96 903 129 942 q 46 808 63 864 q 29 681 29 751 z "},"⁴":{"ha":592,"x_min":22,"x_max":557,"o":"m 22 493 l 557 493 l 557 613 l 410 613 l 396 594 l 138 594 l 22 493 m 164 535 l 336 768 l 336 532 l 319 524 l 319 389 l 465 389 l 465 972 l 361 972 l 22 493 l 164 535 z "},"⁵":{"ha":538,"x_min":35,"x_max":501,"o":"m 501 572 q 476 676 501 633 q 411 742 451 719 q 325 764 371 764 q 242 752 282 764 q 169 703 203 740 l 71 632 q 158 662 115 654 q 235 669 200 669 q 289 661 263 669 q 331 635 315 653 q 347 589 347 618 q 334 542 347 561 q 296 513 321 522 q 235 504 271 504 q 163 522 203 504 q 88 568 124 539 l 35 450 q 130 397 74 419 q 267 375 186 375 q 378 396 324 375 q 467 460 432 417 q 501 572 501 503 m 256 847 l 489 847 l 489 969 l 153 969 l 71 632 l 207 703 l 256 847 z "},"⁶":{"ha":532,"x_min":31,"x_max":506,"o":"m 171 590 q 183 643 171 621 q 218 678 196 665 q 268 690 240 690 q 319 678 297 690 q 353 643 340 665 q 367 590 367 621 q 353 540 367 563 q 318 506 340 517 q 267 494 296 494 q 218 506 240 494 q 183 540 196 518 q 171 590 171 563 m 267 967 l 100 753 q 51 678 71 718 q 31 590 31 638 q 63 471 31 519 q 149 397 94 422 q 268 372 204 372 q 388 397 333 372 q 474 471 442 422 q 506 590 506 519 q 479 692 506 649 q 410 758 453 735 q 325 781 368 781 q 274 774 294 781 q 229 744 253 768 l 257 756 l 446 967 l 267 967 z "},"⁷":{"ha":528,"x_min":31,"x_max":508,"o":"m 31 840 l 301 840 l 74 389 l 226 389 l 508 972 l 31 972 l 31 840 z "},"⁸":{"ha":503,"x_min":31,"x_max":469,"o":"m 51 832 q 81 744 51 781 q 157 691 111 708 q 250 674 203 674 q 344 691 299 674 q 418 744 389 708 q 447 832 447 781 q 421 916 447 881 q 350 969 394 951 q 250 986 306 986 q 152 969 197 986 q 79 916 107 951 q 51 832 51 881 m 185 818 q 193 853 185 839 q 217 876 201 868 q 250 885 232 885 q 297 867 279 885 q 314 818 314 849 q 306 783 314 799 q 284 760 299 768 q 250 751 269 751 q 217 760 232 751 q 193 783 201 768 q 185 818 185 797 m 31 547 q 63 456 31 496 q 144 395 94 415 q 250 375 193 375 q 357 395 307 375 q 438 456 407 415 q 469 547 469 496 q 449 626 469 593 q 396 679 429 658 q 324 710 363 700 q 250 719 286 719 q 176 710 214 719 q 104 679 138 700 q 51 626 71 658 q 31 547 31 593 m 172 568 q 183 607 172 590 q 212 634 193 624 q 250 644 231 644 q 290 634 272 644 q 317 607 307 624 q 326 568 326 590 q 304 510 326 529 q 250 490 282 490 q 195 510 218 490 q 172 568 172 529 z "},"⁹":{"ha":528,"x_min":32,"x_max":510,"o":"m 368 771 q 355 719 368 742 q 319 683 342 696 q 269 671 297 671 q 219 683 242 671 q 185 719 197 696 q 172 771 172 742 q 185 822 172 800 q 219 856 197 844 q 269 867 242 867 q 319 856 297 867 q 355 822 342 844 q 368 771 368 800 m 272 394 l 440 608 q 488 684 467 644 q 510 771 510 724 q 476 891 510 843 q 390 964 443 939 q 269 989 336 989 q 150 964 204 989 q 64 891 96 939 q 32 771 32 843 q 59 669 32 713 q 128 603 86 626 q 213 581 169 581 q 266 588 244 581 q 308 617 288 594 l 282 606 l 92 394 l 272 394 z "},"₀":{"ha":542,"x_min":29,"x_max":515,"o":"m 165 293 q 172 366 165 332 q 193 424 179 400 q 228 459 207 447 q 271 471 249 471 q 315 459 294 471 q 348 424 335 447 q 369 366 361 400 q 378 292 378 332 q 369 217 378 250 q 348 160 361 183 q 315 124 335 136 q 272 113 294 113 q 228 124 249 113 q 193 160 207 136 q 172 217 179 183 q 165 293 165 250 m 29 292 q 46 165 29 221 q 96 70 63 110 q 173 10 129 31 q 271 -11 217 -11 q 372 10 326 -11 q 449 70 417 31 q 498 165 481 110 q 515 292 515 221 q 498 419 515 363 q 449 514 481 475 q 372 574 417 553 q 271 594 326 594 q 173 574 217 594 q 96 514 129 553 q 46 419 63 475 q 29 292 29 363 z "},"₁":{"ha":501,"x_min":125,"x_max":406,"o":"m 125 415 l 269 451 l 269 1 l 406 1 l 406 596 l 125 539 l 125 415 z "},"₂":{"ha":571,"x_min":39,"x_max":533,"o":"m 39 3 l 533 3 l 533 133 l 300 133 l 436 253 q 497 323 474 283 q 519 408 519 363 q 496 499 519 456 q 423 570 472 542 q 301 599 374 599 q 173 568 225 599 q 94 485 121 538 q 67 371 67 433 l 206 371 q 217 426 206 403 q 250 463 229 450 q 297 476 271 476 q 342 466 325 476 q 367 439 358 456 q 375 401 375 422 q 356 338 375 367 q 299 272 336 310 l 39 3 z "},"₃":{"ha":517,"x_min":31,"x_max":485,"o":"m 219 282 q 345 299 289 282 q 435 350 401 317 q 468 433 468 383 q 444 515 468 479 q 374 573 419 551 q 263 594 328 594 q 113 542 169 594 q 56 413 56 490 l 186 413 q 207 463 186 444 q 261 482 228 482 q 311 467 294 482 q 328 424 328 451 q 314 386 328 404 q 276 357 300 368 q 219 346 251 346 l 219 282 m 257 -14 q 379 8 329 -14 q 457 70 429 31 q 485 160 485 110 q 466 235 485 204 q 410 287 447 267 q 326 317 374 307 q 219 328 278 328 l 219 256 q 290 245 263 256 q 331 216 318 235 q 344 174 344 197 q 321 117 344 133 q 261 100 297 100 q 199 122 225 100 q 172 186 172 143 l 31 186 q 57 89 31 135 q 134 15 83 43 q 257 -14 185 -14 z "},"₄":{"ha":599,"x_min":18,"x_max":556,"o":"m 18 104 l 556 104 l 556 224 l 407 224 l 393 206 l 136 206 l 18 104 m 163 146 l 335 379 l 335 143 l 318 135 l 318 0 l 464 0 l 464 583 l 360 583 l 18 104 l 163 146 z "},"₅":{"ha":550,"x_min":38,"x_max":507,"o":"m 507 183 q 481 288 507 244 q 415 353 456 331 q 329 375 375 375 q 247 363 286 375 q 174 314 207 351 l 75 243 q 163 273 119 265 q 238 281 206 281 q 294 272 268 281 q 336 247 319 264 q 353 200 353 229 q 338 153 353 172 q 299 124 324 133 q 238 115 275 115 q 167 133 207 115 q 90 179 128 150 l 38 61 q 135 8 78 31 q 272 -14 192 -14 q 382 7 329 -14 q 471 71 435 28 q 507 183 507 114 m 260 458 l 494 458 l 494 581 l 157 581 l 75 243 l 211 314 l 260 458 z "},"₆":{"ha":547,"x_min":36,"x_max":511,"o":"m 175 201 q 189 254 175 232 q 224 289 203 276 q 274 301 244 301 q 324 289 301 301 q 360 254 347 276 q 372 201 372 232 q 359 150 372 172 q 324 117 346 128 q 274 106 301 106 q 224 117 246 106 q 189 151 203 129 q 175 201 175 172 m 271 578 l 103 364 q 56 289 76 329 q 36 201 36 249 q 68 82 36 131 q 154 8 100 33 q 274 -17 208 -17 q 393 8 339 -17 q 479 82 447 33 q 511 201 511 131 q 484 303 511 260 q 415 369 457 346 q 331 392 374 392 q 278 385 300 392 q 233 356 257 379 l 261 367 l 450 578 l 271 578 z "},"₇":{"ha":533,"x_min":38,"x_max":515,"o":"m 38 451 l 304 451 l 81 0 l 232 0 l 515 583 l 38 583 l 38 451 z "},"₈":{"ha":513,"x_min":38,"x_max":474,"o":"m 58 443 q 88 356 58 392 q 163 302 117 319 q 256 285 208 285 q 349 302 304 285 q 424 356 394 319 q 453 443 453 392 q 426 527 453 492 q 355 580 399 563 q 256 597 311 597 q 158 580 203 597 q 85 527 113 563 q 58 443 58 492 m 192 429 q 199 465 192 450 q 222 488 207 479 q 256 496 236 496 q 303 478 286 496 q 319 429 319 460 q 311 394 319 410 q 289 371 303 379 q 256 363 275 363 q 224 371 238 363 q 201 394 210 379 q 192 429 192 408 m 38 158 q 69 67 38 107 q 149 7 100 28 q 256 -14 199 -14 q 363 7 313 -14 q 443 67 413 28 q 474 158 474 107 q 453 237 474 204 q 401 290 433 269 q 330 321 368 311 q 256 331 292 331 q 182 321 219 331 q 111 290 144 311 q 58 237 78 269 q 38 158 38 204 m 178 179 q 188 218 178 201 q 217 245 199 235 q 256 256 236 256 q 295 245 278 256 q 323 218 313 235 q 333 179 333 201 q 310 121 333 140 q 256 101 286 101 q 201 121 224 101 q 178 179 178 140 z "},"₉":{"ha":553,"x_min":35,"x_max":510,"o":"m 369 382 q 357 330 369 353 q 322 294 344 307 q 272 282 300 282 q 222 294 244 282 q 187 328 200 306 q 174 382 174 351 q 187 433 174 411 q 222 467 200 456 q 274 478 244 478 q 322 467 300 478 q 357 433 344 456 q 369 382 369 411 m 275 6 l 442 219 q 490 295 469 256 q 510 382 510 335 q 478 502 510 454 q 392 575 446 550 q 272 600 338 600 q 153 575 207 600 q 67 502 99 550 q 35 382 35 454 q 62 281 35 324 q 131 215 89 239 q 215 192 172 192 q 269 199 247 192 q 313 228 290 206 l 285 217 l 94 6 l 275 6 z "},"⅐":{"ha":1308,"x_min":35,"x_max":1278,"o":"m 843 972 l 121 0 l 288 0 l 1010 972 l 843 972 m 35 794 l 178 831 l 178 381 l 314 381 l 314 975 l 35 918 l 35 794 m 801 451 l 1071 451 l 844 0 l 997 0 l 1278 583 l 801 583 l 801 451 z "},"⅑":{"ha":1228,"x_min":35,"x_max":1197,"o":"m 832 972 l 110 0 l 278 0 l 1000 972 l 832 972 m 35 794 l 178 831 l 178 381 l 314 381 l 314 975 l 35 918 l 35 794 m 1057 382 q 1044 330 1057 353 q 1008 294 1031 307 q 960 282 986 282 q 908 294 931 282 q 874 330 886 307 q 861 382 861 353 q 874 433 861 411 q 908 467 886 456 q 960 478 931 478 q 1008 467 986 478 q 1044 433 1031 456 q 1057 382 1057 411 m 961 6 l 1128 219 q 1176 295 1156 256 q 1197 382 1197 335 q 1165 502 1197 454 q 1078 575 1132 550 q 960 600 1024 600 q 839 575 893 600 q 753 502 785 550 q 721 382 721 454 q 748 281 721 324 q 817 215 775 239 q 903 192 858 192 q 955 199 933 192 q 999 228 976 206 l 971 217 l 781 6 l 961 6 z "},"⅒":{"ha":1682,"x_min":35,"x_max":1636,"o":"m 832 972 l 110 0 l 278 0 l 1000 972 l 832 972 m 35 794 l 178 831 l 178 381 l 314 381 l 314 975 l 35 918 l 35 794 m 764 415 l 910 451 l 910 1 l 1046 1 l 1046 596 l 764 539 l 764 415 m 1286 292 q 1294 366 1286 332 q 1315 424 1301 400 q 1349 459 1329 447 q 1393 471 1369 471 q 1437 459 1417 471 q 1471 424 1457 447 q 1492 366 1485 400 q 1500 292 1500 332 q 1492 217 1500 250 q 1471 160 1485 183 q 1437 124 1457 136 q 1393 113 1417 113 q 1349 124 1369 113 q 1315 160 1329 136 q 1294 217 1301 183 q 1286 292 1286 250 m 1151 292 q 1169 165 1151 221 q 1219 70 1186 110 q 1295 10 1251 31 q 1393 -11 1339 -11 q 1494 10 1449 -11 q 1572 70 1539 31 q 1620 165 1604 110 q 1636 292 1636 221 q 1620 419 1636 363 q 1572 514 1604 475 q 1494 574 1539 553 q 1393 594 1449 594 q 1295 574 1339 594 q 1219 514 1251 553 q 1169 419 1186 475 q 1151 292 1151 363 z "},"⅓":{"ha":1213,"x_min":35,"x_max":1179,"o":"m 832 972 l 110 0 l 278 0 l 1000 972 l 832 972 m 35 794 l 178 831 l 178 381 l 314 381 l 314 975 l 35 918 l 35 794 m 915 282 q 1041 299 985 282 q 1130 350 1097 317 q 1163 433 1163 383 q 1139 515 1163 479 q 1069 573 1115 551 q 957 594 1022 594 q 807 542 864 594 q 750 413 750 490 l 881 413 q 902 463 881 444 q 957 482 924 482 q 1006 467 990 482 q 1022 424 1022 451 q 1009 386 1022 404 q 972 357 996 368 q 915 346 949 346 l 915 282 m 950 -14 q 1074 8 1022 -14 q 1152 70 1125 31 q 1179 160 1179 110 q 1160 235 1179 204 q 1105 287 1140 267 q 1022 317 1069 307 q 915 328 974 328 l 915 256 q 986 245 960 256 q 1026 216 1013 235 q 1039 174 1039 197 q 1015 117 1039 133 q 956 100 992 100 q 892 122 919 100 q 865 186 865 143 l 725 186 q 752 89 725 135 q 830 15 779 43 q 950 -14 881 -14 z "},"⅔":{"ha":1399,"x_min":42,"x_max":1365,"o":"m 1035 972 l 313 0 l 482 0 l 1204 972 l 1035 972 m 42 392 l 536 392 l 536 522 l 303 522 l 439 642 q 499 712 476 672 q 522 797 522 751 q 497 888 522 844 q 424 959 472 931 q 303 988 375 988 q 174 957 226 988 q 96 874 122 926 q 69 760 69 822 l 208 760 q 219 815 208 792 q 251 852 231 839 q 299 865 272 865 q 342 855 325 865 q 368 828 360 844 q 376 790 376 811 q 357 727 376 756 q 301 661 338 699 l 42 392 m 1100 282 q 1226 299 1169 282 q 1316 350 1283 317 q 1349 433 1349 383 q 1324 515 1349 479 q 1254 573 1300 551 q 1144 594 1208 594 q 993 542 1050 594 q 936 413 936 490 l 1067 413 q 1088 463 1067 444 q 1142 482 1108 482 q 1192 467 1175 482 q 1208 424 1208 451 q 1194 386 1208 404 q 1156 357 1181 368 q 1100 346 1132 346 l 1100 282 m 1136 -14 q 1259 8 1208 -14 q 1338 70 1310 31 q 1365 160 1365 110 q 1345 235 1365 204 q 1290 287 1325 267 q 1207 317 1254 307 q 1100 328 1160 328 l 1100 256 q 1171 245 1143 256 q 1212 216 1199 235 q 1225 174 1225 197 q 1201 117 1225 133 q 1143 100 1178 100 q 1078 122 1106 100 q 1051 186 1051 143 l 911 186 q 938 89 911 135 q 1015 15 965 43 q 1136 -14 1065 -14 z "},"⅕":{"ha":1197,"x_min":35,"x_max":1167,"o":"m 832 972 l 110 0 l 278 0 l 1000 972 l 832 972 m 35 794 l 178 831 l 178 381 l 314 381 l 314 975 l 35 918 l 35 794 m 1167 183 q 1141 288 1167 244 q 1075 353 1115 331 q 989 375 1035 375 q 908 363 946 375 q 835 314 869 351 l 736 243 q 824 273 781 265 q 900 281 868 281 q 956 272 931 281 q 997 247 981 264 q 1014 200 1014 229 q 1000 153 1014 172 q 961 124 986 133 q 900 115 936 115 q 828 133 868 115 q 753 179 789 150 l 699 61 q 794 8 738 31 q 931 -14 850 -14 q 1042 7 988 -14 q 1132 71 1097 28 q 1167 183 1167 114 m 921 458 l 1156 458 l 1156 581 l 817 581 l 736 243 l 872 314 l 921 458 z "},"⅖":{"ha":1396,"x_min":42,"x_max":1351,"o":"m 1035 972 l 313 0 l 482 0 l 1204 972 l 1035 972 m 42 392 l 536 392 l 536 522 l 303 522 l 439 642 q 499 712 476 672 q 522 797 522 751 q 497 888 522 844 q 424 959 472 931 q 303 988 375 988 q 174 957 226 988 q 96 874 122 926 q 69 760 69 822 l 208 760 q 219 815 208 792 q 251 852 231 839 q 299 865 272 865 q 342 855 325 865 q 368 828 360 844 q 376 790 376 811 q 357 727 376 756 q 301 661 338 699 l 42 392 m 1351 183 q 1326 288 1351 244 q 1260 353 1301 331 q 1174 375 1219 375 q 1092 363 1132 375 q 1019 314 1053 351 l 922 243 q 1009 273 967 265 q 1085 281 1051 281 q 1140 272 1114 281 q 1181 247 1165 264 q 1197 200 1197 229 q 1184 153 1197 172 q 1146 124 1171 133 q 1085 115 1121 115 q 1014 133 1054 115 q 938 179 974 150 l 883 61 q 979 8 924 31 q 1115 -14 1035 -14 q 1226 7 1172 -14 q 1316 71 1281 28 q 1351 183 1351 114 m 1106 458 l 1339 458 l 1339 581 l 1001 581 l 922 243 l 1057 314 l 1106 458 z "},"⅗":{"ha":1293,"x_min":31,"x_max":1243,"o":"m 936 972 l 214 0 l 382 0 l 1104 972 l 936 972 m 221 671 q 347 688 290 671 q 436 739 403 706 q 469 822 469 772 q 445 904 469 868 q 375 962 421 940 q 264 983 329 983 q 114 931 172 983 q 56 801 56 879 l 188 801 q 208 852 188 833 q 263 871 229 871 q 313 856 296 871 q 329 813 329 840 q 315 775 329 793 q 277 746 301 757 q 221 735 253 735 l 221 671 m 257 375 q 380 397 329 375 q 458 459 431 419 q 486 549 486 499 q 466 624 486 593 q 410 676 446 656 q 328 706 375 696 q 221 717 281 717 l 221 644 q 292 634 264 644 q 333 605 319 624 q 346 563 346 586 q 322 506 346 522 q 263 489 297 489 q 198 510 225 489 q 171 575 171 532 l 31 575 q 58 478 31 524 q 135 403 85 432 q 257 375 186 375 m 1243 183 q 1218 288 1243 244 q 1153 353 1193 331 q 1067 375 1113 375 q 984 363 1024 375 q 911 314 944 351 l 814 243 q 901 273 858 265 q 976 281 943 281 q 1032 272 1006 281 q 1075 247 1058 264 q 1092 201 1092 229 q 1077 153 1092 172 q 1038 124 1063 133 q 976 115 1013 115 q 905 133 944 115 q 829 179 865 150 l 775 61 q 872 8 815 31 q 1008 -14 928 -14 q 1119 7 1065 -14 q 1208 71 1172 28 q 1243 183 1243 114 m 997 458 l 1232 458 l 1232 581 l 894 581 l 814 243 l 950 314 l 997 458 z "},"⅘":{"ha":1411,"x_min":31,"x_max":1371,"o":"m 1019 971 l 297 -1 l 465 -1 l 1188 971 l 1019 971 m 31 493 l 567 493 l 567 613 l 419 613 l 406 594 l 146 594 l 31 493 m 174 535 l 343 768 l 343 532 l 328 524 l 328 389 l 475 389 l 475 972 l 369 972 l 31 493 l 174 535 m 1371 183 q 1345 287 1371 244 q 1280 351 1319 329 q 1193 374 1240 374 q 1111 363 1150 374 q 1040 314 1072 351 l 940 243 q 1028 272 985 265 q 1106 279 1071 279 q 1159 271 1133 279 q 1201 245 1185 263 q 1217 200 1217 228 q 1203 152 1217 172 q 1165 123 1190 132 q 1106 114 1140 114 q 1033 131 1072 114 q 958 178 994 149 l 901 61 q 999 8 942 31 q 1136 -14 1056 -14 q 1247 7 1193 -14 q 1335 71 1300 28 q 1371 183 1371 114 m 1125 458 l 1358 458 l 1358 579 l 1021 579 l 940 243 l 1076 313 l 1125 458 z "},"⅙":{"ha":1211,"x_min":35,"x_max":1172,"o":"m 858 972 l 136 0 l 306 0 l 1028 972 l 858 972 m 35 794 l 178 831 l 178 381 l 314 381 l 314 975 l 35 918 l 35 794 m 836 201 q 849 254 836 232 q 885 289 863 276 q 936 301 907 301 q 985 289 963 301 q 1019 254 1007 276 q 1032 201 1032 232 q 1019 150 1032 172 q 985 117 1007 128 q 936 106 963 106 q 885 117 907 106 q 849 150 863 128 q 836 201 836 172 m 932 578 l 764 364 q 717 289 736 329 q 697 201 697 249 q 729 82 697 131 q 815 8 761 33 q 936 -17 869 -17 q 1054 8 1000 -17 q 1140 82 1108 33 q 1172 201 1172 131 q 1145 303 1172 260 q 1076 369 1118 346 q 992 392 1035 392 q 940 385 961 392 q 894 356 919 379 l 922 367 l 1111 578 l 932 578 z "},"⅚":{"ha":1293,"x_min":42,"x_max":1254,"o":"m 967 972 l 244 0 l 414 0 l 1136 972 l 967 972 m 510 572 q 485 676 510 633 q 419 742 460 719 q 333 764 379 764 q 251 752 292 764 q 178 703 211 740 l 81 632 q 167 662 125 654 q 243 669 210 669 q 297 661 272 669 q 339 635 322 653 q 356 589 356 618 q 342 542 356 561 q 304 513 329 522 q 243 504 279 504 q 172 522 211 504 q 96 568 132 539 l 42 450 q 138 397 82 419 q 275 375 194 375 q 385 396 332 375 q 474 460 439 417 q 510 572 510 503 m 265 847 l 499 847 l 499 969 l 161 969 l 81 632 l 217 703 l 265 847 m 918 201 q 931 254 918 232 q 967 289 944 276 q 1017 301 989 301 q 1067 289 1044 301 q 1102 254 1090 276 q 1114 201 1114 232 q 1102 150 1114 172 q 1067 117 1090 128 q 1017 106 1044 106 q 967 117 989 106 q 931 150 944 128 q 918 201 918 172 m 1015 578 l 849 364 q 799 289 819 329 q 779 201 779 249 q 811 82 779 131 q 897 8 843 33 q 1017 -17 951 -17 q 1136 8 1082 -17 q 1222 82 1190 33 q 1254 201 1254 131 q 1228 303 1254 260 q 1159 369 1201 346 q 1074 392 1117 392 q 1022 385 1043 392 q 976 356 1000 379 l 1006 367 l 1194 578 l 1015 578 z "},"⅛":{"ha":1238,"x_min":35,"x_max":1196,"o":"m 858 972 l 136 0 l 306 0 l 1028 972 l 858 972 m 35 794 l 178 831 l 178 381 l 314 381 l 314 975 l 35 918 l 35 794 m 779 443 q 808 356 779 392 q 883 302 838 319 q 976 285 929 285 q 1070 302 1025 285 q 1145 356 1115 319 q 1175 443 1175 392 q 1148 527 1175 492 q 1076 580 1121 563 q 976 597 1032 597 q 878 580 924 597 q 806 527 833 563 q 779 443 779 492 m 913 429 q 920 465 913 450 q 942 488 928 479 q 975 496 957 496 q 1025 478 1007 496 q 1043 429 1043 460 q 1034 394 1043 410 q 1010 371 1025 379 q 976 363 996 363 q 944 371 958 363 q 921 394 929 379 q 913 429 913 410 m 758 158 q 790 67 758 107 q 870 7 821 28 q 975 -14 919 -14 q 1083 7 1033 -14 q 1165 67 1133 28 q 1196 158 1196 107 q 1176 237 1196 204 q 1122 290 1156 269 q 1051 321 1089 311 q 976 331 1013 331 q 902 321 940 331 q 831 290 864 311 q 778 237 799 269 q 758 158 758 204 m 900 179 q 910 218 900 201 q 938 245 921 235 q 976 256 956 256 q 1016 245 999 256 q 1044 218 1033 235 q 1054 179 1054 201 q 1031 121 1054 140 q 975 101 1008 101 q 922 121 944 101 q 900 179 900 140 z "},"⅜":{"ha":1325,"x_min":31,"x_max":1283,"o":"m 946 972 l 224 0 l 390 0 l 1113 972 l 946 972 m 221 671 q 347 688 290 671 q 436 739 403 706 q 469 822 469 772 q 445 904 469 868 q 375 962 421 940 q 264 983 329 983 q 114 931 172 983 q 56 801 56 879 l 188 801 q 208 852 188 833 q 263 871 229 871 q 313 856 296 871 q 329 813 329 840 q 315 775 329 793 q 277 746 301 757 q 221 735 253 735 l 221 671 m 257 375 q 380 397 329 375 q 458 459 431 419 q 486 549 486 499 q 466 624 486 593 q 410 676 446 656 q 327 706 375 696 q 221 717 279 717 l 221 644 q 292 634 264 644 q 333 605 319 624 q 346 563 346 586 q 322 506 346 522 q 263 489 297 489 q 198 510 225 489 q 171 575 171 532 l 31 575 q 58 478 31 524 q 135 403 85 432 q 257 375 186 375 m 865 443 q 895 356 865 392 q 970 302 925 319 q 1063 285 1015 285 q 1156 302 1111 285 q 1232 356 1201 319 q 1263 443 1263 392 q 1235 527 1263 492 q 1163 580 1208 563 q 1063 597 1117 597 q 964 580 1008 597 q 892 527 919 563 q 865 443 865 492 m 999 429 q 1006 465 999 450 q 1029 488 1014 479 q 1063 496 1044 496 q 1110 478 1092 496 q 1128 429 1128 460 q 1119 394 1128 410 q 1097 371 1111 379 q 1064 363 1083 363 q 1031 371 1046 363 q 1008 394 1017 379 q 999 429 999 408 m 844 158 q 875 67 844 107 q 956 7 906 28 q 1063 -14 1007 -14 q 1169 7 1119 -14 q 1251 67 1219 28 q 1283 158 1283 107 q 1263 237 1283 204 q 1209 290 1243 269 q 1137 321 1175 311 q 1063 331 1099 331 q 988 321 1026 331 q 917 290 950 311 q 865 237 885 269 q 844 158 844 204 m 988 179 q 998 218 988 201 q 1025 245 1008 235 q 1064 256 1042 256 q 1102 245 1085 256 q 1130 218 1119 235 q 1140 179 1140 201 q 1117 121 1140 140 q 1063 101 1094 101 q 1010 121 1032 101 q 988 179 988 140 z "},"⅝":{"ha":1346,"x_min":35,"x_max":1304,"o":"m 967 972 l 244 0 l 414 0 l 1136 972 l 967 972 m 501 572 q 476 676 501 633 q 411 742 451 719 q 325 764 371 764 q 242 752 282 764 q 169 703 203 740 l 71 632 q 158 662 115 654 q 235 669 200 669 q 289 661 263 669 q 331 635 315 653 q 347 590 347 618 q 334 542 347 561 q 296 513 321 522 q 235 504 271 504 q 163 522 203 504 q 88 568 124 539 l 35 450 q 130 397 74 419 q 267 375 186 375 q 378 396 324 375 q 467 460 432 417 q 501 572 501 503 m 256 847 l 489 847 l 489 969 l 153 969 l 71 632 l 207 703 l 256 847 m 888 443 q 917 356 888 392 q 993 302 947 319 q 1086 285 1039 285 q 1180 302 1135 285 q 1254 356 1225 319 q 1283 443 1283 392 q 1256 527 1283 492 q 1185 580 1229 563 q 1086 597 1142 597 q 988 580 1033 597 q 915 527 942 563 q 888 443 888 492 m 1021 429 q 1030 465 1021 450 q 1053 488 1039 479 q 1086 496 1068 496 q 1133 478 1115 496 q 1150 429 1150 460 q 1142 394 1150 410 q 1119 371 1133 379 q 1086 363 1106 363 q 1053 371 1068 363 q 1029 394 1038 379 q 1021 429 1021 410 m 867 158 q 899 67 867 107 q 980 7 931 28 q 1086 -14 1029 -14 q 1193 7 1143 -14 q 1274 67 1243 28 q 1304 158 1304 107 q 1284 237 1304 204 q 1231 290 1264 269 q 1160 321 1199 311 q 1086 331 1122 331 q 1012 321 1050 331 q 940 290 974 311 q 887 237 907 269 q 867 158 867 204 m 1008 179 q 1019 218 1008 201 q 1048 245 1029 235 q 1086 256 1067 256 q 1125 245 1108 256 q 1152 218 1142 235 q 1163 179 1163 201 q 1140 121 1163 140 q 1086 101 1118 101 q 1031 121 1054 101 q 1008 179 1008 140 z "},"⅞":{"ha":1193,"x_min":31,"x_max":1151,"o":"m 806 972 l 83 0 l 251 0 l 974 972 l 806 972 m 31 840 l 301 840 l 74 389 l 226 389 l 508 972 l 31 972 l 31 840 m 735 443 q 765 356 735 392 q 840 302 794 319 q 933 285 886 285 q 1027 302 982 285 q 1101 356 1072 319 q 1131 443 1131 392 q 1103 527 1131 492 q 1033 580 1076 563 q 933 597 989 597 q 835 580 881 597 q 762 527 789 563 q 735 443 735 492 m 868 429 q 877 465 868 450 q 901 488 886 479 q 933 496 915 496 q 980 478 963 496 q 997 429 997 460 q 989 394 997 410 q 967 371 981 379 q 933 363 953 363 q 900 371 915 363 q 876 394 885 379 q 868 429 868 410 m 714 158 q 746 67 714 107 q 827 7 778 28 q 933 -14 876 -14 q 1040 7 990 -14 q 1121 67 1090 28 q 1151 158 1151 107 q 1131 237 1151 204 q 1078 290 1111 269 q 1008 321 1046 311 q 933 331 969 331 q 859 321 897 331 q 788 290 821 311 q 734 237 754 269 q 714 158 714 204 m 856 179 q 866 218 856 201 q 895 245 876 235 q 933 256 914 256 q 972 245 956 256 q 999 218 989 235 q 1010 179 1010 201 q 988 121 1010 140 q 933 101 965 101 q 878 121 901 101 q 856 179 856 140 z "},"_":{"ha":738,"x_min":0,"x_max":738,"o":"m 0 -214 l 738 -214 l 738 -79 l 0 -79 l 0 -214 z "},"-":{"ha":308,"x_min":7,"x_max":303,"o":"m 7 238 l 303 238 l 303 421 l 7 421 l 7 238 z "},"‐":{"ha":308,"x_min":7,"x_max":303,"o":"m 7 238 l 303 238 l 303 421 l 7 421 l 7 238 z "},"‒":{"ha":871,"x_min":97,"x_max":763,"o":"m 97 238 l 763 238 l 763 421 l 97 421 l 97 238 z "},"–":{"ha":1088,"x_min":97,"x_max":985,"o":"m 97 238 l 985 238 l 985 421 l 97 421 l 97 238 z "},"—":{"ha":1306,"x_min":97,"x_max":1204,"o":"m 97 238 l 1204 238 l 1204 421 l 97 421 l 97 238 z "},"(":{"ha":474,"x_min":94,"x_max":454,"o":"m 261 1083 q 136 754 178 928 q 94 403 94 581 q 136 53 94 226 q 261 -278 178 -121 l 454 -278 q 343 53 382 -121 q 304 403 304 226 q 343 754 304 581 q 454 1083 382 928 l 261 1083 z "},"[":{"ha":503,"x_min":126,"x_max":475,"o":"m 336 901 l 475 901 l 475 1083 l 126 1083 l 126 -306 l 475 -306 l 475 -124 l 336 -124 l 336 901 z "},"{":{"ha":553,"x_min":53,"x_max":485,"o":"m 371 847 q 389 896 371 875 q 436 917 407 917 l 483 917 l 483 1083 l 357 1083 q 250 1063 301 1083 q 167 1001 199 1043 q 136 889 136 958 l 136 632 q 116 522 136 553 q 53 479 96 490 l 53 326 q 116 285 96 317 q 136 174 136 253 l 136 -83 q 167 -194 136 -151 q 250 -258 199 -237 q 357 -278 301 -278 l 485 -278 l 485 -111 l 438 -111 q 402 -101 417 -111 q 379 -76 388 -92 q 371 -42 371 -60 l 371 125 q 365 222 371 171 q 342 317 360 274 q 283 389 324 361 q 168 417 243 417 l 168 389 q 283 417 243 389 q 342 488 324 444 q 365 583 360 532 q 371 681 371 635 l 371 847 z "},"‚":{"ha":460,"x_min":83,"x_max":376,"o":"m 160 111 l 83 -243 l 233 -243 l 376 111 l 160 111 z "},"„":{"ha":781,"x_min":69,"x_max":683,"o":"m 146 111 l 69 -243 l 219 -243 l 363 111 l 146 111 m 465 111 l 390 -243 l 542 -243 l 683 111 l 465 111 z "},")":{"ha":474,"x_min":18,"x_max":379,"o":"m 211 -278 q 337 53 294 -121 q 379 403 379 226 q 337 754 379 581 q 211 1083 294 928 l 18 1083 q 133 754 92 928 q 174 403 174 581 q 133 53 174 226 q 18 -278 92 -121 l 211 -278 z "},"]":{"ha":503,"x_min":28,"x_max":378,"o":"m 168 -124 l 28 -124 l 28 -306 l 378 -306 l 378 1083 l 28 1083 l 28 901 l 168 901 l 168 -124 z "},"}":{"ha":553,"x_min":75,"x_max":506,"o":"m 190 -42 q 173 -90 190 -68 q 124 -111 156 -111 l 75 -111 l 75 -278 l 201 -278 q 309 -258 258 -278 q 391 -194 360 -237 q 422 -83 422 -151 l 422 174 q 442 285 422 253 q 506 326 463 317 l 506 479 q 442 522 463 490 q 422 632 422 553 l 422 889 q 391 1001 422 958 q 309 1063 360 1043 q 201 1083 258 1083 l 75 1083 l 75 917 l 124 917 q 160 907 144 917 q 183 881 175 897 q 190 847 190 865 l 190 681 q 195 583 190 635 q 217 488 200 532 q 276 417 235 444 q 390 389 318 389 l 390 417 q 276 389 318 417 q 217 317 235 361 q 195 222 200 274 q 190 125 190 171 l 190 -42 z "},"«":{"ha":751,"x_min":39,"x_max":697,"o":"m 489 360 l 697 618 l 568 707 l 321 354 l 568 1 l 697 90 l 489 360 m 207 360 l 415 618 l 285 707 l 39 354 l 285 1 l 415 90 l 207 360 z "},"‘":{"ha":460,"x_min":97,"x_max":390,"o":"m 317 618 l 390 972 l 240 972 l 97 618 l 317 618 z "},"“":{"ha":781,"x_min":97,"x_max":711,"o":"m 317 618 l 390 972 l 240 972 l 97 618 l 317 618 m 638 618 l 711 972 l 561 972 l 418 618 l 638 618 z "},"‹":{"ha":486,"x_min":39,"x_max":415,"o":"m 207 360 l 415 618 l 285 707 l 39 354 l 285 1 l 415 90 l 207 360 z "},"»":{"ha":751,"x_min":54,"x_max":714,"o":"m 263 349 l 54 90 l 183 1 l 431 354 l 183 707 l 54 618 l 263 349 m 546 349 l 336 90 l 467 1 l 714 354 l 467 707 l 336 618 l 546 349 z "},"’":{"ha":460,"x_min":69,"x_max":363,"o":"m 146 972 l 69 618 l 219 618 l 363 972 l 146 972 z "},"”":{"ha":781,"x_min":69,"x_max":683,"o":"m 146 972 l 69 618 l 219 618 l 363 972 l 146 972 m 465 972 l 390 618 l 542 618 l 683 972 l 465 972 z "},"›":{"ha":486,"x_min":71,"x_max":447,"o":"m 279 349 l 71 90 l 201 1 l 447 354 l 201 707 l 71 618 l 279 349 z "},"!":{"ha":476,"x_min":108,"x_max":369,"o":"m 108 972 l 154 321 l 324 321 l 369 972 l 108 972 m 108 86 q 145 1 108 35 q 239 -33 182 -33 q 333 1 296 -33 q 369 86 369 35 q 333 173 369 140 q 239 206 296 206 q 145 173 182 206 q 108 86 108 140 z "},"\"":{"ha":719,"x_min":85,"x_max":663,"o":"m 146 972 l 85 529 l 224 529 l 369 972 l 146 972 m 439 972 l 378 529 l 515 529 l 663 972 l 439 972 z "},"#":{"ha":926,"x_min":49,"x_max":878,"o":"m 104 571 l 303 571 l 339 581 l 622 581 l 664 571 l 878 571 l 878 740 l 104 740 l 104 571 m 49 238 l 822 238 l 822 407 l 650 407 l 608 399 l 289 399 l 244 407 l 49 407 l 49 238 m 658 972 l 586 676 l 586 635 l 515 347 l 497 311 l 422 0 l 604 0 l 840 972 l 658 972 m 322 972 l 86 0 l 269 0 l 346 314 l 344 350 l 414 633 l 433 678 l 506 972 l 322 972 z "},"%":{"ha":1276,"x_min":31,"x_max":1246,"o":"m 31 740 q 65 612 31 669 q 160 519 100 554 q 294 485 219 485 q 430 520 371 485 q 523 613 489 556 q 557 742 557 671 q 523 871 557 813 q 430 964 489 929 q 294 999 371 999 q 160 964 219 999 q 65 871 100 929 q 31 740 31 813 m 204 742 q 216 788 204 767 q 248 823 228 810 q 294 836 268 836 q 341 822 321 836 q 372 788 361 808 q 383 742 383 767 q 372 697 383 717 q 340 663 360 676 q 294 650 321 650 q 248 663 268 650 q 216 696 228 675 q 204 742 204 717 m 721 229 q 756 101 721 160 q 849 8 790 43 q 982 -26 908 -26 q 1118 8 1058 -26 q 1212 101 1178 43 q 1246 231 1246 160 q 1212 360 1246 301 q 1118 453 1178 418 q 982 488 1058 488 q 849 453 908 488 q 756 360 790 418 q 721 229 721 301 m 894 232 q 906 277 894 257 q 937 310 917 297 q 983 322 957 322 q 1029 310 1010 322 q 1061 278 1049 299 q 1074 231 1074 257 q 1062 186 1074 207 q 1030 152 1050 165 q 985 139 1010 139 q 936 152 957 139 q 905 186 915 165 q 894 232 894 207 m 903 972 l 157 0 l 374 0 l 1121 972 l 903 972 z "}}}
